<?plantuml 1.2026.2?><svg xmlns="http://www.w3.org/2000/svg" xmlns:xlink="http://www.w3.org/1999/xlink" contentStyleType="text/css" data-diagram-type="CLASS" height="1028px" preserveAspectRatio="none" style="width:565px;height:1028px;background:#FFFFFF;" version="1.1" viewBox="0 0 565 1028" width="565px" zoomAndPan="magnify"><defs/><g><!--class tachometer.model.RepoManifest--><g class="entity" data-qualified-name="tachometer.model.RepoManifest" data-source-line="2" id="ent0002"><rect fill="#F1F1F1" height="334.0188" rx="2.5" ry="2.5" style="stroke:#181818;stroke-width:0.5;" width="245.7011" x="7" y="235.82"/><ellipse cx="80.1147" cy="251.82" fill="#ADD1B2" rx="11" ry="11" style="stroke:#181818;stroke-width:1;"/><path d="M80.2241,247.3512 Q79.3022,247.3512 78.5678,247.6637 Q77.8491,247.9762 77.3491,248.57 Q76.8491,249.1481 76.5678,250.0231 Q76.3022,250.8981 76.3022,251.9919 Q76.3022,253.4294 76.7397,254.4762 Q77.1928,255.5231 78.0366,256.07 Q78.896,256.6169 80.2085,256.6169 Q80.9897,256.6169 81.6772,256.4919 Q82.3803,256.3512 83.3803,256.0387 L83.3803,257.9137 Q82.521,258.2419 81.7553,258.3669 Q81.0053,258.4919 79.9897,258.4919 Q78.0678,258.4919 76.7553,257.695 Q75.4585,256.8825 74.8022,255.4137 Q74.146,253.9294 74.146,251.9606 Q74.146,250.5387 74.5366,249.3669 Q74.9428,248.1794 75.7241,247.3044 Q76.5053,246.4294 77.646,245.9606 Q78.7866,245.4762 80.2553,245.4762 Q81.2085,245.4762 82.0991,245.6794 Q83.0053,245.8669 83.9428,246.3356 L83.1147,248.1169 Q82.3335,247.7419 81.6772,247.5544 Q81.021,247.3512 80.2241,247.3512 Z " fill="#000000"/><text fill="#000000" font-family="sans-serif" font-size="14" lengthAdjust="spacing" textLength="90.9716" x="100.6147" y="257.252">RepoManifest</text><line style="stroke:#181818;stroke-width:0.5;" x1="8" x2="251.7011" y1="267.82" y2="267.82"/><text fill="#000000" font-family="sans-serif" font-size="14" lengthAdjust="spacing" textLength="86.0997" x="13" y="286.7859">category : str</text><text fill="#000000" font-family="sans-serif" font-size="14" lengthAdjust="spacing" textLength="112.8676" x="13" y="305.8539">default_label : str</text><text fill="#000000" font-family="sans-serif" font-size="14" lengthAdjust="spacing" textLength="103.8516" x="13" y="324.9218">disk_path : Path</text><text fill="#000000" font-family="sans-serif" font-size="14" lengthAdjust="spacing" textLength="155.3434" x="13" y="343.9897">host_profile_path : Path</text><text fill="#000000" font-family="sans-serif" font-size="14" lengthAdjust="spacing" textLength="174.8593" x="13" y="363.0576">host_summary_path : Path</text><text fill="#000000" font-family="sans-serif" font-size="14" lengthAdjust="spacing" textLength="56.9238" x="13" y="382.1255">kind : str</text><text fill="#000000" font-family="sans-serif" font-size="14" lengthAdjust="spacing" textLength="66.0658" x="13" y="401.1934">name : str</text><text fill="#000000" font-family="sans-serif" font-size="14" lengthAdjust="spacing" textLength="200.4512" x="13" y="420.2614">notify_config_path : str | None</text><text fill="#000000" font-family="sans-serif" font-size="14" lengthAdjust="spacing" textLength="168.9093" x="13" y="439.3293">notify_service : str | None</text><text fill="#000000" font-family="sans-serif" font-size="14" lengthAdjust="spacing" textLength="233.7011" x="13" y="458.3972">notify_shock_relay_root : str | None</text><text fill="#000000" font-family="sans-serif" font-size="14" lengthAdjust="spacing" textLength="163.4354" x="13" y="477.4651">notify_target : str | None</text><text fill="#000000" font-family="sans-serif" font-size="14" lengthAdjust="spacing" textLength="120.2455" x="13" y="496.533">profile_path : Path</text><text fill="#000000" font-family="sans-serif" font-size="14" lengthAdjust="spacing" textLength="105.8116" x="13" y="515.6009">repo_root : Path</text><text fill="#000000" font-family="sans-serif" font-size="14" lengthAdjust="spacing" textLength="139.7615" x="13" y="534.6689">summary_path : Path</text><line style="stroke:#181818;stroke-width:0.5;" x1="8" x2="251.7011" y1="542.7708" y2="542.7708"/><text fill="#000000" font-family="sans-serif" font-size="14" lengthAdjust="spacing" textLength="204.1193" x="13" y="561.7368">repo_metadata() -&gt; dict[str, str]</text></g><!--class tachometer.model.ResourceSnapshot--><g class="entity" data-qualified-name="tachometer.model.ResourceSnapshot" data-source-line="19" id="ent0003"><rect fill="#F1F1F1" height="791.6488" rx="2.5" ry="2.5" style="stroke:#181818;stroke-width:0.5;" width="270.747" x="287.48" y="7"/><ellipse cx="357.3467" cy="23" fill="#ADD1B2" rx="11" ry="11" style="stroke:#181818;stroke-width:1;"/><path d="M357.4561,18.5313 Q356.5342,18.5313 355.7998,18.8438 Q355.0811,19.1563 354.5811,19.75 Q354.0811,20.3281 353.7998,21.2031 Q353.5342,22.0781 353.5342,23.1719 Q353.5342,24.6094 353.9717,25.6563 Q354.4248,26.7031 355.2686,27.25 Q356.128,27.7969 357.4405,27.7969 Q358.2217,27.7969 358.9092,27.6719 Q359.6123,27.5313 360.6123,27.2188 L360.6123,29.0938 Q359.753,29.4219 358.9873,29.5469 Q358.2373,29.6719 357.2217,29.6719 Q355.2998,29.6719 353.9873,28.875 Q352.6905,28.0625 352.0342,26.5938 Q351.378,25.1094 351.378,23.1406 Q351.378,21.7188 351.7686,20.5469 Q352.1748,19.3594 352.9561,18.4844 Q353.7373,17.6094 354.878,17.1406 Q356.0186,16.6563 357.4873,16.6563 Q358.4405,16.6563 359.3311,16.8594 Q360.2373,17.0469 361.1748,17.5156 L360.3467,19.2969 Q359.5655,18.9219 358.9092,18.7344 Q358.253,18.5313 357.4561,18.5313 Z " fill="#000000"/><text fill="#000000" font-family="sans-serif" font-size="14" lengthAdjust="spacing" textLength="122.5135" x="377.8467" y="28.432">ResourceSnapshot</text><line style="stroke:#181818;stroke-width:0.5;" x1="288.48" x2="557.227" y1="39" y2="39"/><text fill="#000000" font-family="sans-serif" font-size="14" lengthAdjust="spacing" textLength="202.6632" x="293.48" y="57.9659">artefact_size_bytes : int | None</text><text fill="#000000" font-family="sans-serif" font-size="14" lengthAdjust="spacing" textLength="146.7474" x="293.48" y="77.0339">cpu_count : int | None</text><text fill="#000000" font-family="sans-serif" font-size="14" lengthAdjust="spacing" textLength="172.2973" x="293.48" y="96.1018">cpu_percent : float | None</text><text fill="#000000" font-family="sans-serif" font-size="14" lengthAdjust="spacing" textLength="206.4572" x="293.48" y="115.1697">cpu_temp_celsius : float | None</text><text fill="#000000" font-family="sans-serif" font-size="14" lengthAdjust="spacing" textLength="147.8814" x="293.48" y="134.2376">dep_count : int | None</text><text fill="#000000" font-family="sans-serif" font-size="14" lengthAdjust="spacing" textLength="179.6333" x="293.48" y="153.3055">disk_free_bytes : int | None</text><text fill="#000000" font-family="sans-serif" font-size="14" lengthAdjust="spacing" textLength="201.6832" x="293.48" y="172.3734">disk_io_read_bytes : int | None</text><text fill="#000000" font-family="sans-serif" font-size="14" lengthAdjust="spacing" textLength="204.8892" x="293.48" y="191.4414">disk_io_write_bytes : int | None</text><text fill="#000000" font-family="sans-serif" font-size="14" lengthAdjust="spacing" textLength="183.2873" x="293.48" y="210.5093">disk_total_bytes : int | None</text><text fill="#000000" font-family="sans-serif" font-size="14" lengthAdjust="spacing" textLength="185.1073" x="293.48" y="229.5772">disk_used_bytes : int | None</text><text fill="#000000" font-family="sans-serif" font-size="14" lengthAdjust="spacing" textLength="196.2932" x="293.48" y="248.6451">git_commit_count : int | None</text><text fill="#000000" font-family="sans-serif" font-size="14" lengthAdjust="spacing" textLength="202.6072" x="293.48" y="267.713">git_dirty_file_count : int | None</text><text fill="#000000" font-family="sans-serif" font-size="14" lengthAdjust="spacing" textLength="258.747" x="293.48" y="286.7809">git_non_ignored_size_bytes : int | None</text><text fill="#000000" font-family="sans-serif" font-size="14" lengthAdjust="spacing" textLength="221.8011" x="293.48" y="305.8489">git_tracked_file_count : int | None</text><text fill="#000000" font-family="sans-serif" font-size="14" lengthAdjust="spacing" textLength="224.5171" x="293.48" y="324.9168">git_tracked_size_bytes : int | None</text><text fill="#000000" font-family="sans-serif" font-size="14" lengthAdjust="spacing" textLength="239.105" x="293.48" y="343.9847">git_untracked_file_count : int | None</text><text fill="#000000" font-family="sans-serif" font-size="14" lengthAdjust="spacing" textLength="130.0175" x="293.48" y="363.0526">gpu_detected : bool</text><text fill="#000000" font-family="sans-serif" font-size="14" lengthAdjust="spacing" textLength="221.8291" x="293.48" y="382.1205">gpu_mem_total_mb : float | None</text><text fill="#000000" font-family="sans-serif" font-size="14" lengthAdjust="spacing" textLength="223.6491" x="293.48" y="401.1884">gpu_mem_used_mb : float | None</text><text fill="#000000" font-family="sans-serif" font-size="14" lengthAdjust="spacing" textLength="148.8054" x="293.48" y="420.2564">gpu_name : str | None</text><text fill="#000000" font-family="sans-serif" font-size="14" lengthAdjust="spacing" textLength="201.3332" x="293.48" y="439.3243">gpu_util_percent : float | None</text><text fill="#000000" font-family="sans-serif" font-size="14" lengthAdjust="spacing" textLength="145.5994" x="293.48" y="458.3922">hostname : str | None</text><text fill="#000000" font-family="sans-serif" font-size="14" lengthAdjust="spacing" textLength="178.9333" x="293.48" y="477.4601">loadavg_15m : float | None</text><text fill="#000000" font-family="sans-serif" font-size="14" lengthAdjust="spacing" textLength="170.9253" x="293.48" y="496.528">loadavg_1m : float | None</text><text fill="#000000" font-family="sans-serif" font-size="14" lengthAdjust="spacing" textLength="170.9253" x="293.48" y="515.5959">loadavg_5m : float | None</text><text fill="#000000" font-family="sans-serif" font-size="14" lengthAdjust="spacing" textLength="240.3231" x="293.48" y="534.6639">memory_available_bytes : int | None</text><text fill="#000000" font-family="sans-serif" font-size="14" lengthAdjust="spacing" textLength="212.3512" x="293.48" y="553.7318">memory_total_bytes : int | None</text><text fill="#000000" font-family="sans-serif" font-size="14" lengthAdjust="spacing" textLength="214.1712" x="293.48" y="572.7997">memory_used_bytes : int | None</text><text fill="#000000" font-family="sans-serif" font-size="14" lengthAdjust="spacing" textLength="175.9513" x="293.48" y="591.8676">net_recv_bytes : int | None</text><text fill="#000000" font-family="sans-serif" font-size="14" lengthAdjust="spacing" textLength="176.7493" x="293.48" y="610.9355">net_sent_bytes : int | None</text><text fill="#000000" font-family="sans-serif" font-size="14" lengthAdjust="spacing" textLength="173.6553" x="293.48" y="630.0034">process_count : int | None</text><text fill="#000000" font-family="sans-serif" font-size="14" lengthAdjust="spacing" textLength="177.7433" x="293.48" y="649.0714">repo_dir_count : int | None</text><text fill="#000000" font-family="sans-serif" font-size="14" lengthAdjust="spacing" textLength="179.6753" x="293.48" y="668.1393">repo_file_count : int | None</text><text fill="#000000" font-family="sans-serif" font-size="14" lengthAdjust="spacing" textLength="143.9755" x="293.48" y="687.2072">repo_root : str | None</text><text fill="#000000" font-family="sans-serif" font-size="14" lengthAdjust="spacing" textLength="182.3913" x="293.48" y="706.2751">repo_size_bytes : int | None</text><text fill="#000000" font-family="sans-serif" font-size="14" lengthAdjust="spacing" textLength="191.0573" x="293.48" y="725.343">swap_total_bytes : int | None</text><text fill="#000000" font-family="sans-serif" font-size="14" lengthAdjust="spacing" textLength="192.8772" x="293.48" y="744.4109">swap_used_bytes : int | None</text><text fill="#000000" font-family="sans-serif" font-size="14" lengthAdjust="spacing" textLength="111.8036" x="293.48" y="763.4789">timestamp : float</text><text fill="#000000" font-family="sans-serif" font-size="14" lengthAdjust="spacing" textLength="198.3792" x="293.48" y="782.5468">uptime_seconds : float | None</text><line style="stroke:#181818;stroke-width:0.5;" x1="288.48" x2="557.227" y1="790.6488" y2="790.6488"/></g><!--class tachometer.server._Handler--><g class="entity" data-qualified-name="tachometer.server._Handler" data-source-line="60" id="ent0004"><rect fill="#F1F1F1" height="162.4075" rx="2.5" ry="2.5" style="stroke:#181818;stroke-width:0.5;" width="197.0093" x="31.35" y="858.65"/><ellipse cx="96.1068" cy="874.65" fill="#ADD1B2" rx="11" ry="11" style="stroke:#181818;stroke-width:1;"/><path d="M96.2161,870.1813 Q95.2943,870.1813 94.5599,870.4938 Q93.8411,870.8063 93.3411,871.4 Q92.8411,871.9781 92.5599,872.8531 Q92.2943,873.7281 92.2943,874.8219 Q92.2943,876.2594 92.7318,877.3063 Q93.1849,878.3531 94.0286,878.9 Q94.888,879.4469 96.2005,879.4469 Q96.9818,879.4469 97.6693,879.3219 Q98.3724,879.1813 99.3724,878.8688 L99.3724,880.7438 Q98.513,881.0719 97.7474,881.1969 Q96.9974,881.3219 95.9818,881.3219 Q94.0599,881.3219 92.7474,880.525 Q91.4505,879.7125 90.7943,878.2438 Q90.138,876.7594 90.138,874.7906 Q90.138,873.3688 90.5286,872.1969 Q90.9349,871.0094 91.7161,870.1344 Q92.4974,869.2594 93.638,868.7906 Q94.7786,868.3063 96.2474,868.3063 Q97.2005,868.3063 98.0911,868.5094 Q98.9974,868.6969 99.9349,869.1656 L99.1068,870.9469 Q98.3255,870.5719 97.6693,870.3844 Q97.013,870.1813 96.2161,870.1813 Z " fill="#000000"/><text fill="#000000" font-family="sans-serif" font-size="14" lengthAdjust="spacing" textLength="58.9958" x="116.6068" y="880.082">_Handler</text><line style="stroke:#181818;stroke-width:0.5;" x1="32.35" x2="227.3593" y1="890.65" y2="890.65"/><text fill="#000000" font-family="sans-serif" font-size="14" lengthAdjust="spacing" textLength="174.8593" x="37.35" y="909.6159">host_summary_path : Path</text><text fill="#000000" font-family="sans-serif" font-size="14" lengthAdjust="spacing" textLength="56.2658" x="37.35" y="928.6839">port : int</text><text fill="#000000" font-family="sans-serif" font-size="14" lengthAdjust="spacing" textLength="151.5214" x="37.35" y="947.7518">tachometer_root : Path</text><line style="stroke:#181818;stroke-width:0.5;" x1="32.35" x2="227.3593" y1="955.8538" y2="955.8538"/><text fill="#000000" font-family="sans-serif" font-size="14" lengthAdjust="spacing" textLength="112.9095" x="37.35" y="974.8197">do_GET() -&gt; None</text><text fill="#000000" font-family="sans-serif" font-size="14" lengthAdjust="spacing" textLength="122.0235" x="37.35" y="993.8876">do_POST() -&gt; None</text><text fill="#000000" font-family="sans-serif" font-size="14" font-style="italic" lengthAdjust="spacing" textLength="185.0093" x="37.35" y="1012.9555">log_message(fmt: str) -&gt; None</text></g><?plantuml-src XLLDZzCm4BttLrXxMYHOQGzSE713S05MkzmGigRs9BNgBzcJhiBI_yx49CssZSF9ohpdiUVD-2KZ2GyESmI5JnWX0OKaVF2uKHPo5ZUF6CDNyAR1J3S2iY1Gk-2GCDsveD7UlMQ8buqG2WZRa7hnGMHA7D3OG6T9MjYYdQCcxsK4sd7aWHSExK8c6LDeZCKbA7VEGUeleBtn-fHrA6V-26IQNghW6zDEknWIVyIteSOJ8sCw68KrT1VKNYQqqCiK0bLe1Ad5At2vdCIYJRd6q79nXSXoWmQ2spVYtKSMJj5FFkFjSD2lpN5kLGvTuaPwY7pbQhlEMQLba8Xxf5XXynlbjYVCV0NZQQv3nOw5x3mj0H4vOu4Q6-0297HHAhJPTFcQeJ4kvotpqIIitAV0XaL4qEkCvsHeBGa50hk2Tnah9xI6-ExEbMMXX07N9b4lomXKEVpWf6bzI7nGlGC3anAeFRFMyqsizLoy-V_Pk7-QfqSH3czi6u8TemxTg9pRNdTrOXJjQeJvhPx7EpAsFbA34opjP9Q6GolltxlhJITm1LlQnpMmaqauW67tiXKrHzRA88sC-YXv91vbTQYZcTLOHjbY5EQytC5Y83o4AsYz_Qzjwapi0jJ7Apz3N9EZu7KnoF0_YS35gI4Sw-8GPHNOpVMLZvnCK7u1hoscI_CR79wN2Iwkj_9FYI6DOWpNEQMvi6mTvETFF_wvykGOGJvyVpgFlS0s3q-DZZQq_2noXXPl6qT5r9bv_0i0?></g></svg>
