<?plantuml 1.2026.2?><svg xmlns="http://www.w3.org/2000/svg" xmlns:xlink="http://www.w3.org/1999/xlink" contentStyleType="text/css" data-diagram-type="DESCRIPTION" height="581px" preserveAspectRatio="none" style="width:1139px;height:581px;background:#FFFFFF;" version="1.1" viewBox="0 0 1139 581" width="1139px" zoomAndPan="magnify"><defs/><g><!--entity tachometer--><g class="entity" data-qualified-name="tachometer" data-source-line="4" id="ent0002"><rect fill="#F1F1F1" height="96.2717" rx="2.5" ry="2.5" style="stroke:#181818;stroke-width:0.5;" width="273.805" x="251.08" y="243.27"/><text fill="#000000" font-family="sans-serif" font-size="14" lengthAdjust="spacing" textLength="76.4677" x="261.08" y="268.2359">tachometer</text><text fill="#000000" font-family="sans-serif" font-size="14" lengthAdjust="spacing" textLength="155.2734" x="261.08" y="287.3039">0 child pkg, 10 modules</text><text fill="#000000" font-family="sans-serif" font-size="14" lengthAdjust="spacing" textLength="96.5156" x="261.08" y="306.3718">11 python files</text><text fill="#000000" font-family="sans-serif" font-size="14" lengthAdjust="spacing" textLength="66.8217" x="261.08" y="325.4397">examples:</text><text fill="#000000" font-family="sans-serif" font-size="14" lengthAdjust="spacing" text-decoration="underline" textLength="33.2079" x="331.5417" y="325.4397">main</text><text fill="#000000" font-family="sans-serif" font-size="14" lengthAdjust="spacing" textLength="150.1354" x="364.7496" y="325.4397">, agent_usage, backlog</text></g><!--entity tachometer.__main__--><g class="entity" data-qualified-name="tachometer.__main__" data-source-line="5" id="ent0003"><rect fill="#F1F1F1" height="58.1358" rx="2.5" ry="2.5" style="stroke:#181818;stroke-width:0.5;" width="133.4276" x="582.27" y="7"/><text fill="#000000" font-family="sans-serif" font-size="14" lengthAdjust="spacing" textLength="80.2197" x="592.27" y="31.9659">tachometer.</text><text fill="#000000" font-family="sans-serif" font-size="14" lengthAdjust="spacing" text-decoration="underline" textLength="33.2079" x="672.4897" y="31.9659">main</text><text fill="#000000" font-family="sans-serif" font-size="14" lengthAdjust="spacing" textLength="81.8017" x="592.27" y="51.0339">1 python file</text></g><!--entity tachometer.agent_usage--><g class="entity" data-qualified-name="tachometer.agent_usage" data-source-line="6" id="ent0004"><rect fill="#F1F1F1" height="58.1358" rx="2.5" ry="2.5" style="stroke:#181818;stroke-width:0.5;" width="184.2194" x="701.87" y="262.33"/><text fill="#000000" font-family="sans-serif" font-size="14" lengthAdjust="spacing" textLength="164.2194" x="711.87" y="287.2959">tachometer.agent_usage</text><text fill="#000000" font-family="sans-serif" font-size="14" lengthAdjust="spacing" textLength="81.8017" x="711.87" y="306.3639">1 python file</text></g><!--entity tachometer.backlog--><g class="entity" data-qualified-name="tachometer.backlog" data-source-line="7" id="ent0005"><rect fill="#F1F1F1" height="58.1358" rx="2.5" ry="2.5" style="stroke:#181818;stroke-width:0.5;" width="151.5715" x="751.2" y="399.54"/><text fill="#000000" font-family="sans-serif" font-size="14" lengthAdjust="spacing" textLength="131.5715" x="761.2" y="424.5059">tachometer.backlog</text><text fill="#000000" font-family="sans-serif" font-size="14" lengthAdjust="spacing" textLength="81.8017" x="761.2" y="443.5739">1 python file</text></g><!--entity tachometer.cli--><g class="entity" data-qualified-name="tachometer.cli" data-source-line="8" id="ent0006"><rect fill="#F1F1F1" height="58.1358" rx="2.5" ry="2.5" style="stroke:#181818;stroke-width:0.5;" width="114.1636" x="591.9" y="125.13"/><text fill="#000000" font-family="sans-serif" font-size="14" lengthAdjust="spacing" textLength="94.1636" x="601.9" y="150.0959">tachometer.cli</text><text fill="#000000" font-family="sans-serif" font-size="14" lengthAdjust="spacing" textLength="81.8017" x="601.9" y="169.1639">1 python file</text></g><!--entity tachometer.manifest--><g class="entity" data-qualified-name="tachometer.manifest" data-source-line="9" id="ent0007"><rect fill="#F1F1F1" height="58.1358" rx="2.5" ry="2.5" style="stroke:#181818;stroke-width:0.5;" width="157.8995" x="193.03" y="399.54"/><text fill="#000000" font-family="sans-serif" font-size="14" lengthAdjust="spacing" textLength="137.8995" x="203.03" y="424.5059">tachometer.manifest</text><text fill="#000000" font-family="sans-serif" font-size="14" lengthAdjust="spacing" textLength="81.8017" x="203.03" y="443.5739">1 python file</text></g><!--entity tachometer.model--><g class="entity" data-qualified-name="tachometer.model" data-source-line="10" id="ent0008"><rect fill="#F1F1F1" height="58.1358" rx="2.5" ry="2.5" style="stroke:#181818;stroke-width:0.5;" width="141.8975" x="333.03" y="517.67"/><text fill="#000000" font-family="sans-serif" font-size="14" lengthAdjust="spacing" textLength="121.8975" x="343.03" y="542.6359">tachometer.model</text><text fill="#000000" font-family="sans-serif" font-size="14" lengthAdjust="spacing" textLength="81.8017" x="343.03" y="561.7039">1 python file</text></g><!--entity tachometer.notify--><g class="entity" data-qualified-name="tachometer.notify" data-source-line="11" id="ent0009"><rect fill="#F1F1F1" height="58.1358" rx="2.5" ry="2.5" style="stroke:#181818;stroke-width:0.5;" width="137.9635" x="7" y="262.33"/><text fill="#000000" font-family="sans-serif" font-size="14" lengthAdjust="spacing" textLength="117.9635" x="17" y="287.2959">tachometer.notify</text><text fill="#000000" font-family="sans-serif" font-size="14" lengthAdjust="spacing" textLength="81.8017" x="17" y="306.3639">1 python file</text></g><!--entity tachometer.profile--><g class="entity" data-qualified-name="tachometer.profile" data-source-line="12" id="ent0010"><rect fill="#F1F1F1" height="58.1358" rx="2.5" ry="2.5" style="stroke:#181818;stroke-width:0.5;" width="143.0175" x="474.47" y="399.54"/><text fill="#000000" font-family="sans-serif" font-size="14" lengthAdjust="spacing" textLength="123.0175" x="484.47" y="424.5059">tachometer.profile</text><text fill="#000000" font-family="sans-serif" font-size="14" lengthAdjust="spacing" textLength="81.8017" x="484.47" y="443.5739">1 python file</text></g><!--entity tachometer.server--><g class="entity" data-qualified-name="tachometer.server" data-source-line="13" id="ent0011"><rect fill="#F1F1F1" height="58.1358" rx="2.5" ry="2.5" style="stroke:#181818;stroke-width:0.5;" width="141.3935" x="921.28" y="262.33"/><text fill="#000000" font-family="sans-serif" font-size="14" lengthAdjust="spacing" textLength="121.3935" x="931.28" y="287.2959">tachometer.server</text><text fill="#000000" font-family="sans-serif" font-size="14" lengthAdjust="spacing" textLength="81.8017" x="931.28" y="306.3639">1 python file</text></g><!--entity tachometer.stoplight--><g class="entity" data-qualified-name="tachometer.stoplight" data-source-line="14" id="ent0012"><rect fill="#F1F1F1" height="58.1358" rx="2.5" ry="2.5" style="stroke:#181818;stroke-width:0.5;" width="158.5995" x="974.68" y="399.54"/><text fill="#000000" font-family="sans-serif" font-size="14" lengthAdjust="spacing" textLength="138.5995" x="984.68" y="424.5059">tachometer.stoplight</text><text fill="#000000" font-family="sans-serif" font-size="14" lengthAdjust="spacing" textLength="81.8017" x="984.68" y="443.5739">1 python file</text></g><!--link tachometer to tachometer.manifest--><g class="link" data-entity-1="ent0002" data-entity-2="ent0007" data-link-type="dependency" data-source-line="15" id="lnk13"><path d="M347.41,339.69 C330.42,359.49 315.1463,377.2958 300.3763,394.5158" fill="none" id="tachometer-to-tachometer.manifest" style="stroke:#181818;stroke-width:1;"/><polygon fill="#181818" points="296.47,399.07,305.3656,394.8428,299.7252,395.2748,299.2933,389.6345,296.47,399.07" style="stroke:#181818;stroke-width:1;"/></g><!--link tachometer to tachometer.model--><g class="link" data-entity-1="ent0002" data-entity-2="ent0008" data-link-type="dependency" data-source-line="16" id="lnk14"><path d="M390.97,339.76 C394.27,392.03 399.1014,468.472 401.8214,511.492" fill="none" id="tachometer-to-tachometer.model" style="stroke:#181818;stroke-width:1;"/><polygon fill="#181818" points="402.2,517.48,405.6241,508.2455,401.8845,512.49,397.6401,508.7503,402.2,517.48" style="stroke:#181818;stroke-width:1;"/></g><!--link tachometer to tachometer.profile--><g class="link" data-entity-1="ent0002" data-entity-2="ent0010" data-link-type="dependency" data-source-line="17" id="lnk15"><path d="M443.24,339.69 C466.38,359.49 487.9516,377.9486 508.0716,395.1686" fill="none" id="tachometer-to-tachometer.profile" style="stroke:#181818;stroke-width:1;"/><polygon fill="#181818" points="512.63,399.07,508.3933,390.179,508.8313,395.8188,503.1914,396.2569,512.63,399.07" style="stroke:#181818;stroke-width:1;"/></g><!--link tachometer.__main__ to tachometer.cli--><g class="link" data-entity-1="ent0003" data-entity-2="ent0006" data-link-type="dependency" data-source-line="18" id="lnk16"><path d="M648.98,65.47 C648.98,83.47 648.98,100.66 648.98,118.68" fill="none" id="tachometer.__main__-to-tachometer.cli" style="stroke:#181818;stroke-width:1;"/><polygon fill="#181818" points="648.98,124.68,652.98,115.68,648.98,119.68,644.98,115.68,648.98,124.68" style="stroke:#181818;stroke-width:1;"/></g><!--link tachometer.cli to tachometer.agent_usage--><g class="link" data-entity-1="ent0006" data-entity-2="ent0004" data-link-type="dependency" data-source-line="19" id="lnk17"><path d="M679.38,183.54 C704.13,206.62 734.5018,234.938 759.2418,258.008" fill="none" id="tachometer.cli-to-tachometer.agent_usage" style="stroke:#181818;stroke-width:1;"/><polygon fill="#181818" points="763.63,262.1,759.7757,253.0366,759.9732,258.69,754.3198,258.8875,763.63,262.1" style="stroke:#181818;stroke-width:1;"/></g><!--link tachometer.cli to tachometer.backlog--><g class="link" data-entity-1="ent0006" data-entity-2="ent0005" data-link-type="dependency" data-source-line="20" id="lnk18"><path d="M647.58,183.46 C647.06,222.11 651.27,292.06 683.98,339.54 C701.76,365.35 724.5325,382.1928 751.1025,396.3228" fill="none" id="tachometer.cli-to-tachometer.backlog" style="stroke:#181818;stroke-width:1;"/><polygon fill="#181818" points="756.4,399.14,750.3319,391.3825,751.9854,396.7923,746.5756,398.4458,756.4,399.14" style="stroke:#181818;stroke-width:1;"/></g><!--link tachometer.cli to tachometer.manifest--><g class="link" data-entity-1="ent0006" data-entity-2="ent0007" data-link-type="dependency" data-source-line="21" id="lnk19"><path d="M591.68,158.72 C488.57,166.37 278.37,188.47 233.98,243.27 C197.37,288.46 226.982,354.7678 250.292,394.1178" fill="none" id="tachometer.cli-to-tachometer.manifest" style="stroke:#181818;stroke-width:1;"/><polygon fill="#181818" points="253.35,399.28,252.2045,389.498,250.8017,394.9781,245.3215,393.5753,253.35,399.28" style="stroke:#181818;stroke-width:1;"/></g><!--link tachometer.cli to tachometer.notify--><g class="link" data-entity-1="ent0006" data-entity-2="ent0009" data-link-type="dependency" data-source-line="22" id="lnk20"><path d="M591.55,160.67 C500.65,170.46 318.89,194.66 171.98,243.27 C157,248.22 146.7677,252.4494 132.5877,259.3994" fill="none" id="tachometer.cli-to-tachometer.notify" style="stroke:#181818;stroke-width:1;"/><polygon fill="#181818" points="127.2,262.04,137.0419,261.6708,131.6897,259.8395,133.5211,254.4873,127.2,262.04" style="stroke:#181818;stroke-width:1;"/></g><!--link tachometer.cli to tachometer.profile--><g class="link" data-entity-1="ent0006" data-entity-2="ent0010" data-link-type="dependency" data-source-line="23" id="lnk21"><path d="M638.25,183.58 C618.46,235.91 578.5823,341.3979 558.8123,393.6779" fill="none" id="tachometer.cli-to-tachometer.profile" style="stroke:#181818;stroke-width:1;"/><polygon fill="#181818" points="556.69,399.29,563.6148,392.2866,558.4586,394.6132,556.132,389.457,556.69,399.29" style="stroke:#181818;stroke-width:1;"/></g><!--link tachometer.cli to tachometer.server--><g class="link" data-entity-1="ent0006" data-entity-2="ent0011" data-link-type="dependency" data-source-line="24" id="lnk22"><path d="M706.44,172.16 C758.78,188.29 837.79,214.33 903.98,243.27 C916.69,248.82 924.7393,252.6989 937.1093,259.2589" fill="none" id="tachometer.cli-to-tachometer.server" style="stroke:#181818;stroke-width:1;"/><polygon fill="#181818" points="942.41,262.07,936.3329,254.3196,937.9927,259.7274,932.5848,261.3872,942.41,262.07" style="stroke:#181818;stroke-width:1;"/></g><!--link tachometer.cli to tachometer.stoplight--><g class="link" data-entity-1="ent0006" data-entity-2="ent0012" data-link-type="dependency" data-source-line="25" id="lnk23"><path d="M706.39,158.23 C812.65,165.17 1033.44,186.25 1079.98,243.27 C1116.36,287.83 1092.254,354.1688 1072.554,393.7388" fill="none" id="tachometer.cli-to-tachometer.stoplight" style="stroke:#181818;stroke-width:1;"/><polygon fill="#181818" points="1069.88,399.11,1077.4719,392.8359,1072.1084,394.634,1070.3103,389.2705,1069.88,399.11" style="stroke:#181818;stroke-width:1;"/></g><!--link tachometer.manifest to tachometer.model--><g class="link" data-entity-1="ent0007" data-entity-2="ent0008" data-link-type="dependency" data-source-line="26" id="lnk24"><path d="M304.27,458.02 C324.73,476.01 346.5844,495.2478 367.0644,513.2578" fill="none" id="tachometer.manifest-to-tachometer.model" style="stroke:#181818;stroke-width:1;"/><polygon fill="#181818" points="371.57,517.22,367.453,508.2729,367.8153,513.9181,362.1701,514.2804,371.57,517.22" style="stroke:#181818;stroke-width:1;"/></g><!--link tachometer.profile to tachometer.model--><g class="link" data-entity-1="ent0010" data-entity-2="ent0008" data-link-type="dependency" data-source-line="27" id="lnk25"><path d="M511.24,458.02 C489.24,476.01 465.5252,495.4124 443.4952,513.4224" fill="none" id="tachometer.profile-to-tachometer.model" style="stroke:#181818;stroke-width:1;"/><polygon fill="#181818" points="438.85,517.22,448.3496,514.6204,442.721,514.0553,443.2861,508.4268,438.85,517.22" style="stroke:#181818;stroke-width:1;"/></g><!--link tachometer.server to tachometer.backlog--><g class="link" data-entity-1="ent0011" data-entity-2="ent0005" data-link-type="dependency" data-source-line="28" id="lnk26"><path d="M957.39,320.75 C929.33,343.74 894.5809,372.2172 866.4509,395.2672" fill="none" id="tachometer.server-to-tachometer.backlog" style="stroke:#181818;stroke-width:1;"/><polygon fill="#181818" points="861.81,399.07,871.3067,396.4597,865.6775,395.901,866.2362,390.2718,861.81,399.07" style="stroke:#181818;stroke-width:1;"/></g><!--link tachometer.server to tachometer.profile--><g class="link" data-entity-1="ent0011" data-entity-2="ent0010" data-link-type="dependency" data-source-line="29" id="lnk27"><path d="M944.13,320.82 C931.38,327.62 917.41,334.38 903.98,339.54 C807.92,376.41 697.238,400.5983 623.788,414.3183" fill="none" id="tachometer.server-to-tachometer.profile" style="stroke:#181818;stroke-width:1;"/><polygon fill="#181818" points="617.89,415.42,627.4715,417.6994,622.805,414.5019,626.0025,409.8354,617.89,415.42" style="stroke:#181818;stroke-width:1;"/></g><!--link tachometer.server to tachometer.stoplight--><g class="link" data-entity-1="ent0011" data-entity-2="ent0012" data-link-type="dependency" data-source-line="30" id="lnk28"><path d="M1004.98,320.75 C1015.56,343.82 1027.918,370.7866 1038.498,393.8466" fill="none" id="tachometer.server-to-tachometer.stoplight" style="stroke:#181818;stroke-width:1;"/><polygon fill="#181818" points="1041,399.3,1040.8825,389.4518,1038.915,394.7555,1033.6113,392.7879,1041,399.3" style="stroke:#181818;stroke-width:1;"/></g><?plantuml-src ZPF1ReCm343lV8NLSpkrrnts4xrMGcbm8MfYHyITrhzVQ86oAY4x4SBpivsOW0Aa70QlD1xHgru9zq1CM0bx48OpYx23nlIenJ1LuMfe01reTZwI94UvMuG1KDHQhEOLR4JfZXqAzYVQW-wCRS1VsoqSzk2ukLaC9peSmD-bOuABUMpWZt8-hZwXhfqoLDTRK6tCLDz2V6xXhFJLShi15U2L8ftuOtB4HCiyRy4pbh4iyXT42pBZ6iilU4Oguz3M5E8ZaObrYim5WnG44vQpS8Esf1YOJ3oncCkz87X26OFlUOWfA4OgumZOVm_JkQfuGZb3_5MiQRlISSvSzTg4tUuhUUGhoED8yz-dTXEZ_OuE4_BtzPrOpl8wEKthEfNeBuMDjxuE9HfDKEFL5Q34rSorbYvWAgJ8FKlvny6bmKI_QN3kvXS0?></g></svg>
