<?plantuml 1.2026.2?><svg xmlns="http://www.w3.org/2000/svg" xmlns:xlink="http://www.w3.org/1999/xlink" contentStyleType="text/css" data-diagram-type="CLASS" height="761px" preserveAspectRatio="none" style="width:535px;height:761px;background:#FFFFFF;" version="1.1" viewBox="0 0 535 761" width="535px" zoomAndPan="magnify"><defs/><g><!--class tachometer.model.RepoManifest--><g class="entity" data-qualified-name="tachometer.model.RepoManifest" data-source-line="2" id="ent0002"><rect fill="#F1F1F1" height="257.7471" rx="2.5" ry="2.5" style="stroke:#181818;stroke-width:0.5;" width="216.1193" x="7" y="140.48"/><ellipse cx="65.3238" cy="156.48" fill="#ADD1B2" rx="11" ry="11" style="stroke:#181818;stroke-width:1;"/><path d="M65.4332,152.0113 Q64.5113,152.0113 63.7769,152.3238 Q63.0582,152.6363 62.5582,153.23 Q62.0582,153.8081 61.7769,154.6831 Q61.5113,155.5581 61.5113,156.6519 Q61.5113,158.0894 61.9488,159.1363 Q62.4019,160.1831 63.2457,160.73 Q64.1051,161.2769 65.4176,161.2769 Q66.1988,161.2769 66.8863,161.1519 Q67.5894,161.0113 68.5894,160.6988 L68.5894,162.5738 Q67.7301,162.9019 66.9644,163.0269 Q66.2144,163.1519 65.1988,163.1519 Q63.2769,163.1519 61.9644,162.355 Q60.6676,161.5425 60.0113,160.0738 Q59.3551,158.5894 59.3551,156.6206 Q59.3551,155.1988 59.7457,154.0269 Q60.1519,152.8394 60.9332,151.9644 Q61.7144,151.0894 62.8551,150.6206 Q63.9957,150.1363 65.4644,150.1363 Q66.4176,150.1363 67.3082,150.3394 Q68.2144,150.5269 69.1519,150.9956 L68.3238,152.7769 Q67.5426,152.4019 66.8863,152.2144 Q66.2301,152.0113 65.4332,152.0113 Z " fill="#000000"/><text fill="#000000" font-family="sans-serif" font-size="14" lengthAdjust="spacing" textLength="90.9716" x="85.8238" y="161.912">RepoManifest</text><line style="stroke:#181818;stroke-width:0.5;" x1="8" x2="222.1193" y1="172.48" y2="172.48"/><text fill="#000000" font-family="sans-serif" font-size="14" lengthAdjust="spacing" textLength="86.0997" x="13" y="191.4459">category : str</text><text fill="#000000" font-family="sans-serif" font-size="14" lengthAdjust="spacing" textLength="112.8676" x="13" y="210.5139">default_label : str</text><text fill="#000000" font-family="sans-serif" font-size="14" lengthAdjust="spacing" textLength="103.8516" x="13" y="229.5818">disk_path : Path</text><text fill="#000000" font-family="sans-serif" font-size="14" lengthAdjust="spacing" textLength="155.3434" x="13" y="248.6497">host_profile_path : Path</text><text fill="#000000" font-family="sans-serif" font-size="14" lengthAdjust="spacing" textLength="174.8593" x="13" y="267.7176">host_summary_path : Path</text><text fill="#000000" font-family="sans-serif" font-size="14" lengthAdjust="spacing" textLength="56.9238" x="13" y="286.7855">kind : str</text><text fill="#000000" font-family="sans-serif" font-size="14" lengthAdjust="spacing" textLength="66.0658" x="13" y="305.8534">name : str</text><text fill="#000000" font-family="sans-serif" font-size="14" lengthAdjust="spacing" textLength="120.2455" x="13" y="324.9214">profile_path : Path</text><text fill="#000000" font-family="sans-serif" font-size="14" lengthAdjust="spacing" textLength="105.8116" x="13" y="343.9893">repo_root : Path</text><text fill="#000000" font-family="sans-serif" font-size="14" lengthAdjust="spacing" textLength="139.7615" x="13" y="363.0572">summary_path : Path</text><line style="stroke:#181818;stroke-width:0.5;" x1="8" x2="222.1193" y1="371.1592" y2="371.1592"/><text fill="#000000" font-family="sans-serif" font-size="14" lengthAdjust="spacing" textLength="204.1193" x="13" y="390.1251">repo_metadata() -&gt; dict[str, str]</text></g><!--class tachometer.model.ResourceSnapshot--><g class="entity" data-qualified-name="tachometer.model.ResourceSnapshot" data-source-line="15" id="ent0003"><rect fill="#F1F1F1" height="524.6979" rx="2.5" ry="2.5" style="stroke:#181818;stroke-width:0.5;" width="270.747" x="257.69" y="7"/><ellipse cx="327.5567" cy="23" fill="#ADD1B2" rx="11" ry="11" style="stroke:#181818;stroke-width:1;"/><path d="M327.6661,18.5313 Q326.7442,18.5313 326.0098,18.8438 Q325.2911,19.1563 324.7911,19.75 Q324.2911,20.3281 324.0098,21.2031 Q323.7442,22.0781 323.7442,23.1719 Q323.7442,24.6094 324.1817,25.6563 Q324.6348,26.7031 325.4786,27.25 Q326.338,27.7969 327.6505,27.7969 Q328.4317,27.7969 329.1192,27.6719 Q329.8223,27.5313 330.8223,27.2188 L330.8223,29.0938 Q329.963,29.4219 329.1973,29.5469 Q328.4473,29.6719 327.4317,29.6719 Q325.5098,29.6719 324.1973,28.875 Q322.9005,28.0625 322.2442,26.5938 Q321.588,25.1094 321.588,23.1406 Q321.588,21.7188 321.9786,20.5469 Q322.3848,19.3594 323.1661,18.4844 Q323.9473,17.6094 325.088,17.1406 Q326.2286,16.6563 327.6973,16.6563 Q328.6505,16.6563 329.5411,16.8594 Q330.4473,17.0469 331.3848,17.5156 L330.5567,19.2969 Q329.7755,18.9219 329.1192,18.7344 Q328.463,18.5313 327.6661,18.5313 Z " fill="#000000"/><text fill="#000000" font-family="sans-serif" font-size="14" lengthAdjust="spacing" textLength="122.5135" x="348.0567" y="28.432">ResourceSnapshot</text><line style="stroke:#181818;stroke-width:0.5;" x1="258.69" x2="527.437" y1="39" y2="39"/><text fill="#000000" font-family="sans-serif" font-size="14" lengthAdjust="spacing" textLength="172.2973" x="263.69" y="57.9659">cpu_percent : float | None</text><text fill="#000000" font-family="sans-serif" font-size="14" lengthAdjust="spacing" textLength="179.6333" x="263.69" y="77.0339">disk_free_bytes : int | None</text><text fill="#000000" font-family="sans-serif" font-size="14" lengthAdjust="spacing" textLength="183.2873" x="263.69" y="96.1018">disk_total_bytes : int | None</text><text fill="#000000" font-family="sans-serif" font-size="14" lengthAdjust="spacing" textLength="185.1073" x="263.69" y="115.1697">disk_used_bytes : int | None</text><text fill="#000000" font-family="sans-serif" font-size="14" lengthAdjust="spacing" textLength="202.6072" x="263.69" y="134.2376">git_dirty_file_count : int | None</text><text fill="#000000" font-family="sans-serif" font-size="14" lengthAdjust="spacing" textLength="258.747" x="263.69" y="153.3055">git_non_ignored_size_bytes : int | None</text><text fill="#000000" font-family="sans-serif" font-size="14" lengthAdjust="spacing" textLength="221.8011" x="263.69" y="172.3734">git_tracked_file_count : int | None</text><text fill="#000000" font-family="sans-serif" font-size="14" lengthAdjust="spacing" textLength="224.5171" x="263.69" y="191.4414">git_tracked_size_bytes : int | None</text><text fill="#000000" font-family="sans-serif" font-size="14" lengthAdjust="spacing" textLength="239.105" x="263.69" y="210.5093">git_untracked_file_count : int | None</text><text fill="#000000" font-family="sans-serif" font-size="14" lengthAdjust="spacing" textLength="130.0175" x="263.69" y="229.5772">gpu_detected : bool</text><text fill="#000000" font-family="sans-serif" font-size="14" lengthAdjust="spacing" textLength="221.8291" x="263.69" y="248.6451">gpu_mem_total_mb : float | None</text><text fill="#000000" font-family="sans-serif" font-size="14" lengthAdjust="spacing" textLength="223.6491" x="263.69" y="267.713">gpu_mem_used_mb : float | None</text><text fill="#000000" font-family="sans-serif" font-size="14" lengthAdjust="spacing" textLength="148.8054" x="263.69" y="286.7809">gpu_name : str | None</text><text fill="#000000" font-family="sans-serif" font-size="14" lengthAdjust="spacing" textLength="201.3332" x="263.69" y="305.8489">gpu_util_percent : float | None</text><text fill="#000000" font-family="sans-serif" font-size="14" lengthAdjust="spacing" textLength="178.9333" x="263.69" y="324.9168">loadavg_15m : float | None</text><text fill="#000000" font-family="sans-serif" font-size="14" lengthAdjust="spacing" textLength="170.9253" x="263.69" y="343.9847">loadavg_1m : float | None</text><text fill="#000000" font-family="sans-serif" font-size="14" lengthAdjust="spacing" textLength="170.9253" x="263.69" y="363.0526">loadavg_5m : float | None</text><text fill="#000000" font-family="sans-serif" font-size="14" lengthAdjust="spacing" textLength="240.3231" x="263.69" y="382.1205">memory_available_bytes : int | None</text><text fill="#000000" font-family="sans-serif" font-size="14" lengthAdjust="spacing" textLength="212.3512" x="263.69" y="401.1884">memory_total_bytes : int | None</text><text fill="#000000" font-family="sans-serif" font-size="14" lengthAdjust="spacing" textLength="214.1712" x="263.69" y="420.2564">memory_used_bytes : int | None</text><text fill="#000000" font-family="sans-serif" font-size="14" lengthAdjust="spacing" textLength="177.7433" x="263.69" y="439.3243">repo_dir_count : int | None</text><text fill="#000000" font-family="sans-serif" font-size="14" lengthAdjust="spacing" textLength="179.6753" x="263.69" y="458.3922">repo_file_count : int | None</text><text fill="#000000" font-family="sans-serif" font-size="14" lengthAdjust="spacing" textLength="143.9755" x="263.69" y="477.4601">repo_root : str | None</text><text fill="#000000" font-family="sans-serif" font-size="14" lengthAdjust="spacing" textLength="182.3913" x="263.69" y="496.528">repo_size_bytes : int | None</text><text fill="#000000" font-family="sans-serif" font-size="14" lengthAdjust="spacing" textLength="111.8036" x="263.69" y="515.5959">timestamp : float</text><line style="stroke:#181818;stroke-width:0.5;" x1="258.69" x2="527.437" y1="523.6979" y2="523.6979"/></g><!--class tachometer.server._Handler--><g class="entity" data-qualified-name="tachometer.server._Handler" data-source-line="42" id="ent0004"><rect fill="#F1F1F1" height="162.4075" rx="2.5" ry="2.5" style="stroke:#181818;stroke-width:0.5;" width="197.0093" x="16.55" y="591.7"/><ellipse cx="81.3068" cy="607.7" fill="#ADD1B2" rx="11" ry="11" style="stroke:#181818;stroke-width:1;"/><path d="M81.4161,603.2313 Q80.4943,603.2313 79.7599,603.5438 Q79.0411,603.8563 78.5411,604.45 Q78.0411,605.0281 77.7599,605.9031 Q77.4943,606.7781 77.4943,607.8719 Q77.4943,609.3094 77.9318,610.3563 Q78.3849,611.4031 79.2286,611.95 Q80.088,612.4969 81.4005,612.4969 Q82.1818,612.4969 82.8693,612.3719 Q83.5724,612.2313 84.5724,611.9188 L84.5724,613.7938 Q83.713,614.1219 82.9474,614.2469 Q82.1974,614.3719 81.1818,614.3719 Q79.2599,614.3719 77.9474,613.575 Q76.6505,612.7625 75.9943,611.2938 Q75.338,609.8094 75.338,607.8406 Q75.338,606.4188 75.7286,605.2469 Q76.1349,604.0594 76.9161,603.1844 Q77.6974,602.3094 78.838,601.8406 Q79.9786,601.3563 81.4474,601.3563 Q82.4005,601.3563 83.2911,601.5594 Q84.1974,601.7469 85.1349,602.2156 L84.3068,603.9969 Q83.5255,603.6219 82.8693,603.4344 Q82.213,603.2313 81.4161,603.2313 Z " fill="#000000"/><text fill="#000000" font-family="sans-serif" font-size="14" lengthAdjust="spacing" textLength="58.9958" x="101.8068" y="613.132">_Handler</text><line style="stroke:#181818;stroke-width:0.5;" x1="17.55" x2="212.5593" y1="623.7" y2="623.7"/><text fill="#000000" font-family="sans-serif" font-size="14" lengthAdjust="spacing" textLength="174.8593" x="22.55" y="642.6659">host_summary_path : Path</text><text fill="#000000" font-family="sans-serif" font-size="14" lengthAdjust="spacing" textLength="56.2658" x="22.55" y="661.7339">port : int</text><text fill="#000000" font-family="sans-serif" font-size="14" lengthAdjust="spacing" textLength="151.5214" x="22.55" y="680.8018">tachometer_root : Path</text><line style="stroke:#181818;stroke-width:0.5;" x1="17.55" x2="212.5593" y1="688.9038" y2="688.9038"/><text fill="#000000" font-family="sans-serif" font-size="14" lengthAdjust="spacing" textLength="112.9095" x="22.55" y="707.8697">do_GET() -&gt; None</text><text fill="#000000" font-family="sans-serif" font-size="14" lengthAdjust="spacing" textLength="122.0235" x="22.55" y="726.9376">do_POST() -&gt; None</text><text fill="#000000" font-family="sans-serif" font-size="14" font-style="italic" lengthAdjust="spacing" textLength="185.0093" x="22.55" y="746.0055">log_message(fmt: str) -&gt; None</text></g><?plantuml-src XLJ1ZjCm4BttAwmzBHAin84B1su8Bi2AvOQGDOadgLNROtacbShIVsUIJPjjDycUhCnxVXa_lp6Zc0GHEKED3vYXW50nYH9kwW3CvkOdPle6oJV8ScE0ZK2zfOY2vIwImt3td64UDyRK8DXIEPYFXgLemM43NH0ReC8mLJtlR0RPQkLU5orjYSNcGeqFE0Tn5oEKmnMqyycTLVlZd3_cfOesR0kHJALvuO6eHmK70hTlpBjFsdGjlrNyRV-7FvlZP1DJLzJ419ctj6ZL9Ul9hjpPZ5fDVKDD813pptplxs0qgIc8jZe8iX9ykeQ51C8AtZ6wURZrOfqlSh23JJLrGmylE1e8wzj4HONO_yLbDIbGxvIrhdTYhMlfvjVLr3od3jU2VGOgeZ1M8yRHcLYzzFN46BnP8anPkgntuiFobUcNWtrhtt-8A-0ADhTFUzM9ih07hrCK5bmRMIk161dBaHWohvcOjtj0bs_Z-MHTk3O0oxSjNjyWWPXF1vy6otw5v0AMwu5YB7jTJl0mIIjlHAOoTjl_xYnpzGmuiby-_tgQzDC4aRt_yN1PUuIA-sZACL2hCMA65c-RACEf9-RnFm00?></g></svg>
