<?xml version="1.0" encoding="UTF-8" standalone="no"?>
<!DOCTYPE svg PUBLIC "-//W3C//DTD SVG 1.1//EN"
 "http://www.w3.org/Graphics/SVG/1.1/DTD/svg11.dtd">
<!-- Generated by graphviz version 13.1.2 (20250808.2320)
 -->
<!-- Title: G Pages: 1 -->
<svg width="484pt" height="352pt"
 viewBox="0.00 0.00 484.00 352.00" xmlns="http://www.w3.org/2000/svg" xmlns:xlink="http://www.w3.org/1999/xlink">
<g id="graph0" class="graph" transform="scale(1 1) rotate(0) translate(4 348.05)">
<title>G</title><style>.edge>path:hover{stroke-width:8}</style>
<polygon fill="white" stroke="none" points="-4,4 -4,-348.05 479.81,-348.05 479.81,4 -4,4"/>
<!-- tachometer -->
<g id="node1" class="node">
<title>tachometer</title><style>.edge>path:hover{stroke-width:8}</style>
<ellipse fill="#a44646" stroke="black" cx="123.91" cy="-169.52" rx="37.74" ry="18"/>
<text xml:space="preserve" text-anchor="middle" x="123.91" y="-165.27" font-family="Helvetica,sans-Serif" font-size="10.00" fill="#ffffff">tachometer</text>
</g>
<!-- tachometer___main__ -->
<g id="node2" class="node">
<title>tachometer___main__</title><style>.edge>path:hover{stroke-width:8}</style>
<ellipse fill="#b34c4c" stroke="black" cx="284.91" cy="-20.51" rx="47.91" ry="20.51"/>
<text xml:space="preserve" text-anchor="middle" x="284.91" y="-21.51" font-family="Helvetica,sans-Serif" font-size="10.00" fill="#ffffff">tachometer.</text>
<text xml:space="preserve" text-anchor="middle" x="284.91" y="-11.01" font-family="Helvetica,sans-Serif" font-size="10.00" fill="#ffffff">__main__</text>
</g>
<!-- tachometer_backlog -->
<g id="node3" class="node">
<title>tachometer_backlog</title><style>.edge>path:hover{stroke-width:8}</style>
<ellipse fill="#ce3b3b" stroke="black" cx="313.91" cy="-246.53" rx="47.91" ry="20.51"/>
<text xml:space="preserve" text-anchor="middle" x="313.91" y="-247.53" font-family="Helvetica,sans-Serif" font-size="10.00" fill="#ffffff">tachometer.</text>
<text xml:space="preserve" text-anchor="middle" x="313.91" y="-237.03" font-family="Helvetica,sans-Serif" font-size="10.00" fill="#ffffff">backlog</text>
</g>
<!-- tachometer_cli -->
<g id="node4" class="node">
<title>tachometer_cli</title><style>.edge>path:hover{stroke-width:8}</style>
<ellipse fill="#a13535" stroke="black" cx="284.91" cy="-95.01" rx="45.17" ry="18"/>
<text xml:space="preserve" text-anchor="middle" x="284.91" y="-90.76" font-family="Helvetica,sans-Serif" font-size="10.00" fill="#ffffff">tachometer.cli</text>
</g>
<!-- tachometer_backlog&#45;&gt;tachometer_cli -->
<g id="edge1" class="edge">
<title>tachometer_backlog&#45;&gt;tachometer_cli</title><style>.edge>path:hover{stroke-width:8}</style>
<path fill="none" stroke="black" d="M285.02,-229.8C264.97,-216.5 242.56,-195.64 246.91,-170.52"/>
</g>
<!-- tachometer_server -->
<g id="node8" class="node">
<title>tachometer_server</title><style>.edge>path:hover{stroke-width:8}</style>
<ellipse fill="#b03a3a" stroke="black" cx="322.91" cy="-169.52" rx="47.91" ry="20.51"/>
<text xml:space="preserve" text-anchor="middle" x="322.91" y="-170.52" font-family="Helvetica,sans-Serif" font-size="10.00" fill="#ffffff">tachometer.</text>
<text xml:space="preserve" text-anchor="middle" x="322.91" y="-160.02" font-family="Helvetica,sans-Serif" font-size="10.00" fill="#ffffff">server</text>
</g>
<!-- tachometer_backlog&#45;&gt;tachometer_server -->
<g id="edge2" class="edge">
<title>tachometer_backlog&#45;&gt;tachometer_server</title><style>.edge>path:hover{stroke-width:8}</style>
<path fill="none" stroke="black" d="M316.27,-225.82C317.16,-218.39 318.2,-209.74 319.19,-201.52"/>
<polygon fill="#ce3b3b" stroke="black" points="322.63,-202.2 320.35,-191.86 315.68,-201.37 322.63,-202.2"/>
</g>
<!-- tachometer_cli&#45;&gt;tachometer___main__ -->
<g id="edge3" class="edge">
<title>tachometer_cli&#45;&gt;tachometer___main__</title><style>.edge>path:hover{stroke-width:8}</style>
<path fill="none" stroke="black" d="M284.91,-76.83C284.91,-69.6 284.91,-60.96 284.91,-52.67"/>
<polygon fill="#a13535" stroke="black" points="288.41,-52.9 284.91,-42.9 281.41,-52.9 288.41,-52.9"/>
</g>
<!-- tachometer_manifest -->
<g id="node5" class="node">
<title>tachometer_manifest</title><style>.edge>path:hover{stroke-width:8}</style>
<ellipse fill="#cc3333" stroke="black" cx="47.91" cy="-246.53" rx="47.91" ry="20.51"/>
<text xml:space="preserve" text-anchor="middle" x="47.91" y="-247.53" font-family="Helvetica,sans-Serif" font-size="10.00" fill="#ffffff">tachometer.</text>
<text xml:space="preserve" text-anchor="middle" x="47.91" y="-237.03" font-family="Helvetica,sans-Serif" font-size="10.00" fill="#ffffff">manifest</text>
</g>
<!-- tachometer_manifest&#45;&gt;tachometer -->
<g id="edge4" class="edge">
<title>tachometer_manifest&#45;&gt;tachometer</title><style>.edge>path:hover{stroke-width:8}</style>
<path fill="none" stroke="black" d="M66.3,-227.37C76.53,-217.28 89.35,-204.62 100.31,-193.81"/>
<polygon fill="#cc3333" stroke="black" points="102.51,-196.55 107.17,-187.04 97.59,-191.57 102.51,-196.55"/>
</g>
<!-- tachometer_manifest&#45;&gt;tachometer_cli -->
<g id="edge5" class="edge">
<title>tachometer_manifest&#45;&gt;tachometer_cli</title><style>.edge>path:hover{stroke-width:8}</style>
<path fill="none" stroke="black" d="M48.36,-225.58C49.97,-203.73 55.94,-169.11 76.91,-149.01 98.88,-127.95 177.53,-112.18 231.56,-103.53"/>
<polygon fill="#cc3333" stroke="black" points="231.85,-107.03 241.19,-102.03 230.77,-100.11 231.85,-107.03"/>
</g>
<!-- tachometer_model -->
<g id="node6" class="node">
<title>tachometer_model</title><style>.edge>path:hover{stroke-width:8}</style>
<ellipse fill="#db2f2f" stroke="black" cx="123.91" cy="-323.54" rx="47.91" ry="20.51"/>
<text xml:space="preserve" text-anchor="middle" x="123.91" y="-324.54" font-family="Helvetica,sans-Serif" font-size="10.00" fill="#ffffff">tachometer.</text>
<text xml:space="preserve" text-anchor="middle" x="123.91" y="-314.04" font-family="Helvetica,sans-Serif" font-size="10.00" fill="#ffffff">model</text>
</g>
<!-- tachometer_model&#45;&gt;tachometer -->
<g id="edge6" class="edge">
<title>tachometer_model&#45;&gt;tachometer</title><style>.edge>path:hover{stroke-width:8}</style>
<path fill="none" stroke="black" d="M123.91,-302.67C123.91,-276.21 123.91,-229.26 123.91,-199.03"/>
<polygon fill="#db2f2f" stroke="black" points="127.41,-199.1 123.91,-189.1 120.41,-199.1 127.41,-199.1"/>
</g>
<!-- tachometer_model&#45;&gt;tachometer_manifest -->
<g id="edge7" class="edge">
<title>tachometer_model&#45;&gt;tachometer_manifest</title><style>.edge>path:hover{stroke-width:8}</style>
<path fill="none" stroke="black" d="M105.51,-304.38C96.15,-295.15 84.61,-283.75 74.32,-273.6"/>
<polygon fill="#db2f2f" stroke="black" points="77.05,-271.38 67.48,-266.84 72.13,-276.36 77.05,-271.38"/>
</g>
<!-- tachometer_profile -->
<g id="node7" class="node">
<title>tachometer_profile</title><style>.edge>path:hover{stroke-width:8}</style>
<ellipse fill="#d92626" stroke="black" cx="199.91" cy="-246.53" rx="47.91" ry="20.51"/>
<text xml:space="preserve" text-anchor="middle" x="199.91" y="-247.53" font-family="Helvetica,sans-Serif" font-size="10.00" fill="#ffffff">tachometer.</text>
<text xml:space="preserve" text-anchor="middle" x="199.91" y="-237.03" font-family="Helvetica,sans-Serif" font-size="10.00" fill="#ffffff">profile</text>
</g>
<!-- tachometer_model&#45;&gt;tachometer_profile -->
<g id="edge8" class="edge">
<title>tachometer_model&#45;&gt;tachometer_profile</title><style>.edge>path:hover{stroke-width:8}</style>
<path fill="none" stroke="black" d="M142.3,-304.38C151.66,-295.15 163.21,-283.75 173.5,-273.6"/>
<polygon fill="#db2f2f" stroke="black" points="175.68,-276.36 180.34,-266.84 170.76,-271.38 175.68,-276.36"/>
</g>
<!-- tachometer_profile&#45;&gt;tachometer -->
<g id="edge9" class="edge">
<title>tachometer_profile&#45;&gt;tachometer</title><style>.edge>path:hover{stroke-width:8}</style>
<path fill="none" stroke="black" d="M181.51,-227.37C171.29,-217.28 158.46,-204.62 147.5,-193.81"/>
<polygon fill="#d92626" stroke="black" points="150.22,-191.57 140.64,-187.04 145.3,-196.55 150.22,-191.57"/>
</g>
<!-- tachometer_profile&#45;&gt;tachometer_cli -->
<g id="edge10" class="edge">
<title>tachometer_profile&#45;&gt;tachometer_cli</title><style>.edge>path:hover{stroke-width:8}</style>
<path fill="none" stroke="black" d="M217.35,-226.95C229.13,-212.75 243.19,-192.02 246.91,-170.52"/>
<path fill="none" stroke="black" d="M246.91,-168.52C249.76,-152 258.05,-135.32 266.16,-122.12"/>
<polygon fill="#d92626" stroke="black" points="268.9,-124.33 271.41,-114.04 263.03,-120.52 268.9,-124.33"/>
</g>
<!-- tachometer_profile&#45;&gt;tachometer_server -->
<g id="edge11" class="edge">
<title>tachometer_profile&#45;&gt;tachometer_server</title><style>.edge>path:hover{stroke-width:8}</style>
<path fill="none" stroke="black" d="M226.6,-229.25C244.16,-218.54 267.38,-204.38 286.62,-192.65"/>
<polygon fill="#d92626" stroke="black" points="288.26,-195.75 294.98,-187.55 284.62,-189.77 288.26,-195.75"/>
</g>
<!-- tachometer_server&#45;&gt;tachometer_cli -->
<g id="edge12" class="edge">
<title>tachometer_server&#45;&gt;tachometer_cli</title><style>.edge>path:hover{stroke-width:8}</style>
<path fill="none" stroke="black" d="M312.72,-149.09C308.53,-141.1 303.61,-131.7 299.08,-123.06"/>
<polygon fill="#b03a3a" stroke="black" points="302.27,-121.6 294.53,-114.37 296.07,-124.85 302.27,-121.6"/>
</g>
<!-- tachometer_stoplight -->
<g id="node9" class="node">
<title>tachometer_stoplight</title><style>.edge>path:hover{stroke-width:8}</style>
<ellipse fill="#ce3b3b" stroke="black" cx="427.91" cy="-246.53" rx="47.91" ry="20.51"/>
<text xml:space="preserve" text-anchor="middle" x="427.91" y="-247.53" font-family="Helvetica,sans-Serif" font-size="10.00" fill="#ffffff">tachometer.</text>
<text xml:space="preserve" text-anchor="middle" x="427.91" y="-237.03" font-family="Helvetica,sans-Serif" font-size="10.00" fill="#ffffff">stoplight</text>
</g>
<!-- tachometer_stoplight&#45;&gt;tachometer_cli -->
<g id="edge13" class="edge">
<title>tachometer_stoplight&#45;&gt;tachometer_cli</title><style>.edge>path:hover{stroke-width:8}</style>
<path fill="none" stroke="black" d="M421.97,-225.7C414.83,-204.59 401.09,-171.22 379.91,-149.01 365.2,-133.59 344.99,-121.46 327,-112.73"/>
<polygon fill="#ce3b3b" stroke="black" points="328.64,-109.63 318.09,-108.61 325.7,-115.98 328.64,-109.63"/>
</g>
<!-- tachometer_stoplight&#45;&gt;tachometer_server -->
<g id="edge14" class="edge">
<title>tachometer_stoplight&#45;&gt;tachometer_server</title><style>.edge>path:hover{stroke-width:8}</style>
<path fill="none" stroke="black" d="M403.82,-228.32C389.68,-218.22 371.6,-205.31 356.13,-194.25"/>
<polygon fill="#ce3b3b" stroke="black" points="358.29,-191.49 348.12,-188.53 354.22,-197.19 358.29,-191.49"/>
</g>
</g>
</svg>
