<?xml version="1.0" encoding="UTF-8" standalone="no"?>
<!DOCTYPE svg PUBLIC "-//W3C//DTD SVG 1.1//EN"
 "http://www.w3.org/Graphics/SVG/1.1/DTD/svg11.dtd">
<!-- Generated by graphviz version 13.1.2 (20250808.2320)
 -->
<!-- Title: G Pages: 1 -->
<svg width="574pt" height="352pt"
 viewBox="0.00 0.00 574.00 352.00" xmlns="http://www.w3.org/2000/svg" xmlns:xlink="http://www.w3.org/1999/xlink">
<g id="graph0" class="graph" transform="scale(1 1) rotate(0) translate(4 348.05)">
<title>G</title><style>.edge>path:hover{stroke-width:8}</style>
<polygon fill="white" stroke="none" points="-4,4 -4,-348.05 570.46,-348.05 570.46,4 -4,4"/>
<!-- tachometer -->
<g id="node1" class="node">
<title>tachometer</title><style>.edge>path:hover{stroke-width:8}</style>
<ellipse fill="#a44646" stroke="black" cx="195.56" cy="-169.52" rx="37.74" ry="18"/>
<text xml:space="preserve" text-anchor="middle" x="195.56" y="-165.27" font-family="Helvetica,sans-Serif" font-size="10.00" fill="#ffffff">tachometer</text>
</g>
<!-- tachometer___main__ -->
<g id="node2" class="node">
<title>tachometer___main__</title><style>.edge>path:hover{stroke-width:8}</style>
<ellipse fill="#b34c4c" stroke="black" cx="337.56" cy="-20.51" rx="47.91" ry="20.51"/>
<text xml:space="preserve" text-anchor="middle" x="337.56" y="-21.51" font-family="Helvetica,sans-Serif" font-size="10.00" fill="#ffffff">tachometer.</text>
<text xml:space="preserve" text-anchor="middle" x="337.56" y="-11.01" font-family="Helvetica,sans-Serif" font-size="10.00" fill="#ffffff">__main__</text>
</g>
<!-- tachometer_agent_usage -->
<g id="node3" class="node">
<title>tachometer_agent_usage</title><style>.edge>path:hover{stroke-width:8}</style>
<ellipse fill="#c24747" stroke="black" cx="50.56" cy="-169.52" rx="50.56" ry="20.51"/>
<text xml:space="preserve" text-anchor="middle" x="50.56" y="-170.52" font-family="Helvetica,sans-Serif" font-size="10.00" fill="#ffffff">tachometer.</text>
<text xml:space="preserve" text-anchor="middle" x="50.56" y="-160.02" font-family="Helvetica,sans-Serif" font-size="10.00" fill="#ffffff">agent_usage</text>
</g>
<!-- tachometer_cli -->
<g id="node5" class="node">
<title>tachometer_cli</title><style>.edge>path:hover{stroke-width:8}</style>
<ellipse fill="#913030" stroke="black" cx="337.56" cy="-95.01" rx="45.17" ry="18"/>
<text xml:space="preserve" text-anchor="middle" x="337.56" y="-90.76" font-family="Helvetica,sans-Serif" font-size="10.00" fill="#ffffff">tachometer.cli</text>
</g>
<!-- tachometer_agent_usage&#45;&gt;tachometer_cli -->
<g id="edge1" class="edge">
<title>tachometer_agent_usage&#45;&gt;tachometer_cli</title><style>.edge>path:hover{stroke-width:8}</style>
<path fill="none" stroke="black" d="M89.98,-156.29C98.4,-153.79 107.25,-151.25 115.56,-149.01 174.46,-133.16 242.81,-117.2 287.94,-107"/>
<polygon fill="#c24747" stroke="black" points="288.42,-110.48 297.41,-104.87 286.89,-103.65 288.42,-110.48"/>
</g>
<!-- tachometer_backlog -->
<g id="node4" class="node">
<title>tachometer_backlog</title><style>.edge>path:hover{stroke-width:8}</style>
<ellipse fill="#ce3b3b" stroke="black" cx="395.56" cy="-246.53" rx="47.91" ry="20.51"/>
<text xml:space="preserve" text-anchor="middle" x="395.56" y="-247.53" font-family="Helvetica,sans-Serif" font-size="10.00" fill="#ffffff">tachometer.</text>
<text xml:space="preserve" text-anchor="middle" x="395.56" y="-237.03" font-family="Helvetica,sans-Serif" font-size="10.00" fill="#ffffff">backlog</text>
</g>
<!-- tachometer_backlog&#45;&gt;tachometer_cli -->
<g id="edge2" class="edge">
<title>tachometer_backlog&#45;&gt;tachometer_cli</title><style>.edge>path:hover{stroke-width:8}</style>
<path fill="none" stroke="black" d="M387.44,-225.85C382,-210.94 375.79,-189.79 375.56,-170.52"/>
</g>
<!-- tachometer_server -->
<g id="node10" class="node">
<title>tachometer_server</title><style>.edge>path:hover{stroke-width:8}</style>
<ellipse fill="#b03a3a" stroke="black" cx="451.56" cy="-169.52" rx="47.91" ry="20.51"/>
<text xml:space="preserve" text-anchor="middle" x="451.56" y="-170.52" font-family="Helvetica,sans-Serif" font-size="10.00" fill="#ffffff">tachometer.</text>
<text xml:space="preserve" text-anchor="middle" x="451.56" y="-160.02" font-family="Helvetica,sans-Serif" font-size="10.00" fill="#ffffff">server</text>
</g>
<!-- tachometer_backlog&#45;&gt;tachometer_server -->
<g id="edge3" class="edge">
<title>tachometer_backlog&#45;&gt;tachometer_server</title><style>.edge>path:hover{stroke-width:8}</style>
<path fill="none" stroke="black" d="M409.69,-226.6C416.06,-218.07 423.7,-207.83 430.71,-198.45"/>
<polygon fill="#ce3b3b" stroke="black" points="433.35,-200.76 436.53,-190.65 427.74,-196.57 433.35,-200.76"/>
</g>
<!-- tachometer_cli&#45;&gt;tachometer___main__ -->
<g id="edge4" class="edge">
<title>tachometer_cli&#45;&gt;tachometer___main__</title><style>.edge>path:hover{stroke-width:8}</style>
<path fill="none" stroke="black" d="M337.56,-76.83C337.56,-69.6 337.56,-60.96 337.56,-52.67"/>
<polygon fill="#913030" stroke="black" points="341.06,-52.9 337.56,-42.9 334.06,-52.9 341.06,-52.9"/>
</g>
<!-- tachometer_manifest -->
<g id="node6" class="node">
<title>tachometer_manifest</title><style>.edge>path:hover{stroke-width:8}</style>
<ellipse fill="#cc3333" stroke="black" cx="129.56" cy="-246.53" rx="47.91" ry="20.51"/>
<text xml:space="preserve" text-anchor="middle" x="129.56" y="-247.53" font-family="Helvetica,sans-Serif" font-size="10.00" fill="#ffffff">tachometer.</text>
<text xml:space="preserve" text-anchor="middle" x="129.56" y="-237.03" font-family="Helvetica,sans-Serif" font-size="10.00" fill="#ffffff">manifest</text>
</g>
<!-- tachometer_manifest&#45;&gt;tachometer -->
<g id="edge5" class="edge">
<title>tachometer_manifest&#45;&gt;tachometer</title><style>.edge>path:hover{stroke-width:8}</style>
<path fill="none" stroke="black" d="M145.87,-226.99C154.32,-217.39 164.74,-205.55 173.85,-195.19"/>
<polygon fill="#cc3333" stroke="black" points="176.47,-197.52 180.44,-187.7 171.21,-192.89 176.47,-197.52"/>
</g>
<!-- tachometer_manifest&#45;&gt;tachometer_cli -->
<g id="edge6" class="edge">
<title>tachometer_manifest&#45;&gt;tachometer_cli</title><style>.edge>path:hover{stroke-width:8}</style>
<path fill="none" stroke="black" d="M127.82,-225.85C127.04,-204.24 129.32,-169.83 148.56,-149.01 182.13,-112.67 238.42,-100.5 280.85,-96.78"/>
<polygon fill="#cc3333" stroke="black" points="280.92,-100.28 290.64,-96.07 280.41,-93.3 280.92,-100.28"/>
</g>
<!-- tachometer_model -->
<g id="node7" class="node">
<title>tachometer_model</title><style>.edge>path:hover{stroke-width:8}</style>
<ellipse fill="#db2f2f" stroke="black" cx="205.56" cy="-323.54" rx="47.91" ry="20.51"/>
<text xml:space="preserve" text-anchor="middle" x="205.56" y="-324.54" font-family="Helvetica,sans-Serif" font-size="10.00" fill="#ffffff">tachometer.</text>
<text xml:space="preserve" text-anchor="middle" x="205.56" y="-314.04" font-family="Helvetica,sans-Serif" font-size="10.00" fill="#ffffff">model</text>
</g>
<!-- tachometer_model&#45;&gt;tachometer -->
<g id="edge7" class="edge">
<title>tachometer_model&#45;&gt;tachometer</title><style>.edge>path:hover{stroke-width:8}</style>
<path fill="none" stroke="black" d="M204.25,-302.67C202.51,-276.21 199.42,-229.26 197.43,-199.03"/>
<polygon fill="#db2f2f" stroke="black" points="200.93,-198.84 196.78,-189.09 193.94,-199.3 200.93,-198.84"/>
</g>
<!-- tachometer_model&#45;&gt;tachometer_manifest -->
<g id="edge8" class="edge">
<title>tachometer_model&#45;&gt;tachometer_manifest</title><style>.edge>path:hover{stroke-width:8}</style>
<path fill="none" stroke="black" d="M187.16,-304.38C177.8,-295.15 166.26,-283.75 155.97,-273.6"/>
<polygon fill="#db2f2f" stroke="black" points="158.7,-271.38 149.13,-266.84 153.79,-276.36 158.7,-271.38"/>
</g>
<!-- tachometer_profile -->
<g id="node9" class="node">
<title>tachometer_profile</title><style>.edge>path:hover{stroke-width:8}</style>
<ellipse fill="#d92626" stroke="black" cx="281.56" cy="-246.53" rx="47.91" ry="20.51"/>
<text xml:space="preserve" text-anchor="middle" x="281.56" y="-247.53" font-family="Helvetica,sans-Serif" font-size="10.00" fill="#ffffff">tachometer.</text>
<text xml:space="preserve" text-anchor="middle" x="281.56" y="-237.03" font-family="Helvetica,sans-Serif" font-size="10.00" fill="#ffffff">profile</text>
</g>
<!-- tachometer_model&#45;&gt;tachometer_profile -->
<g id="edge9" class="edge">
<title>tachometer_model&#45;&gt;tachometer_profile</title><style>.edge>path:hover{stroke-width:8}</style>
<path fill="none" stroke="black" d="M223.96,-304.38C233.31,-295.15 244.86,-283.75 255.15,-273.6"/>
<polygon fill="#db2f2f" stroke="black" points="257.33,-276.36 261.99,-266.84 252.41,-271.38 257.33,-276.36"/>
</g>
<!-- tachometer_notify -->
<g id="node8" class="node">
<title>tachometer_notify</title><style>.edge>path:hover{stroke-width:8}</style>
<ellipse fill="#c24747" stroke="black" cx="299.56" cy="-169.52" rx="47.91" ry="20.51"/>
<text xml:space="preserve" text-anchor="middle" x="299.56" y="-170.52" font-family="Helvetica,sans-Serif" font-size="10.00" fill="#ffffff">tachometer.</text>
<text xml:space="preserve" text-anchor="middle" x="299.56" y="-160.02" font-family="Helvetica,sans-Serif" font-size="10.00" fill="#ffffff">notify</text>
</g>
<!-- tachometer_notify&#45;&gt;tachometer_cli -->
<g id="edge10" class="edge">
<title>tachometer_notify&#45;&gt;tachometer_cli</title><style>.edge>path:hover{stroke-width:8}</style>
<path fill="none" stroke="black" d="M309.74,-149.09C313.93,-141.1 318.85,-131.7 323.38,-123.06"/>
<polygon fill="#c24747" stroke="black" points="326.4,-124.85 327.94,-114.37 320.2,-121.6 326.4,-124.85"/>
</g>
<!-- tachometer_profile&#45;&gt;tachometer -->
<g id="edge11" class="edge">
<title>tachometer_profile&#45;&gt;tachometer</title><style>.edge>path:hover{stroke-width:8}</style>
<path fill="none" stroke="black" d="M261.18,-227.75C249.31,-217.4 234.24,-204.25 221.53,-193.17"/>
<polygon fill="#d92626" stroke="black" points="224.15,-190.81 214.31,-186.88 219.55,-196.09 224.15,-190.81"/>
</g>
<!-- tachometer_profile&#45;&gt;tachometer_cli -->
<g id="edge12" class="edge">
<title>tachometer_profile&#45;&gt;tachometer_cli</title><style>.edge>path:hover{stroke-width:8}</style>
<path fill="none" stroke="black" d="M318.37,-233.01C344.87,-221.39 375.92,-201.21 375.56,-170.52"/>
<path fill="none" stroke="black" d="M375.56,-168.52C375.36,-151.65 367.17,-134.83 358.44,-121.64"/>
<polygon fill="#d92626" stroke="black" points="361.33,-119.66 352.67,-113.56 355.64,-123.73 361.33,-119.66"/>
</g>
<!-- tachometer_profile&#45;&gt;tachometer_server -->
<g id="edge13" class="edge">
<title>tachometer_profile&#45;&gt;tachometer_server</title><style>.edge>path:hover{stroke-width:8}</style>
<path fill="none" stroke="black" d="M313.93,-231.24C340.79,-219.39 379.2,-202.45 408.62,-189.47"/>
<polygon fill="#d92626" stroke="black" points="409.89,-192.73 417.63,-185.49 407.07,-186.32 409.89,-192.73"/>
</g>
<!-- tachometer_server&#45;&gt;tachometer_cli -->
<g id="edge14" class="edge">
<title>tachometer_server&#45;&gt;tachometer_cli</title><style>.edge>path:hover{stroke-width:8}</style>
<path fill="none" stroke="black" d="M425.4,-151.88C408.99,-141.44 387.68,-127.89 370.17,-116.75"/>
<polygon fill="#b03a3a" stroke="black" points="372.47,-114.07 362.16,-111.66 368.72,-119.98 372.47,-114.07"/>
</g>
<!-- tachometer_stoplight -->
<g id="node11" class="node">
<title>tachometer_stoplight</title><style>.edge>path:hover{stroke-width:8}</style>
<ellipse fill="#ce3b3b" stroke="black" cx="518.56" cy="-246.53" rx="47.91" ry="20.51"/>
<text xml:space="preserve" text-anchor="middle" x="518.56" y="-247.53" font-family="Helvetica,sans-Serif" font-size="10.00" fill="#ffffff">tachometer.</text>
<text xml:space="preserve" text-anchor="middle" x="518.56" y="-237.03" font-family="Helvetica,sans-Serif" font-size="10.00" fill="#ffffff">stoplight</text>
</g>
<!-- tachometer_stoplight&#45;&gt;tachometer_cli -->
<g id="edge15" class="edge">
<title>tachometer_stoplight&#45;&gt;tachometer_cli</title><style>.edge>path:hover{stroke-width:8}</style>
<path fill="none" stroke="black" d="M522.35,-225.76C525.24,-204.39 526.18,-170.51 508.56,-149.01 480.94,-115.32 432.3,-102.64 393.94,-98.05"/>
<polygon fill="#ce3b3b" stroke="black" points="394.72,-94.62 384.42,-97.08 394.01,-101.58 394.72,-94.62"/>
</g>
<!-- tachometer_stoplight&#45;&gt;tachometer_server -->
<g id="edge16" class="edge">
<title>tachometer_stoplight&#45;&gt;tachometer_server</title><style>.edge>path:hover{stroke-width:8}</style>
<path fill="none" stroke="black" d="M502,-226.99C494.1,-218.15 484.51,-207.41 475.82,-197.68"/>
<polygon fill="#ce3b3b" stroke="black" points="478.44,-195.36 469.17,-190.24 473.22,-200.03 478.44,-195.36"/>
</g>
</g>
</svg>
