<?plantuml 1.2026.2?><svg xmlns="http://www.w3.org/2000/svg" xmlns:xlink="http://www.w3.org/1999/xlink" contentStyleType="text/css" data-diagram-type="DESCRIPTION" height="581px" preserveAspectRatio="none" style="width:800px;height:581px;background:#FFFFFF;" version="1.1" viewBox="0 0 800 581" width="800px" zoomAndPan="magnify"><defs/><g><!--entity tachometer--><g class="entity" data-qualified-name="tachometer" data-source-line="4" id="ent0002"><rect fill="#F1F1F1" height="96.2717" rx="2.5" ry="2.5" style="stroke:#181818;stroke-width:0.5;" width="203.7493" x="128.08" y="243.27"/><text fill="#000000" font-family="sans-serif" font-size="14" lengthAdjust="spacing" textLength="76.4677" x="138.08" y="268.2359">tachometer</text><text fill="#000000" font-family="sans-serif" font-size="14" lengthAdjust="spacing" textLength="147.2654" x="138.08" y="287.3039">0 child pkg, 8 modules</text><text fill="#000000" font-family="sans-serif" font-size="14" lengthAdjust="spacing" textLength="88.5076" x="138.08" y="306.3718">9 python files</text><text fill="#000000" font-family="sans-serif" font-size="14" lengthAdjust="spacing" textLength="66.8217" x="138.08" y="325.4397">examples:</text><text fill="#000000" font-family="sans-serif" font-size="14" lengthAdjust="spacing" text-decoration="underline" textLength="33.2079" x="208.5417" y="325.4397">main</text><text fill="#000000" font-family="sans-serif" font-size="14" lengthAdjust="spacing" textLength="80.0797" x="241.7496" y="325.4397">, backlog, cli</text></g><!--entity tachometer.__main__--><g class="entity" data-qualified-name="tachometer.__main__" data-source-line="5" id="ent0003"><rect fill="#F1F1F1" height="58.1358" rx="2.5" ry="2.5" style="stroke:#181818;stroke-width:0.5;" width="133.4276" x="389.24" y="7"/><text fill="#000000" font-family="sans-serif" font-size="14" lengthAdjust="spacing" textLength="80.2197" x="399.24" y="31.9659">tachometer.</text><text fill="#000000" font-family="sans-serif" font-size="14" lengthAdjust="spacing" text-decoration="underline" textLength="33.2079" x="479.4597" y="31.9659">main</text><text fill="#000000" font-family="sans-serif" font-size="14" lengthAdjust="spacing" textLength="81.8017" x="399.24" y="51.0339">1 python file</text></g><!--entity tachometer.backlog--><g class="entity" data-qualified-name="tachometer.backlog" data-source-line="6" id="ent0004"><rect fill="#F1F1F1" height="58.1358" rx="2.5" ry="2.5" style="stroke:#181818;stroke-width:0.5;" width="151.5715" x="449.16" y="399.54"/><text fill="#000000" font-family="sans-serif" font-size="14" lengthAdjust="spacing" textLength="131.5715" x="459.16" y="424.5059">tachometer.backlog</text><text fill="#000000" font-family="sans-serif" font-size="14" lengthAdjust="spacing" textLength="81.8017" x="459.16" y="443.5739">1 python file</text></g><!--entity tachometer.cli--><g class="entity" data-qualified-name="tachometer.cli" data-source-line="7" id="ent0005"><rect fill="#F1F1F1" height="58.1358" rx="2.5" ry="2.5" style="stroke:#181818;stroke-width:0.5;" width="114.1636" x="398.87" y="125.13"/><text fill="#000000" font-family="sans-serif" font-size="14" lengthAdjust="spacing" textLength="94.1636" x="408.87" y="150.0959">tachometer.cli</text><text fill="#000000" font-family="sans-serif" font-size="14" lengthAdjust="spacing" textLength="81.8017" x="408.87" y="169.1639">1 python file</text></g><!--entity tachometer.manifest--><g class="entity" data-qualified-name="tachometer.manifest" data-source-line="8" id="ent0006"><rect fill="#F1F1F1" height="58.1358" rx="2.5" ry="2.5" style="stroke:#181818;stroke-width:0.5;" width="157.8995" x="7" y="399.54"/><text fill="#000000" font-family="sans-serif" font-size="14" lengthAdjust="spacing" textLength="137.8995" x="17" y="424.5059">tachometer.manifest</text><text fill="#000000" font-family="sans-serif" font-size="14" lengthAdjust="spacing" textLength="81.8017" x="17" y="443.5739">1 python file</text></g><!--entity tachometer.model--><g class="entity" data-qualified-name="tachometer.model" data-source-line="9" id="ent0007"><rect fill="#F1F1F1" height="58.1358" rx="2.5" ry="2.5" style="stroke:#181818;stroke-width:0.5;" width="141.8975" x="147" y="517.67"/><text fill="#000000" font-family="sans-serif" font-size="14" lengthAdjust="spacing" textLength="121.8975" x="157" y="542.6359">tachometer.model</text><text fill="#000000" font-family="sans-serif" font-size="14" lengthAdjust="spacing" textLength="81.8017" x="157" y="561.7039">1 python file</text></g><!--entity tachometer.profile--><g class="entity" data-qualified-name="tachometer.profile" data-source-line="10" id="ent0008"><rect fill="#F1F1F1" height="58.1358" rx="2.5" ry="2.5" style="stroke:#181818;stroke-width:0.5;" width="143.0175" x="271.44" y="399.54"/><text fill="#000000" font-family="sans-serif" font-size="14" lengthAdjust="spacing" textLength="123.0175" x="281.44" y="424.5059">tachometer.profile</text><text fill="#000000" font-family="sans-serif" font-size="14" lengthAdjust="spacing" textLength="81.8017" x="281.44" y="443.5739">1 python file</text></g><!--entity tachometer.server--><g class="entity" data-qualified-name="tachometer.server" data-source-line="11" id="ent0009"><rect fill="#F1F1F1" height="58.1358" rx="2.5" ry="2.5" style="stroke:#181818;stroke-width:0.5;" width="141.3935" x="509.25" y="262.33"/><text fill="#000000" font-family="sans-serif" font-size="14" lengthAdjust="spacing" textLength="121.3935" x="519.25" y="287.2959">tachometer.server</text><text fill="#000000" font-family="sans-serif" font-size="14" lengthAdjust="spacing" textLength="81.8017" x="519.25" y="306.3639">1 python file</text></g><!--entity tachometer.stoplight--><g class="entity" data-qualified-name="tachometer.stoplight" data-source-line="12" id="ent0010"><rect fill="#F1F1F1" height="58.1358" rx="2.5" ry="2.5" style="stroke:#181818;stroke-width:0.5;" width="158.5995" x="635.65" y="399.54"/><text fill="#000000" font-family="sans-serif" font-size="14" lengthAdjust="spacing" textLength="138.5995" x="645.65" y="424.5059">tachometer.stoplight</text><text fill="#000000" font-family="sans-serif" font-size="14" lengthAdjust="spacing" textLength="81.8017" x="645.65" y="443.5739">1 python file</text></g><!--link tachometer to tachometer.manifest--><g class="link" data-entity-1="ent0002" data-entity-2="ent0006" data-link-type="dependency" data-source-line="13" id="lnk11"><path d="M179.59,339.69 C158.5,359.49 139.053,377.7418 120.723,394.9618" fill="none" id="tachometer-to-tachometer.manifest" style="stroke:#181818;stroke-width:1;"/><polygon fill="#181818" points="116.35,399.07,125.6482,395.8231,119.9942,395.6465,120.1707,389.9924,116.35,399.07" style="stroke:#181818;stroke-width:1;"/></g><!--link tachometer to tachometer.model--><g class="link" data-entity-1="ent0002" data-entity-2="ent0007" data-link-type="dependency" data-source-line="14" id="lnk12"><path d="M227.71,339.76 C225.23,392.03 221.6142,468.4667 219.5742,511.4867" fill="none" id="tachometer-to-tachometer.model" style="stroke:#181818;stroke-width:1;"/><polygon fill="#181818" points="219.29,517.48,223.7118,508.6796,219.5268,512.4856,215.7208,508.3006,219.29,517.48" style="stroke:#181818;stroke-width:1;"/></g><!--link tachometer to tachometer.profile--><g class="link" data-entity-1="ent0002" data-entity-2="ent0008" data-link-type="dependency" data-source-line="15" id="lnk13"><path d="M269.47,339.69 C286.02,359.49 300.8626,377.2459 315.2526,394.4659" fill="none" id="tachometer-to-tachometer.profile" style="stroke:#181818;stroke-width:1;"/><polygon fill="#181818" points="319.1,399.07,316.3983,389.599,315.8938,395.2333,310.2595,394.7288,319.1,399.07" style="stroke:#181818;stroke-width:1;"/></g><!--link tachometer.__main__ to tachometer.cli--><g class="link" data-entity-1="ent0003" data-entity-2="ent0005" data-link-type="dependency" data-source-line="16" id="lnk14"><path d="M455.95,65.47 C455.95,83.47 455.95,100.66 455.95,118.68" fill="none" id="tachometer.__main__-to-tachometer.cli" style="stroke:#181818;stroke-width:1;"/><polygon fill="#181818" points="455.95,124.68,459.95,115.68,455.95,119.68,451.95,115.68,455.95,124.68" style="stroke:#181818;stroke-width:1;"/></g><!--link tachometer.cli to tachometer.backlog--><g class="link" data-entity-1="ent0005" data-entity-2="ent0004" data-link-type="dependency" data-source-line="17" id="lnk15"><path d="M460.01,183.65 C465.55,220.16 476.59,285.26 491.95,339.54 C497.68,359.81 503.7793,376.4441 510.6393,393.4841" fill="none" id="tachometer.cli-to-tachometer.backlog" style="stroke:#181818;stroke-width:1;"/><polygon fill="#181818" points="512.88,399.05,513.2295,389.2073,511.0127,394.4118,505.8083,392.195,512.88,399.05" style="stroke:#181818;stroke-width:1;"/></g><!--link tachometer.cli to tachometer.manifest--><g class="link" data-entity-1="ent0005" data-entity-2="ent0006" data-link-type="dependency" data-source-line="18" id="lnk16"><path d="M398.41,162.1 C310.46,173.89 148.78,200.81 110.95,243.27 C72.49,286.43 74.7938,353.4131 80.1438,393.3731" fill="none" id="tachometer.cli-to-tachometer.manifest" style="stroke:#181818;stroke-width:1;"/><polygon fill="#181818" points="80.94,399.32,83.7103,389.8688,80.2765,394.3642,75.7811,390.9304,80.94,399.32" style="stroke:#181818;stroke-width:1;"/></g><!--link tachometer.cli to tachometer.profile--><g class="link" data-entity-1="ent0005" data-entity-2="ent0008" data-link-type="dependency" data-source-line="19" id="lnk17"><path d="M444.18,183.58 C422.47,235.91 378.6784,341.4677 356.9984,393.7477" fill="none" id="tachometer.cli-to-tachometer.profile" style="stroke:#181818;stroke-width:1;"/><polygon fill="#181818" points="354.7,399.29,361.8424,392.5087,356.6153,394.6714,354.4526,389.4442,354.7,399.29" style="stroke:#181818;stroke-width:1;"/></g><!--link tachometer.cli to tachometer.server--><g class="link" data-entity-1="ent0005" data-entity-2="ent0009" data-link-type="dependency" data-source-line="20" id="lnk18"><path d="M481.94,183.54 C503.11,206.62 528.7854,234.6073 549.9354,257.6773" fill="none" id="tachometer.cli-to-tachometer.server" style="stroke:#181818;stroke-width:1;"/><polygon fill="#181818" points="553.99,262.1,550.8565,252.7629,550.6112,258.4144,544.9596,258.169,553.99,262.1" style="stroke:#181818;stroke-width:1;"/></g><!--link tachometer.cli to tachometer.stoplight--><g class="link" data-entity-1="ent0005" data-entity-2="ent0010" data-link-type="dependency" data-source-line="21" id="lnk19"><path d="M513.33,164.42 C561.44,175.15 628.44,197.61 667.95,243.27 C706.42,287.72 713.9404,353.4824 715.0604,393.0824" fill="none" id="tachometer.cli-to-tachometer.stoplight" style="stroke:#181818;stroke-width:1;"/><polygon fill="#181818" points="715.23,399.08,718.974,389.9705,715.0886,394.082,710.9772,390.1967,715.23,399.08" style="stroke:#181818;stroke-width:1;"/></g><!--link tachometer.manifest to tachometer.model--><g class="link" data-entity-1="ent0006" data-entity-2="ent0007" data-link-type="dependency" data-source-line="22" id="lnk20"><path d="M118.24,458.02 C138.7,476.01 160.5553,495.2467 181.0253,513.2567" fill="none" id="tachometer.manifest-to-tachometer.model" style="stroke:#181818;stroke-width:1;"/><polygon fill="#181818" points="185.53,517.22,181.4152,508.2719,181.7761,513.9172,176.1308,514.2781,185.53,517.22" style="stroke:#181818;stroke-width:1;"/></g><!--link tachometer.profile to tachometer.model--><g class="link" data-entity-1="ent0008" data-entity-2="ent0007" data-link-type="dependency" data-source-line="23" id="lnk21"><path d="M312.37,458.02 C293,476.01 272.4362,495.1267 253.0462,513.1367" fill="none" id="tachometer.profile-to-tachometer.model" style="stroke:#181818;stroke-width:1;"/><polygon fill="#181818" points="248.65,517.22,257.9665,514.0258,252.3135,513.8172,252.5221,508.1642,248.65,517.22" style="stroke:#181818;stroke-width:1;"/></g><!--link tachometer.server to tachometer.backlog--><g class="link" data-entity-1="ent0009" data-entity-2="ent0004" data-link-type="dependency" data-source-line="24" id="lnk22"><path d="M568.42,320.75 C559.03,343.82 548.1128,370.683 538.7228,393.743" fill="none" id="tachometer.server-to-tachometer.backlog" style="stroke:#181818;stroke-width:1;"/><polygon fill="#181818" points="536.46,399.3,543.5588,392.4731,538.3457,394.6692,536.1495,389.456,536.46,399.3" style="stroke:#181818;stroke-width:1;"/></g><!--link tachometer.server to tachometer.profile--><g class="link" data-entity-1="ent0009" data-entity-2="ent0008" data-link-type="dependency" data-source-line="25" id="lnk23"><path d="M529.98,320.91 C489.64,343.92 438.3817,373.1671 398.0617,396.1671" fill="none" id="tachometer.server-to-tachometer.profile" style="stroke:#181818;stroke-width:1;"/><polygon fill="#181818" points="392.85,399.14,402.6495,398.1551,397.1931,396.6626,398.6856,391.2061,392.85,399.14" style="stroke:#181818;stroke-width:1;"/></g><!--link tachometer.server to tachometer.stoplight--><g class="link" data-entity-1="ent0009" data-entity-2="ent0010" data-link-type="dependency" data-source-line="26" id="lnk24"><path d="M608.25,320.75 C631.29,343.82 659.4201,371.9946 682.4501,395.0546" fill="none" id="tachometer.server-to-tachometer.stoplight" style="stroke:#181818;stroke-width:1;"/><polygon fill="#181818" points="686.69,399.3,683.1605,390.1053,683.1568,395.7622,677.4999,395.7585,686.69,399.3" style="stroke:#181818;stroke-width:1;"/></g><?plantuml-src ZPB1RiCW44Jl_efLpadLtjeU-XEvHh88tjZ8i8lCjch-lZYndTO2qnkODyCmte02f1m6hpGUqQj12Gz0J5W9Un26CukmWyOCgCKmLQ4tD88ED3iVIPAZN2t222XgBLRB2dQYTCSE1OSJFOFkZ6t0z-qUNi5nysandEWD_5Kw9hYOsnw_bVDnzGvrxPIXkjx3MUdUSjHfQtQW0ZoCqzSzpTeJlVpsNuaNBECotLimcQYCHunSq4SYetMAp0M350ncBEV23TgInSXaz7xWKL9mcAYCHy3XQvo2JOixb7E88sbDsvNAMBZgyH4EXuzaOHl8hP3y-VpSn32jqV7__jskYNc2jgb4wXIMI9QWfguBKABB9KQfiJb8aRj7-KSdQJ3ntZIulEO7?></g></svg>
