<?plantuml 1.2026.2?><svg xmlns="http://www.w3.org/2000/svg" xmlns:xlink="http://www.w3.org/1999/xlink" contentStyleType="text/css" data-diagram-type="DESCRIPTION" height="634px" preserveAspectRatio="none" style="width:1001px;height:634px;background:#FFFFFF;" version="1.1" viewBox="0 0 1001 634" width="1001px" zoomAndPan="magnify"><title>tachometer repo architecture</title><defs/><g><g class="title" data-source-line="1"><text fill="#000000" font-family="Monospace" font-size="14" font-weight="bold" lengthAdjust="spacing" textLength="205.5543" x="390.8505" y="24.9659">tachometer&#160;repo&#160;architecture</text></g><!--cluster src/tachometer--><g class="cluster" data-qualified-name="src.tachometer" data-source-line="7" id="ent0002"><rect fill="none" height="441.48" rx="2.5" ry="2.5" style="stroke:#181818;stroke-width:1;" width="555" x="183.68" y="187.1979"/><text fill="#000000" font-family="Monospace" font-size="14" font-weight="bold" lengthAdjust="spacing" textLength="107.0086" x="407.6757" y="204.1639">src/tachometer</text></g><!--entity MODEL--><g class="entity" data-qualified-name="src.tachometer.MODEL" data-source-line="8" id="ent0003"><rect fill="#F1F1F1" height="58.1358" rx="2.5" ry="2.5" style="stroke:#181818;stroke-width:0.5;" width="232.8832" x="331.24" y="554.5379"/><text fill="#000000" font-family="Monospace" font-size="14" lengthAdjust="spacing" textLength="61.1798" x="341.24" y="579.5039">model.py</text><text fill="#000000" font-family="Monospace" font-size="14" lengthAdjust="spacing" textLength="212.8832" x="341.24" y="598.5718">manifest&#160;+&#160;snapshot&#160;dataclasses</text></g><!--entity MANIFEST--><g class="entity" data-qualified-name="src.tachometer.MANIFEST" data-source-line="9" id="ent0004"><rect fill="#F1F1F1" height="58.1358" rx="2.5" ry="2.5" style="stroke:#181818;stroke-width:0.5;" width="244.9231" x="199.22" y="380.8679"/><text fill="#000000" font-family="Monospace" font-size="14" lengthAdjust="spacing" textLength="77.1817" x="209.22" y="405.8339">manifest.py</text><text fill="#000000" font-family="Monospace" font-size="14" lengthAdjust="spacing" textLength="224.9231" x="209.22" y="424.9018">TOML&#160;loading&#160;and&#160;path&#160;resolution</text></g><!--entity PROFILE--><g class="entity" data-qualified-name="src.tachometer.PROFILE" data-source-line="10" id="ent0005"><rect fill="#F1F1F1" height="77.2038" rx="2.5" ry="2.5" style="stroke:#181818;stroke-width:0.5;" width="243.3552" x="479" y="371.3379"/><text fill="#000000" font-family="Monospace" font-size="14" lengthAdjust="spacing" textLength="62.2998" x="489" y="396.3039">profile.py</text><text fill="#000000" font-family="Monospace" font-size="14" lengthAdjust="spacing" textLength="223.3552" x="489" y="415.3718">resource&#160;snapshots,&#160;repo&#160;metrics,</text><text fill="#000000" font-family="Monospace" font-size="14" lengthAdjust="spacing" textLength="193.0313" x="489" y="434.4397">JSON&#160;persistence,&#160;summaries</text></g><!--entity CLI--><g class="entity" data-qualified-name="src.tachometer.CLI" data-source-line="11" id="ent0006"><rect fill="#F1F1F1" height="58.1358" rx="2.5" ry="2.5" style="stroke:#181818;stroke-width:0.5;" width="266.7351" x="245.31" y="225.1979"/><text fill="#000000" font-family="Monospace" font-size="14" lengthAdjust="spacing" textLength="33.4459" x="255.31" y="250.1639">cli.py</text><text fill="#000000" font-family="Monospace" font-size="14" lengthAdjust="spacing" textLength="246.7351" x="255.31" y="269.2318">snapshot/run/summarize&#160;entrypoints</text></g><!--entity EXAMPLES--><g class="entity" data-qualified-name="EXAMPLES" data-source-line="14" id="ent0007"><path d="M8.5,216.1979 L49.5,216.1979 A3.75,3.75 0 0 1 52,218.6979 L59,237.1979 L164.8615,237.1979 A2.5,2.5 0 0 1 167.3615,239.6979 L167.3615,289.8338 A2.5,2.5 0 0 1 164.8615,292.3338 L8.5,292.3338 A2.5,2.5 0 0 1 6,289.8338 L6,218.6979 A2.5,2.5 0 0 1 8.5,216.1979" fill="#F1F1F1" style="stroke:#181818;stroke-width:0.5;"/><line style="stroke:#181818;stroke-width:0.5;" x1="6" x2="59" y1="237.1979" y2="237.1979"/><text fill="#000000" font-family="Monospace" font-size="14" lengthAdjust="spacing" textLength="68.2777" x="16" y="259.1639">examples/</text><text fill="#000000" font-family="Monospace" font-size="14" lengthAdjust="spacing" textLength="131.3615" x="16" y="278.2318">reference&#160;manifests</text></g><!--entity DOWNSTREAM--><g class="entity" data-qualified-name="DOWNSTREAM" data-source-line="15" id="ent0008"><path d="M252.6,46.0679 L293.6,46.0679 A3.75,3.75 0 0 1 296.1,48.5679 L303.1,67.0679 L482.7552,67.0679 A2.5,2.5 0 0 1 485.2552,69.5679 L485.2552,119.7038 A2.5,2.5 0 0 1 482.7552,122.2038 L252.6,122.2038 A2.5,2.5 0 0 1 250.1,119.7038 L250.1,48.5679 A2.5,2.5 0 0 1 252.6,46.0679" fill="#F1F1F1" style="stroke:#181818;stroke-width:0.5;"/><line style="stroke:#181818;stroke-width:0.5;" x1="250.1" x2="303.1" y1="67.0679" y2="67.0679"/><text fill="#000000" font-family="Monospace" font-size="14" lengthAdjust="spacing" textLength="205.1552" x="260.1" y="89.0339">config/downstream-repos.toml</text><text fill="#000000" font-family="Monospace" font-size="14" lengthAdjust="spacing" textLength="115.4016" x="260.1" y="108.1018">tracked&#160;inventory</text></g><!--entity LOCAL--><g class="entity" data-qualified-name="LOCAL" data-source-line="16" id="ent0009"><path d="M757.61,545.5379 L798.61,545.5379 A3.75,3.75 0 0 1 801.11,548.0379 L808.11,566.5379 L991.7552,566.5379 A2.5,2.5 0 0 1 994.2552,569.0379 L994.2552,619.1738 A2.5,2.5 0 0 1 991.7552,621.6738 L757.61,621.6738 A2.5,2.5 0 0 1 755.11,619.1738 L755.11,548.0379 A2.5,2.5 0 0 1 757.61,545.5379" fill="#F1F1F1" style="stroke:#181818;stroke-width:0.5;"/><line style="stroke:#181818;stroke-width:0.5;" x1="755.11" x2="808.11" y1="566.5379" y2="566.5379"/><text fill="#000000" font-family="Monospace" font-size="14" lengthAdjust="spacing" textLength="85.4277" x="765.11" y="588.5039">.tachometer/</text><text fill="#000000" font-family="Monospace" font-size="14" lengthAdjust="spacing" textLength="209.1452" x="765.11" y="607.5718">local&#160;profile&#160;+&#160;summary&#160;outputs</text></g><!--entity TESTS--><g class="entity" data-qualified-name="TESTS" data-source-line="17" id="ent0010"><path d="M523.21,46.0679 L564.21,46.0679 A3.75,3.75 0 0 1 566.71,48.5679 L573.71,67.0679 L638.1596,67.0679 A2.5,2.5 0 0 1 640.6596,69.5679 L640.6596,119.7038 A2.5,2.5 0 0 1 638.1596,122.2038 L523.21,122.2038 A2.5,2.5 0 0 1 520.71,119.7038 L520.71,48.5679 A2.5,2.5 0 0 1 523.21,46.0679" fill="#F1F1F1" style="stroke:#181818;stroke-width:0.5;"/><line style="stroke:#181818;stroke-width:0.5;" x1="520.71" x2="573.71" y1="67.0679" y2="67.0679"/><text fill="#000000" font-family="Monospace" font-size="14" lengthAdjust="spacing" textLength="36.6239" x="530.71" y="89.0339">tests/</text><text fill="#000000" font-family="Monospace" font-size="14" lengthAdjust="spacing" textLength="89.9496" x="530.71" y="108.1018">unit&#160;coverage</text></g><!--link CLI to MANIFEST--><g class="link" data-entity-1="ent0006" data-entity-2="ent0004" data-link-type="dependency" data-source-line="19" id="lnk11"><path d="M317.02,283.6779 C302.13,293.6779 288.1,306.4779 279.68,322.3379 C269.5,341.5279 276.8,358.8267 290.09,375.8667" fill="none" id="CLI-to-MANIFEST" style="stroke:#181818;stroke-width:1;"/><polygon fill="#181818" points="293.78,380.5979,291.3991,371.0412,290.705,376.6553,285.0909,375.9611,293.78,380.5979" style="stroke:#181818;stroke-width:1;"/><text fill="#000000" font-family="Monospace" font-size="13" lengthAdjust="spacing" textLength="83.4471" x="280.68" y="337.2349">load&#160;manifest</text></g><!--link CLI to PROFILE--><g class="link" data-entity-1="ent0006" data-entity-2="ent0005" data-link-type="dependency" data-source-line="20" id="lnk12"><path d="M406.93,283.4879 C425.55,301.2679 450.97,324.0379 475.68,341.3379 C490.64,351.8079 502.1432,358.9673 518.4032,367.9873" fill="none" id="CLI-to-PROFILE" style="stroke:#181818;stroke-width:1;"/><polygon fill="#181818" points="523.65,370.8979,517.7202,363.0342,519.2777,368.4724,513.8395,370.0299,523.65,370.8979" style="stroke:#181818;stroke-width:1;"/><text fill="#000000" font-family="Monospace" font-size="13" lengthAdjust="spacing" textLength="136.1621" x="476.68" y="337.2349">invoke&#160;profiling&#160;action</text></g><!--link MANIFEST to MODEL--><g class="link" data-entity-1="ent0004" data-entity-2="ent0003" data-link-type="dependency" data-source-line="21" id="lnk13"><path d="M329.05,439.0979 C335.81,461.3479 347.43,492.3979 364.68,515.5379 C375.53,530.0979 385.4868,539.6764 399.5068,550.4764" fill="none" id="MANIFEST-to-MODEL" style="stroke:#181818;stroke-width:1;"/><polygon fill="#181818" points="404.26,554.1379,399.5712,545.4768,400.299,551.0866,394.6891,551.8144,404.26,554.1379" style="stroke:#181818;stroke-width:1;"/><text fill="#000000" font-family="Monospace" font-size="13" lengthAdjust="spacing" textLength="118.5861" x="365.68" y="502.4349">build&#160;RepoManifest</text></g><!--link PROFILE to MODEL--><g class="link" data-entity-1="ent0005" data-entity-2="ent0003" data-link-type="dependency" data-source-line="22" id="lnk14"><path d="M566.73,449.0379 C538.38,480.8479 502.5926,520.9991 476.9726,549.7391" fill="none" id="PROFILE-to-MODEL" style="stroke:#181818;stroke-width:1;"/><polygon fill="#181818" points="472.98,554.2179,481.9547,550.1615,476.3071,550.4856,475.983,544.838,472.98,554.2179" style="stroke:#181818;stroke-width:1;"/><text fill="#000000" font-family="Monospace" font-size="13" lengthAdjust="spacing" textLength="147.8752" x="538.88" y="502.4349">build&#160;ResourceSnapshot</text></g><!--link PROFILE to LOCAL--><g class="link" data-entity-1="ent0005" data-entity-2="ent0009" data-link-type="dependency" data-source-line="23" id="lnk15"><path d="M661.49,449.0379 C707.21,477.6879 764.4457,534.542 809.8957,563.022" fill="none" id="PROFILE-to-LOCAL" style="stroke:#181818;stroke-width:1;"/><polygon fill="#181818" points="814.98,566.2079,809.4775,558.0395,810.7431,563.553,805.2296,564.8185,814.98,566.2079" style="stroke:#181818;stroke-width:1;"/><text fill="#000000" font-family="Monospace" font-size="13" lengthAdjust="spacing" textLength="103.0511" x="772.281" y="493.4349">write&#160;profile.json</text><text fill="#000000" font-family="Monospace" font-size="13" lengthAdjust="spacing" textLength="121.1731" x="763.22" y="511.1409">write&#160;summary.json</text></g><!--link EXAMPLES to MANIFEST--><g class="link" data-entity-1="ent0007" data-entity-2="ent0004" data-link-type="dependency" data-source-line="24" id="lnk16"><path d="M115.33,292.4879 C129.45,309.0279 147.54,327.7679 166.68,341.3379 C188.72,356.9579 209.4061,367.7356 233.9561,378.1456" fill="none" id="EXAMPLES-to-MANIFEST" style="stroke:#181818;stroke-width:1;"/><polygon fill="#181818" points="239.48,380.4879,232.7557,373.2918,234.8767,378.536,229.6326,380.657,239.48,380.4879" style="stroke:#181818;stroke-width:1;"/><text fill="#000000" font-family="Monospace" font-size="13" lengthAdjust="spacing" textLength="99.0731" x="167.68" y="337.2349">reference&#160;shape</text></g><!--link DOWNSTREAM to CLI--><g class="link" data-entity-1="ent0008" data-entity-2="ent0006" data-link-type="dependency" data-source-line="25" id="lnk17"><path d="M370.12,122.4479 C372.15,153.4079 374.5868,190.7808 376.4368,218.9508" fill="none" id="DOWNSTREAM-to-CLI" style="stroke:#181818;stroke-width:1;"/><polygon fill="#181818" points="376.83,224.9379,380.2316,215.6951,376.5023,219.9487,372.2488,216.2194,376.83,224.9379" style="stroke:#181818;stroke-width:1;"/><text fill="#000000" font-family="Monospace" font-size="13" lengthAdjust="spacing" textLength="89.6481" x="374.18" y="167.0949">rollout&#160;context</text></g><!--link TESTS to CLI--><g class="link" data-entity-1="ent0010" data-entity-2="ent0006" data-link-type="dependency" data-source-line="26" id="lnk18"><path d="M535.6,122.6579 C498.51,153.5279 451.3315,192.7994 417.5615,220.9094" fill="none" id="TESTS-to-CLI" style="stroke:#181818;stroke-width:1;"/><polygon fill="#181818" points="412.95,224.7479,422.4262,222.0644,416.7929,221.5491,417.3081,215.9158,412.95,224.7479" style="stroke:#181818;stroke-width:1;"/></g><!--link TESTS to PROFILE--><g class="link" data-entity-1="ent0010" data-entity-2="ent0005" data-link-type="dependency" data-source-line="27" id="lnk19"><path d="M589.75,122.5379 C591.73,132.1479 593.57,142.5079 594.68,152.1979 C603.58,229.4879 603.2709,314.7096 602.0909,364.9496" fill="none" id="TESTS-to-PROFILE" style="stroke:#181818;stroke-width:1;"/><polygon fill="#181818" points="601.95,370.9479,606.1602,362.0443,602.0674,365.9493,598.1624,361.8565,601.95,370.9479" style="stroke:#181818;stroke-width:1;"/></g><!--link TESTS to MANIFEST--><g class="link" data-entity-1="ent0010" data-entity-2="ent0004" data-link-type="dependency" data-source-line="28" id="lnk20"><path d="M580.55,122.4579 C579.57,185.4479 574.1,309.1379 546.68,341.3379 C542.31,346.4679 488.1838,362.706 431.2938,378.786" fill="none" id="TESTS-to-MANIFEST" style="stroke:#181818;stroke-width:1;"/><polygon fill="#181818" points="425.52,380.4179,435.2687,381.8192,430.3315,379.0579,433.0927,374.1208,425.52,380.4179" style="stroke:#181818;stroke-width:1;"/></g><?plantuml-src RLF9Rjim4BtpAmQ-rikzXm968WCk92km3BG7NrXgPBEcI84S9N6B_dj7j1Oxo57acpTleKYJGI2fpgv6GWyU6mVIgxCcLDHw529Sj6sabpKqKbta2Gkwyf3dUsbF1ky0uInBzwRj2IffmlrDYPLi3MsSfPsi4J9dNM0-vkzPOHQyMarIPl1NmBG5PhKhqIoRwz7MqkeA0y4N25OsuUm8IicZHeQ0OGOoG9O_9-a7WduiSXpoB0NZPDcfbRPaStHcT72c9UtiZMIzsswIul38qtXNQOEHfXjelS9HI9ZVCcGFNgimFzhlHRw31dtGWT0gd4DewrfwtIjzsUURRPeyxb16H_w1TkLRk-hd_Y2W9NzjdBPqutXAj-AV49Kp9PSumtTPDmR3gXDOeU_Mmc3_Df7yN6SlQLACCyhPIfzMt9yDv57MYyv7M9AhpP7NSKjOWhQllDlvQoHvpd_iYiC-MMSZpN9gaBSRfwI1Fh2khkZW2gwbfksLfFdJEXtdgLF8awtL1CgzekUt4N47Bg8GWgt2Ol5jx0Q-nXf7UoEWpvNlMRIxO2yZzgswYiL84Vcw1yFWNwqs9UpPUpOm3aoVmMxr5trD3z1eZA5ldd-c8OJbx-3iqTxE-ZZYcHWQ-UXkQf1_hmR557f4TdOPv8pXK3anI_XE8eOrtDzz3OzjEXdV-7y0?></g></svg>
