<?plantuml 1.2026.2?><svg xmlns="http://www.w3.org/2000/svg" xmlns:xlink="http://www.w3.org/1999/xlink" contentStyleType="text/css" data-diagram-type="DESCRIPTION" height="629px" preserveAspectRatio="none" style="width:483px;height:629px;background:#FFFFFF;" version="1.1" viewBox="0 0 483 629" width="483px" zoomAndPan="magnify"><title>tachometer Shell Script Flow</title><defs/><g><g class="title" data-source-line="1"><text fill="#000000" font-family="Monospace" font-size="14" font-weight="bold" lengthAdjust="spacing" textLength="197.5988" x="135.9375" y="24.9659">tachometer&#160;Shell&#160;Script&#160;Flow</text></g><!--entity shell_scripts_refresh_tachometer_summaries_sh--><g class="entity" data-qualified-name="shell_scripts_refresh_tachometer_summaries_sh" data-source-line="7" id="ent0002"><rect fill="#DBEAFE" height="77.2038" rx="2.5" ry="2.5" style="stroke:#181818;stroke-width:0.5;" width="297.325" x="7" y="256.0179"/><text fill="#000000" font-family="Monospace" font-size="14" lengthAdjust="spacing" textLength="277.325" x="17" y="280.9839">scripts/refresh_tachometer_summaries.sh</text><text fill="#000000" font-family="Monospace" font-size="14" lengthAdjust="spacing" textLength="119.3915" x="17" y="300.0518">0&#160;local&#160;shell&#160;edges</text><text fill="#000000" font-family="Monospace" font-size="14" lengthAdjust="spacing" textLength="101.7516" x="17" y="319.1197">3&#160;external&#160;tools</text></g><!--entity shell_scripts_run_all_tachometer_snapshots_sh--><g class="entity" data-qualified-name="shell_scripts_run_all_tachometer_snapshots_sh" data-source-line="8" id="ent0003"><rect fill="#DBEAFE" height="77.2038" rx="2.5" ry="2.5" style="stroke:#181818;stroke-width:0.5;" width="288.197" x="11.56" y="144.0179"/><text fill="#000000" font-family="Monospace" font-size="14" lengthAdjust="spacing" textLength="268.197" x="21.56" y="168.9839">scripts/run_all_tachometer_snapshots.sh</text><text fill="#000000" font-family="Monospace" font-size="14" lengthAdjust="spacing" textLength="119.3915" x="21.56" y="188.0518">0&#160;local&#160;shell&#160;edges</text><text fill="#000000" font-family="Monospace" font-size="14" lengthAdjust="spacing" textLength="95.0456" x="21.56" y="207.1197">1&#160;external&#160;tool</text></g><!--entity shell_scripts_run_tachometer_profile_sh--><g class="entity" data-qualified-name="shell_scripts_run_tachometer_profile_sh" data-source-line="9" id="ent0004"><rect fill="#DBEAFE" height="77.2038" rx="2.5" ry="2.5" style="stroke:#181818;stroke-width:0.5;" width="242.2912" x="34.52" y="480.0179"/><text fill="#000000" font-family="Monospace" font-size="14" lengthAdjust="spacing" textLength="222.2912" x="44.52" y="504.9839">scripts/run_tachometer_profile.sh</text><text fill="#000000" font-family="Monospace" font-size="14" lengthAdjust="spacing" textLength="119.3915" x="44.52" y="524.0518">0&#160;local&#160;shell&#160;edges</text><text fill="#000000" font-family="Monospace" font-size="14" lengthAdjust="spacing" textLength="101.7516" x="44.52" y="543.1197">3&#160;external&#160;tools</text></g><!--entity shell_scripts_serve_tachometer_sh--><g class="entity" data-qualified-name="shell_scripts_serve_tachometer_sh" data-source-line="10" id="ent0005"><rect fill="#DBEAFE" height="77.2038" rx="2.5" ry="2.5" style="stroke:#181818;stroke-width:0.5;" width="205.5833" x="52.87" y="368.0179"/><text fill="#000000" font-family="Monospace" font-size="14" lengthAdjust="spacing" textLength="185.5833" x="62.87" y="392.9839">scripts/serve_tachometer.sh</text><text fill="#000000" font-family="Monospace" font-size="14" lengthAdjust="spacing" textLength="119.3915" x="62.87" y="412.0518">0&#160;local&#160;shell&#160;edges</text><text fill="#000000" font-family="Monospace" font-size="14" lengthAdjust="spacing" textLength="95.0456" x="62.87" y="431.1197">1&#160;external&#160;tool</text></g><!--entity tool_mapfile--><g class="entity" data-qualified-name="tool_mapfile" data-source-line="11" id="ent0006"><path d="M386.8243,279.2465 C391.4822,270.3347 399.0785,270.6978 403.6599,279.3199 C407.6045,272.08 412.9331,272.7483 417.5689,278.5849 C423.3668,270.6636 429.7912,271.6759 435.2071,279.0261 C439.7648,270.9945 446.2739,271.5995 450.2884,279.539 C461.1773,280.0579 463.0831,286.0288 459.0396,294.9998 C464.6203,304.7094 462,311.3787 450.1656,311.9951 C447.8413,320.4798 440.0327,320.7356 434.7381,315.2829 C431.5665,325.53 425.6159,326.6706 417.9794,319.6049 C411.6513,325.728 406.9287,325.0088 402.7605,317.2388 C395.0891,322.4072 389.6529,321.899 386.4142,312.3242 C376.7167,309.2285 374.2998,303.4891 381.9629,295.7351 C376.3715,288.9014 376.6864,281.4427 386.8243,279.2465" fill="#FEF3C7" style="stroke:#181818;stroke-width:0.5;"/><text fill="#000000" font-family="Monospace" font-size="14" lengthAdjust="spacing" textLength="49.4898" x="392.81" y="300.0539">mapfile</text></g><!--entity tool_python3--><g class="entity" data-qualified-name="tool_python3" data-source-line="12" id="ent0007"><path d="M385.2134,180.3708 C389.3031,176.084 393.4039,175.9813 396.4109,181.5953 C398.5935,175.8978 403.9835,174.092 407.9757,179.7527 C411.5495,175.5251 414.7866,175.7093 417.6142,180.5461 C420.2798,175.456 425.3056,173.8293 429.1075,179.3107 C433.0879,173.5198 438.7966,173.7976 442.0898,180.0514 C445.7788,175.4517 450.456,175.5483 452.7384,181.4744 C459.6384,185.2126 461.2493,191.6647 454.7967,197.1556 C462.8533,203.7798 462.506,209.4319 452.6913,213.7948 C451.0195,219.6322 446.4571,219.8947 442.4139,216.409 C440.3031,224.3277 434.947,224.4637 429.3227,220.1777 C427.8008,225.9695 424.0003,229.0208 418.3252,224.6899 C412.1369,228.6896 408.2846,227.6009 406.3191,220.2308 C402.4034,223.6044 397.1045,222.9935 395.9776,217.1139 C391.3677,221.451 387.3267,220.8037 384.8353,214.8255 C377.079,211.5454 375.3333,204.411 382.0259,198.6252 C375.0164,192.2412 375.4826,183.8317 385.2134,180.3708" fill="#FEF3C7" style="stroke:#181818;stroke-width:0.5;"/><text fill="#000000" font-family="Monospace" font-size="14" lengthAdjust="spacing" textLength="54.5858" x="390.27" y="202.0539">python3</text></g><!--entity tool_run--><g class="entity" data-qualified-name="tool_run" data-source-line="13" id="ent0008"><path d="M399.2302,573.7206 C404.1018,564.5793 412.4048,562.9796 419.4651,571.1643 C425.3287,563.4004 433.6535,565.1383 437.0527,573.8025 C446.6423,574.5113 452.3316,579.2644 446.8444,589.4237 C452.0785,598.8702 448.5765,604.29 438.203,605.1728 C437.9646,617.8975 431.6331,622.8921 419.6397,616.7209 C408.733,621.7536 401.5706,620.2676 400.8702,606.5203 C391.2093,605.6856 387.4211,597.594 392.7739,589.5827 C387.7185,581.4557 390.1347,576.0877 399.2302,573.7206" fill="#FEF3C7" style="stroke:#181818;stroke-width:0.5;"/><text fill="#000000" font-family="Monospace" font-size="14" lengthAdjust="spacing" textLength="23.0859" x="406.02" y="594.0539">run</text></g><!--entity tool_summarize--><g class="entity" data-qualified-name="tool_summarize" data-source-line="14" id="ent0009"><path d="M375.0962,488.5582 C380.2905,480.938 385.5279,482.5117 389.9554,489.3463 C393.5719,482.1952 399.2794,482.4295 403.3602,488.8889 C408.1942,481.4254 412.9609,480.1554 419.1659,487.4173 C423.2267,480.0497 430.3265,480.3157 433.9506,487.8507 C438.5351,480.9913 445.4265,481.2684 448.6424,489.2093 C452.2789,483.3947 458.979,482.8323 462.1417,489.7131 C471.5094,489.7838 475.6194,497.6006 470.5293,505.4012 C476.4739,514.0143 472.8013,520.0168 463.2064,521.6089 C459.4244,529.4605 451.8345,529.3684 446.9162,522.9018 C443.6099,531.0189 438.3283,530.5099 433.0695,524.8665 C430.2774,532.2474 423.3939,531.7345 419.3346,526.2159 C414.5056,531.7927 409.5355,532.7718 405.1981,525.6679 C399.6402,531.3358 393.3188,530.6447 390.2219,522.9165 C386.032,530.6363 379.5419,530.6764 375.6676,522.6253 C365.1076,521.7699 363.1751,512.4676 368.6171,505.1545 C363.3033,497.9706 364.3692,489.4798 375.0962,488.5582" fill="#FEF3C7" style="stroke:#181818;stroke-width:0.5;"/><text fill="#000000" font-family="Monospace" font-size="14" lengthAdjust="spacing" textLength="73.2617" x="380.93" y="510.0539">summarize</text></g><!--entity tool_tachometer--><g class="entity" data-qualified-name="tool_tachometer" data-source-line="15" id="ent0010"><path d="M373.8972,390.5407 C376.6707,385.4674 381.226,385.8275 383.9574,390.5838 C388.0384,384.3592 393.3857,385.7847 396.8426,391.2706 C400.1605,385.7844 403.4163,385.3578 407.1578,390.8735 C410.0486,383.9695 414.6021,383.9311 419.3358,388.9988 C423.1508,383.7614 427.5424,385.8605 429.8233,390.6099 C432.9561,385.4805 436.9849,385.266 440.506,390.1974 C444.3474,384.356 449.2507,385.4784 452.3176,391.0023 C455.386,385.2988 460.0269,386.5977 463.0023,391.0997 C471.2308,394.911 471.9121,401.9247 464.7496,407.3871 C472.77,412.3506 472.251,418.0323 464.9184,423.1601 C461.7361,428.562 457.4487,429.3027 453.5212,423.9498 C450.8629,430.6154 445.8021,430.8738 441.288,425.9002 C437.3225,431.2838 434.0046,430.5477 430.2871,425.6352 C427.8791,431.3225 422.6153,431.4648 419.6116,426.2166 C416.2025,430.9532 411.105,431.3701 407.9893,425.8832 C403.9647,429.6621 399.2551,429.9421 397.1226,423.809 C394.123,430.8278 387.9863,430.0666 383.9472,424.9363 C380.4031,429.4139 374.777,429.0496 372.4247,423.5587 C363.6179,422.4097 360.6625,414.1643 365.5387,407.2411 C360.8221,397.8382 362.2416,391.7494 373.8972,390.5407" fill="#FEF3C7" style="stroke:#181818;stroke-width:0.5;"/><text fill="#000000" font-family="Monospace" font-size="14" lengthAdjust="spacing" textLength="76.4677" x="379.32" y="412.0539">tachometer</text></g><g class="entity" data-qualified-name="shellGraphSummary" data-source-line="25" id="ent0019"><path d="M58.74,46.0679 L58.74,109.186 L252.5751,109.186 L252.5751,56.0679 L242.5751,46.0679 L58.74,46.0679" fill="#FEFFDD" style="stroke:#181818;stroke-width:0.5;"/><path d="M242.5751,46.0679 L242.5751,56.0679 L252.5751,56.0679 L242.5751,46.0679" fill="#FEFFDD" style="stroke:#181818;stroke-width:1;"/><text fill="#000000" font-family="Monospace" font-size="13" lengthAdjust="spacing" textLength="141.5311" x="64.74" y="64.9649">Scanned&#160;4&#160;shell&#160;scripts.</text><text fill="#000000" font-family="Monospace" font-size="13" lengthAdjust="spacing" textLength="172.8351" x="64.74" y="82.6709">Detected&#160;0&#160;local&#160;shell&#160;edges.</text><text fill="#000000" font-family="Monospace" font-size="13" lengthAdjust="spacing" textLength="156.4551" x="64.74" y="100.377">Detected&#160;5&#160;external&#160;tools.</text></g><!--link shell_scripts_refresh_tachometer_summaries_sh to tool_mapfile--><g class="link" data-entity-1="ent0002" data-entity-2="ent0006" data-link-type="dependency" data-source-line="16" id="lnk11"><path d="M304.59,294.6279 C331.42,294.6279 351.23,294.6279 371.39,294.6279" fill="none" id="shell_scripts_refresh_tachometer_summaries_sh-to-tool_mapfile" style="stroke:#181818;stroke-width:1;"/><polygon fill="#181818" points="377.39,294.6279,368.39,290.6279,372.39,294.6279,368.39,298.6279,377.39,294.6279" style="stroke:#181818;stroke-width:1;"/></g><!--link shell_scripts_refresh_tachometer_summaries_sh to tool_python3--><g class="link" data-entity-1="ent0002" data-entity-2="ent0007" data-link-type="dependency" data-source-line="17" id="lnk12"><path d="M304.72,263.0579 C363.74,263.0579 417.79,263.0579 417.79,263.0579 C417.79,263.0579 417.79,246.2479 417.79,227.3579" fill="none" id="shell_scripts_refresh_tachometer_summaries_sh-to-tool_python3" style="stroke:#181818;stroke-width:1;"/><polygon fill="#181818" points="417.79,221.3579,413.79,230.3579,417.79,226.3579,421.79,230.3579,417.79,221.3579" style="stroke:#181818;stroke-width:1;"/></g><!--link shell_scripts_refresh_tachometer_summaries_sh to tool_tachometer--><g class="link" data-entity-1="ent0002" data-entity-2="ent0010" data-link-type="dependency" data-source-line="18" id="lnk13"><path d="M304.67,326.1879 C341.08,326.1879 369.79,326.1879 369.79,326.1879 C369.79,326.1879 369.79,352.0079 369.79,375.6179" fill="none" id="shell_scripts_refresh_tachometer_summaries_sh-to-tool_tachometer" style="stroke:#181818;stroke-width:1;"/><polygon fill="#181818" points="369.79,381.6179,373.79,372.6179,369.79,376.6179,365.79,372.6179,369.79,381.6179" style="stroke:#181818;stroke-width:1;"/></g><!--link shell_scripts_run_all_tachometer_snapshots_sh to tool_python3--><g class="link" data-entity-1="ent0003" data-entity-2="ent0007" data-link-type="dependency" data-source-line="19" id="lnk14"><path d="M300.02,196.6279 C327.41,196.6279 348.01,196.6279 368.96,196.6279" fill="none" id="shell_scripts_run_all_tachometer_snapshots_sh-to-tool_python3" style="stroke:#181818;stroke-width:1;"/><polygon fill="#181818" points="374.96,196.6279,365.96,192.6279,369.96,196.6279,365.96,200.6279,374.96,196.6279" style="stroke:#181818;stroke-width:1;"/></g><!--link shell_scripts_run_tachometer_profile_sh to tool_run--><g class="link" data-entity-1="ent0004" data-entity-2="ent0008" data-link-type="dependency" data-source-line="20" id="lnk15"><path d="M277.14,543.1879 C345.7,543.1879 417.79,543.1879 417.79,543.1879 C417.79,543.1879 417.79,547.1779 417.79,557.7779" fill="none" id="shell_scripts_run_tachometer_profile_sh-to-tool_run" style="stroke:#181818;stroke-width:1;"/><polygon fill="#181818" points="417.79,563.7779,421.79,554.7779,417.79,558.7779,413.79,554.7779,417.79,563.7779" style="stroke:#181818;stroke-width:1;"/></g><!--link shell_scripts_run_tachometer_profile_sh to tool_summarize--><g class="link" data-entity-1="ent0004" data-entity-2="ent0009" data-link-type="dependency" data-source-line="21" id="lnk16"><path d="M277.03,504.6279 C308.2,504.6279 334.11,504.6279 359.62,504.6279" fill="none" id="shell_scripts_run_tachometer_profile_sh-to-tool_summarize" style="stroke:#181818;stroke-width:1;"/><polygon fill="#181818" points="365.62,504.6279,356.62,500.6279,360.62,504.6279,356.62,508.6279,365.62,504.6279" style="stroke:#181818;stroke-width:1;"/></g><!--link shell_scripts_run_tachometer_profile_sh to tool_tachometer--><g class="link" data-entity-1="ent0004" data-entity-2="ent0010" data-link-type="dependency" data-source-line="22" id="lnk17"><path d="M267.79,479.6679 C267.79,450.2079 267.79,414.7979 267.79,414.7979 C267.79,414.7979 314.94,414.7979 357.91,414.7979" fill="none" id="shell_scripts_run_tachometer_profile_sh-to-tool_tachometer" style="stroke:#181818;stroke-width:1;"/><polygon fill="#181818" points="363.91,414.7979,354.91,410.7979,358.91,414.7979,354.91,418.7979,363.91,414.7979" style="stroke:#181818;stroke-width:1;"/></g><!--link shell_scripts_serve_tachometer_sh to tool_tachometer--><g class="link" data-entity-1="ent0005" data-entity-2="ent0010" data-link-type="dependency" data-source-line="23" id="lnk18"><path d="M258.79,398.4479 C294.72,398.4479 327.58,398.4479 357.86,398.4479" fill="none" id="shell_scripts_serve_tachometer_sh-to-tool_tachometer" style="stroke:#181818;stroke-width:1;"/><polygon fill="#181818" points="363.86,398.4479,354.86,394.4479,358.86,398.4479,354.86,402.4479,363.86,398.4479" style="stroke:#181818;stroke-width:1;"/></g><?plantuml-src fLF1Rjim3BtxAuZqtAn5EkmsO5lZdTQBhmKCGQOZOJ8fICowzEihPwwj6cwwj4UJxpq-oezYnI68qeOx50nG6NGEAXsi5oWTFnGEMm5X27Pd11eRK8jbAk9lIru5rK4qgk47IpjebOkOTHfirTv9oIHtgaFunSJHAvrZD7UU2KagEIGllRoYdSiXpXBAmIDm4CF5285LF1gDdmAs0QEffqtgkEyw5Ip6TJJtT0MEjNB9QxyVDZkCzxG1_9kWbEh2xE8ALFo7g0VX-fHm7GrSt7xVVYktYvxsLAiabLD9-MXOJdYwVkbfoT89tV-mbD5yuDOw_DW3BKg-uIDY-8CPxIFFCTVAHsl7-mPMdVAzgIEvLwc70boKstBpuyippXzIl6WpuOR279TsdZ3fOzuV4lAOJHnBS-naV09dz_YCFY-LbvTVNopwNlgm_tlf4w0uBy9l6NWrSoCnGSudZJ_fVEghgox5Sub5B3Y6-sTGtbH7DuUYqee86xWPBcDGNXUtYQWbTHOk9-j-dXtnka1ge9_t1000?></g></svg>
