<?plantuml 1.2026.2?><svg xmlns="http://www.w3.org/2000/svg" xmlns:xlink="http://www.w3.org/1999/xlink" contentStyleType="text/css" data-diagram-type="DESCRIPTION" height="1640px" preserveAspectRatio="none" style="width:592px;height:1640px;background:#FFFFFF;" version="1.1" viewBox="0 0 592 1640" width="592px" zoomAndPan="magnify"><title>tachometer Tooling Integrations</title><defs/><g><g class="title" data-source-line="1"><text fill="#000000" font-family="Monospace" font-size="14" font-weight="bold" lengthAdjust="spacing" textLength="226.7327" x="176.0409" y="24.9659">tachometer&#160;Tooling&#160;Integrations</text></g><!--entity source_github_workflows_ci_yml--><g class="entity" data-qualified-name="source_github_workflows_ci_yml" data-source-line="7" id="ent0002"><rect fill="#E0F2FE" height="58.1358" rx="2.5" ry="2.5" style="stroke:#181818;stroke-width:0.5;" width="182.6234" x="64.35" y="1366.7079"/><text fill="#000000" font-family="Monospace" font-size="14" lengthAdjust="spacing" textLength="162.6234" x="74.35" y="1391.6739">.github/workflows/ci.yml</text><text fill="#000000" font-family="Monospace" font-size="14" lengthAdjust="spacing" textLength="105.3356" x="74.35" y="1410.7418">6&#160;detected&#160;tools</text></g><!--entity source_github_workflows_python_publish_yml--><g class="entity" data-qualified-name="source_github_workflows_python_publish_yml" data-source-line="8" id="ent0003"><rect fill="#E0F2FE" height="58.1358" rx="2.5" ry="2.5" style="stroke:#181818;stroke-width:0.5;" width="271.831" x="19.75" y="1072.7079"/><text fill="#000000" font-family="Monospace" font-size="14" lengthAdjust="spacing" textLength="251.831" x="29.75" y="1097.6739">.github/workflows/python-publish.yml</text><text fill="#000000" font-family="Monospace" font-size="14" lengthAdjust="spacing" textLength="105.3356" x="29.75" y="1116.7418">7&#160;detected&#160;tools</text></g><!--entity source_github_workflows_secret_scan_yml--><g class="entity" data-qualified-name="source_github_workflows_secret_scan_yml" data-source-line="9" id="ent0004"><rect fill="#E0F2FE" height="58.1358" rx="2.5" ry="2.5" style="stroke:#181818;stroke-width:0.5;" width="246.7851" x="32.27" y="736.7079"/><text fill="#000000" font-family="Monospace" font-size="14" lengthAdjust="spacing" textLength="226.7851" x="42.27" y="761.6739">.github/workflows/secret-scan.yml</text><text fill="#000000" font-family="Monospace" font-size="14" lengthAdjust="spacing" textLength="105.3356" x="42.27" y="780.7418">5&#160;detected&#160;tools</text></g><!--entity source_scripts_refresh_tachometer_summaries_sh--><g class="entity" data-qualified-name="source_scripts_refresh_tachometer_summaries_sh" data-source-line="10" id="ent0005"><rect fill="#E0F2FE" height="58.1358" rx="2.5" ry="2.5" style="stroke:#181818;stroke-width:0.5;" width="297.325" x="7" y="126.7079"/><text fill="#000000" font-family="Monospace" font-size="14" lengthAdjust="spacing" textLength="277.325" x="17" y="151.6739">scripts/refresh_tachometer_summaries.sh</text><text fill="#000000" font-family="Monospace" font-size="14" lengthAdjust="spacing" textLength="105.3356" x="17" y="170.7418">3&#160;detected&#160;tools</text></g><!--entity source_scripts_run_all_tachometer_snapshots_sh--><g class="entity" data-qualified-name="source_scripts_run_all_tachometer_snapshots_sh" data-source-line="11" id="ent0006"><rect fill="#E0F2FE" height="58.1358" rx="2.5" ry="2.5" style="stroke:#181818;stroke-width:0.5;" width="288.197" x="11.56" y="219.7079"/><text fill="#000000" font-family="Monospace" font-size="14" lengthAdjust="spacing" textLength="268.197" x="21.56" y="244.6739">scripts/run_all_tachometer_snapshots.sh</text><text fill="#000000" font-family="Monospace" font-size="14" lengthAdjust="spacing" textLength="105.3356" x="21.56" y="263.7418">2&#160;detected&#160;tools</text></g><!--entity source_scripts_run_tachometer_profile_sh--><g class="entity" data-qualified-name="source_scripts_run_tachometer_profile_sh" data-source-line="12" id="ent0007"><rect fill="#E0F2FE" height="58.1358" rx="2.5" ry="2.5" style="stroke:#181818;stroke-width:0.5;" width="242.2912" x="34.52" y="405.7079"/><text fill="#000000" font-family="Monospace" font-size="14" lengthAdjust="spacing" textLength="222.2912" x="44.52" y="430.6739">scripts/run_tachometer_profile.sh</text><text fill="#000000" font-family="Monospace" font-size="14" lengthAdjust="spacing" textLength="105.3356" x="44.52" y="449.7418">3&#160;detected&#160;tools</text></g><!--entity source_scripts_serve_tachometer_sh--><g class="entity" data-qualified-name="source_scripts_serve_tachometer_sh" data-source-line="13" id="ent0008"><rect fill="#E0F2FE" height="58.1358" rx="2.5" ry="2.5" style="stroke:#181818;stroke-width:0.5;" width="205.5833" x="52.87" y="312.7079"/><text fill="#000000" font-family="Monospace" font-size="14" lengthAdjust="spacing" textLength="185.5833" x="62.87" y="337.6739">scripts/serve_tachometer.sh</text><text fill="#000000" font-family="Monospace" font-size="14" lengthAdjust="spacing" textLength="98.6296" x="62.87" y="356.7418">1&#160;detected&#160;tool</text></g><!--entity tool_actions_checkout--><g class="entity" data-qualified-name="tool_actions_checkout" data-source-line="14" id="ent0009"><path d="M410.2921,1001.6036 C414.1439,995.4446 418.8865,995.5851 422.616,1001.7262 C425.9217,994.9632 430.9234,996.2122 434.962,1000.9387 C439.5823,993.7913 443.8429,993.9161 448.4839,1000.919 C452.7587,994.6356 456.5913,995.6236 460.6873,1001.1045 C464.0188,996.4186 469.2324,996.5722 472.0126,1001.7382 C474.7108,996.0805 480.9773,995.5886 484.5545,1000.7161 C488.6341,994.6788 493.9319,994.7384 498.305,1000.3702 C503.4796,994.9347 508.2412,995.4348 511.0916,1002.7085 C514.0626,996.5845 519.5429,996.6686 522.5815,1002.6443 C526.5503,996.8108 530.9344,997.5678 534.9444,1002.5974 C544.6257,1005.007 545.9359,1011.1667 540.9382,1018.955 C546.3831,1027.4122 544.918,1032.5155 534.9747,1035.3885 C532.7271,1041.0599 527.3673,1041.5312 524.1914,1036.3073 C520.6044,1042.8175 514.4423,1043.4068 509.8511,1037.4636 C507.1176,1043.3661 503.1471,1044.9815 497.9171,1040.2708 C494.6362,1046.7747 490.1401,1046.5988 486.0601,1041.0573 C483.5317,1048.4965 477.0143,1048.9634 473.006,1042.4411 C468.1027,1048.8389 462.6436,1046.7632 460.1565,1040.0695 C456.2206,1046.8475 450.2989,1046.6921 446.7281,1039.7131 C442.1934,1045.2315 437.5051,1043.7529 434.8315,1037.7855 C430.9543,1042.903 425.5953,1042.5251 423.0514,1036.3898 C418.5905,1041.8529 412.3686,1042.5887 409.1071,1035.0986 C402.0091,1031.0471 400.6077,1023.0642 409.1887,1019.0927 C400.9464,1013.0645 401.8935,1006.5819 410.2921,1001.6036" fill="#FEF3C7" style="stroke:#181818;stroke-width:0.5;"/><text fill="#000000" font-family="Monospace" font-size="14" lengthAdjust="spacing" textLength="111.9156" x="415.86" y="1023.2039">actions/checkout</text></g><!--entity tool_actions_download_artifact--><g class="entity" data-qualified-name="tool_actions_download_artifact" data-source-line="15" id="ent0010"><path d="M382.6855,1170.9205 C386.6349,1165.625 391.4532,1164.1656 395.6042,1170.7004 C398.7909,1163.9948 402.7114,1163.3609 407.8053,1168.7813 C412.0128,1162.5945 418.7106,1164.3698 421.5591,1170.3212 C424.1567,1164.7108 429.7493,1162.8608 433.8779,1168.6695 C437.862,1163.0581 443.8875,1162.536 447.1586,1169.4269 C450.2221,1161.6279 456.374,1162.1227 461.0047,1167.8188 C464.5101,1162.1415 469.681,1162.5901 472.2954,1168.6742 C476.1625,1161.4914 483.3262,1160.8112 487.1027,1168.7629 C491.2626,1162.3892 496.6781,1162.674 500.064,1169.5216 C503.1524,1163.9853 508.5045,1163.6834 511.4883,1169.6257 C514.5717,1162.9388 520.9255,1162.1251 525.0796,1168.5126 C529.4471,1162.5648 534.9441,1163.8554 537.6484,1170.2116 C542.2459,1162.5539 546.8123,1163.1405 551.8926,1169.7288 C555.4933,1163.2811 561.8625,1162.6555 565.6733,1169.5111 C576.647,1171.698 579.5568,1179.5462 571.7576,1187.9332 C576.1339,1196.5727 572.8997,1201.6508 563.4898,1202.4248 C559.9539,1208.5948 555.8239,1210.8621 550.2625,1204.5758 C546.7888,1210.8885 541.7575,1210.6321 537.4435,1205.5185 C534.6498,1210.3682 529.7699,1211.2649 526.3635,1206.2035 C523.0687,1212.6453 516.6904,1213.9261 511.8691,1207.9913 C508.4533,1214.889 502.3849,1213.5183 498.9122,1208.0508 C496.0824,1214.8069 491.8874,1215.6575 487.1983,1209.774 C482.8429,1217.9195 475.7082,1216.8582 471.936,1209.2104 C467.8884,1215.0311 462.9072,1215.7875 459.3372,1208.7426 C455.5371,1214.3984 450.4492,1214.0484 446.5031,1208.9162 C442.8218,1214.654 437.1193,1214.5421 434.1973,1208.1462 C429.7648,1213.4691 424.4012,1213.9228 421.352,1206.7268 C417.0438,1213.1054 412.9413,1211.8246 408.8796,1206.4647 C404.6276,1212.4565 398.5397,1212.1787 395.3371,1205.3557 C391.198,1211.1516 384.4686,1211.1121 381.306,1204.2713 C369.2184,1203.3681 366.9346,1196.1029 372.8508,1186.5902 C369.5106,1177.3781 372.896,1171.892 382.6855,1170.9205" fill="#FEF3C7" style="stroke:#181818;stroke-width:0.5;"/><text fill="#000000" font-family="Monospace" font-size="14" lengthAdjust="spacing" textLength="168.8114" x="387.42" y="1191.2039">actions/download-artifact</text></g><!--entity tool_actions_setup_python--><g class="entity" data-qualified-name="tool_actions_setup_python" data-source-line="16" id="ent0011"><path d="M395.9291,1338.7886 C398.1416,1332.7338 402.3552,1332.672 406.1739,1337.2395 C411.0376,1331.9098 415.3769,1332.5586 418.7697,1338.8357 C420.6657,1334.2463 425.4636,1332.3921 428.9196,1337.1398 C432.2791,1330.8472 435.8866,1330.9538 439.9551,1336.4776 C443.5353,1330.9911 447.273,1331.8893 450.7227,1336.6152 C454.5614,1332.2736 458.1998,1332.602 460.976,1337.7618 C464.1514,1331.9573 469.2079,1330.3045 473.9498,1335.9936 C476.9956,1331.0228 479.934,1331.0813 483.055,1335.9238 C487.3881,1330.1812 491.7161,1330.8219 495.4453,1336.5748 C499.488,1331.6374 503.3571,1332.3012 506.4186,1337.6243 C509.1871,1332.2513 513.9505,1332.9276 517.0599,1337.2501 C520.1103,1331.606 524.9118,1332.3211 527.6425,1337.5609 C531.8674,1331.9187 535.6672,1332.6022 539.7037,1337.771 C543.4954,1332.5006 547.9472,1332.814 551.1476,1338.3945 C560.2926,1341.0958 562.1241,1349.119 555.604,1355.8252 C562.6389,1363.9209 560.1916,1370.4588 549.6014,1372.0228 C546.1194,1377.6135 542.341,1377.5411 539.1567,1371.7495 C537.1118,1377.6253 532.1728,1377.2488 528.7059,1373.2552 C525.959,1379.1179 521.3312,1379.2693 517.4338,1374.4719 C514.3127,1380.5877 508.5631,1380.3233 505.4938,1374.4204 C503.0705,1379.9861 499.8416,1379.365 495.9433,1375.9974 C492.7892,1381.1305 488.2285,1381.7664 484.7169,1376.3789 C482.3421,1381.7606 476.6819,1382.2346 473.3329,1377.4721 C469.7516,1383.4957 465.2083,1383.169 461.521,1377.5798 C457.9463,1382.1587 452.7535,1382.8475 450.0566,1376.6464 C446.4068,1381.1299 442.1018,1379.6187 440.3553,1374.6856 C435.9032,1378.7163 432.1724,1378.3805 429.0181,1373.1046 C424.8818,1379.2135 420.9678,1377.9096 417.0884,1372.8306 C414.861,1377.2565 410.2323,1377.123 407.5788,1373.3232 C403.8047,1378.9986 398.2249,1378.3849 395.7262,1372.0631 C385.9893,1370.7773 382.4189,1363.6095 386.9911,1354.9989 C382.0285,1346.0828 384.5567,1338.6979 395.9291,1338.7886" fill="#FEF3C7" style="stroke:#181818;stroke-width:0.5;"/><text fill="#000000" font-family="Monospace" font-size="14" lengthAdjust="spacing" textLength="140.2795" x="401.68" y="1359.2039">actions/setup-python</text></g><!--entity tool_actions_upload_artifact--><g class="entity" data-qualified-name="tool_actions_upload_artifact" data-source-line="17" id="ent0012"><path d="M392.3694,833.9258 C394.8113,828.6573 398.932,829.1947 402.0274,833.2488 C406.1159,827.0982 411.3101,827.8212 415.1954,833.4755 C418.1609,827.4966 423.8968,827.5416 426.8335,833.5036 C429.9354,828.8247 435.6574,828.4711 438.2879,834.031 C441.4376,827.956 445.2702,828.5225 449.6635,832.6434 C452.7099,827.1369 457.467,828.2266 460.2246,832.9419 C463.6289,826.9238 467.9282,826.19 472.278,831.9765 C476.4713,826.3125 482.6343,828.1543 485.155,833.8694 C488.2598,826.8357 492.7789,827.8639 497.1872,832.5287 C500.4116,828.5288 504.9316,828.1956 507.0744,833.6588 C510.9764,827.5241 514.5724,827.4817 518.9302,833.203 C522.8815,827.731 527.3261,828.5545 530.4765,834.0465 C534.2751,828.6378 538.7072,828.328 542.6745,833.8584 C545.7819,827.467 551.1677,827.6284 554.7995,833.3327 C564.1689,837.4822 565.5509,843.7924 557.6777,850.7854 C565.7107,857.2865 564.2228,863.1544 555.3306,867.2414 C551.413,873.1051 547.5762,873.7646 542.5695,868.4892 C538.9643,873.8299 533.2387,872.9167 530.4659,867.5483 C527.2746,872.5286 524.1326,873.4309 520.229,868.267 C516.2702,875.3577 511.3129,874.297 506.9923,868.6428 C504.094,874.4047 500.2549,875.0245 495.8892,870.1788 C493.4866,875.7969 488.4982,876.1427 485.5667,870.6711 C481.9546,878.0297 477.5885,876.8722 472.5999,872.1484 C468.0945,876.7999 464.9507,875.7078 462.3058,870.2534 C458.9383,876.3394 453.607,876.0218 449.703,870.8542 C445.5532,876.3504 441.4713,875.9639 438.6226,869.6349 C434.1752,874.2214 430.2566,874.2231 427.0474,868.2745 C424.0087,873.9507 418.3067,875.181 414.5962,868.9787 C410.6465,874.0832 405.8237,874.5007 402.022,868.8062 C398.872,873.4693 393.8303,873.2262 391.8039,867.6814 C381.3135,865.9474 377.6268,858.5161 385.1828,850.0176 C380.0103,841.9123 382.7296,835.4159 392.3694,833.9258" fill="#FEF3C7" style="stroke:#181818;stroke-width:0.5;"/><text fill="#000000" font-family="Monospace" font-size="14" lengthAdjust="spacing" textLength="149.3374" x="397.15" y="855.2039">actions/upload-artifact</text></g><!--entity tool_bash--><g class="entity" data-qualified-name="tool_bash" data-source-line="18" id="ent0013"><path d="M449.9042,236.9078 C452.8681,231.3549 457.1215,230.8253 460.6358,236.3759 C462.9461,230.9809 468.0041,228.7148 472.4077,234.0874 C476.8765,229.7164 481.5164,229.7484 484.1995,236.0587 C488.4185,230.3854 494.198,231.9457 496.8482,237.7827 C506.1366,242.4607 506.4293,247.6808 499.0579,254.5538 C505.4269,260.3988 502.7455,267.4334 495.3251,269.9311 C493.6729,274.9555 489.6835,277.2145 485.197,273.0579 C481.8573,280.0135 477.076,280.6952 472.5785,274.1391 C468.1771,278.1764 464.5198,278.769 461.7781,272.4142 C457.5525,277.5957 453.7719,277.1362 451.0024,271.0247 C441.5451,268.8525 439.1553,261.017 444.6041,253.4255 C437.861,246.3761 441.2912,239.0299 449.9042,236.9078" fill="#FEF3C7" style="stroke:#181818;stroke-width:0.5;"/><text fill="#000000" font-family="Monospace" font-size="14" lengthAdjust="spacing" textLength="31.8219" x="455.91" y="258.2039">bash</text></g><!--entity tool_black--><g class="entity" data-qualified-name="tool_black" data-source-line="19" id="ent0014"><path d="M448.3112,1422.8532 C450.333,1416.3588 456.3775,1415.8391 460.5073,1420.5611 C464.3781,1413.9361 468.7047,1413.7907 473.1324,1420.0139 C477.542,1414.5195 481.3921,1414.7362 484.9159,1420.9086 C489.161,1415.1503 494.9544,1415.1937 497.8093,1422.3017 C505.8022,1426.1633 506.5231,1432.6647 500.0001,1438.4906 C506.5122,1444.6082 505.631,1452.4189 496.9817,1455.9092 C495.2548,1462.1464 489.9959,1464.6505 484.645,1460.025 C483.6492,1466.2827 478.337,1467.3895 473.9839,1463.5806 C467.4392,1469.0675 462.0235,1467.1901 460.4711,1458.7403 C454.6756,1464.6409 449.8728,1463.2527 447.7437,1455.3578 C437.1235,1453.4828 435.6382,1447.3657 441.6349,1439.206 C435.7182,1430.88 439.5106,1425.1707 448.3112,1422.8532" fill="#FEF3C7" style="stroke:#181818;stroke-width:0.5;"/><text fill="#000000" font-family="Monospace" font-size="14" lengthAdjust="spacing" textLength="34.2719" x="454.69" y="1443.2039">black</text></g><!--entity tool_build--><g class="entity" data-qualified-name="tool_build" data-source-line="20" id="ent0015"><path d="M448.5182,917.5985 C452.6654,911.7643 457.457,911.6046 461.2722,917.9462 C464.3548,911.8018 469.7851,910.8821 473.844,916.9404 C476.6534,912.42 481.7354,911.2323 484.7128,916.7586 C488.7335,911.3371 493.9177,911.796 496.9444,917.8208 C507.8128,919.9442 507.3635,929.3509 501.3164,935.6275 C507.7688,942.3504 505.3308,948.4418 496.8124,950.6874 C494.9782,956.2538 489.6899,957.8007 485.3735,953.5921 C482.3577,959.9005 477.7694,960.7167 473.1763,955.2221 C469.1364,960.7617 462.8087,960.7966 460.0575,953.8664 C455.3036,957.781 450.6355,956.264 448.485,950.6909 C438.1663,950.2708 435.391,941.5091 440.4657,933.7866 C434.6828,925.833 437.7848,917.3363 448.5182,917.5985" fill="#FEF3C7" style="stroke:#181818;stroke-width:0.5;"/><text fill="#000000" font-family="Monospace" font-size="14" lengthAdjust="spacing" textLength="33.0959" x="455.27" y="939.2039">build</text></g><!--entity tool_curl--><g class="entity" data-qualified-name="tool_curl" data-source-line="21" id="ent0016"><path d="M453.0232,581.9253 C457.9853,572.364 467.5339,571.6255 473.2462,581.1296 C480.174,573.2724 485.9674,573.2969 491.2254,582.8536 C501.781,583.5033 504.0317,590.0972 499.2155,598.5645 C503.9933,607.394 500.5904,612.3586 491.5839,614.6472 C486.3199,624.7744 480.522,625.4759 472.7629,617.1988 C466.0121,624.9407 457.5794,625.774 453.3121,614.6398 C444.3082,613.3319 441.5861,606.3738 447.829,599.5323 C440.509,592.3011 444.2746,584.416 453.0232,581.9253" fill="#FEF3C7" style="stroke:#181818;stroke-width:0.5;"/><text fill="#000000" font-family="Monospace" font-size="14" lengthAdjust="spacing" textLength="24.7659" x="459.44" y="603.2039">curl</text></g><!--entity tool_gitleaks_gitleaks_action--><g class="entity" data-qualified-name="tool_gitleaks_gitleaks_action" data-source-line="22" id="ent0017"><path d="M388.9766,666.893 C393.117,659.5143 397.347,660.0066 402.5858,665.7541 C406.4975,660.2092 411.3295,660.4052 414.453,666.5539 C417.7092,660.6947 422.1925,660.979 425.5629,666.4418 C428.7146,661.0893 433.6598,659.4346 437.7406,665.4461 C440.4264,659.6664 446.3113,657.9679 450.0472,664.3866 C454.436,658.241 459.1579,660.4888 462.0986,665.897 C464.6646,661.0278 468.2111,660.0315 471.9122,664.733 C475.9449,657.4053 482.4327,659.4639 485.7778,665.4491 C488.228,661.0407 492.887,660.7365 495.6931,665.0442 C499.2461,659.319 503.4652,659.4517 507.3787,664.6588 C512.1245,659.5886 518.1564,659.3013 521.2967,666.4827 C524.295,661.3534 529.2792,660.0673 533.1906,665.4495 C536.3213,660.2607 539.9291,660.0943 543.4136,665.0946 C548.6406,659.34 552.5526,660.1017 555.7087,667.0923 C565.2989,667.8242 568.7636,674.5209 565.0393,683.0418 C570.9477,693.3892 566.1516,700.2098 554.763,700.1943 C551.204,704.7655 547.2913,704.1223 544.4672,699.3818 C541.9618,707.1453 536.9592,707.7071 531.6596,702.0479 C528.5335,707.1547 525.3117,707.0319 521.3966,702.927 C516.9334,708.3778 512.1466,710.0043 507.859,702.7401 C504.4387,708.7809 499.7814,708.7686 495.794,703.3365 C493.359,709.7211 489.9942,710.0873 485.2216,705.6122 C481.5375,711.4364 477.2573,712.0617 472.5291,706.8085 C467.7363,711.4504 463.5459,711.6466 460.0781,705.3062 C456.3128,709.9129 451.0124,709.9518 448.4112,704.0177 C444.9298,709.3919 440.641,708.4789 437.8438,703.3305 C434.0866,710.1314 428.7916,709.4254 425.2492,703.124 C420.9149,707.5215 416.3575,707.0186 413.5951,701.3111 C409.7241,706.9883 404.2976,704.6124 402.1468,699.4879 C399.231,705.9809 393.4737,706.2292 389.7463,700.2979 C380.0382,697.6607 378.4788,689.8995 384.8131,682.7519 C377.8584,676.4309 380.7618,669.2313 388.9766,666.893" fill="#FEF3C7" style="stroke:#181818;stroke-width:0.5;"/><text fill="#000000" font-family="Monospace" font-size="14" lengthAdjust="spacing" textLength="151.7174" x="395.96" y="687.2039">gitleaks/gitleaks-action</text></g><!--entity tool_mapfile--><g class="entity" data-qualified-name="tool_mapfile" data-source-line="23" id="ent0018"><path d="M441.0943,69.3965 C445.7522,60.4847 453.3485,60.8478 457.9299,69.4699 C461.8745,62.23 467.2031,62.8983 471.8389,68.7349 C477.6368,60.8136 484.0612,61.8259 489.4771,69.1761 C494.0348,61.1445 500.5439,61.7495 504.5584,69.689 C515.4473,70.2079 517.3531,76.1788 513.3096,85.1498 C518.8903,94.8594 516.27,101.5287 504.4356,102.1451 C502.1113,110.6298 494.3027,110.8856 489.0081,105.4329 C485.8365,115.68 479.8859,116.8206 472.2494,109.7549 C465.9213,115.878 461.1987,115.1588 457.0305,107.3888 C449.3591,112.5572 443.9229,112.049 440.6842,102.4742 C430.9867,99.3785 428.5698,93.6391 436.2329,85.8851 C430.6415,79.0514 430.9564,71.5927 441.0943,69.3965" fill="#FEF3C7" style="stroke:#181818;stroke-width:0.5;"/><text fill="#000000" font-family="Monospace" font-size="14" lengthAdjust="spacing" textLength="49.4898" x="447.08" y="90.2039">mapfile</text></g><!--entity tool_pip--><g class="entity" data-qualified-name="tool_pip" data-source-line="24" id="ent0019"><path d="M455.7012,1253.3066 C460.0455,1245.6787 467.5107,1244.2161 472.9651,1252.0686 C480.3731,1243.9547 486.4818,1245.9022 490.7705,1255.2494 C500.1419,1256.5015 504.2019,1261.3941 499.367,1270.6012 C505.4578,1280.3279 499.7844,1286.752 489.8961,1287.5496 C486.9861,1297.5252 481.2952,1299.8925 472.9133,1293.0874 C464.5973,1300.1997 456.7826,1296.2965 454.7946,1286.3617 C446.982,1282.083 444.55,1277.4608 452.0587,1270.5339 C444.9908,1263.3159 445.8757,1256.9528 455.7012,1253.3066" fill="#FEF3C7" style="stroke:#181818;stroke-width:0.5;"/><text fill="#000000" font-family="Monospace" font-size="14" lengthAdjust="spacing" textLength="20.8319" x="461.41" y="1275.2039">pip</text></g><!--entity tool_pypa_gh_action_pypi_publish--><g class="entity" data-qualified-name="tool_pypa_gh_action_pypi_publish" data-source-line="25" id="ent0020"><path d="M372.8546,1086.7222 C376.8044,1078.9713 383.7979,1080.6651 387.4452,1087.0348 C391.7057,1079.2076 398.2132,1079.1815 402.7485,1086.7618 C406.112,1080.4812 412.4084,1078.883 416.3336,1086.2006 C419.3359,1078.9272 426.298,1078.1063 430.6808,1084.7805 C433.8575,1078.1268 440.2009,1079.0387 443.6184,1084.5238 C448.5205,1078.7508 454.5412,1079.6727 458.0557,1086.1581 C462.176,1079.7819 467.495,1078.9724 472.603,1084.9995 C477.0272,1079.3273 483.6752,1079.2922 487.0725,1086.1823 C490.4179,1078.9341 495.6705,1078.5961 500.3499,1084.8726 C505.5952,1078.2351 509.9121,1078.8164 514.7518,1085.3173 C518.7163,1077.3483 526.4188,1077.2192 530.747,1084.9468 C534.8872,1079.2117 540.2467,1080.0817 543.8665,1085.556 C548.026,1078.8381 553.9107,1078.2596 558.0911,1085.5347 C563.8795,1079.4508 568.7098,1080.3048 573.105,1087.1523 C582.5616,1089.2145 585.6611,1094.1517 581.7201,1103.3428 C585.8144,1112.5295 584.4984,1119.3368 572.738,1119.9466 C568.2435,1126.9542 563.8303,1126.568 558.9388,1120.3611 C553.2905,1126.8559 548.7996,1125.739 543.9626,1119.4133 C540.2948,1126.3464 534.7529,1128.5739 528.806,1121.964 C524.6475,1127.3466 519.9798,1128.6318 516.0732,1121.7035 C512.5037,1129.5514 505.3773,1129.0745 501.8032,1121.7078 C497.853,1129.1923 490.9457,1127.974 487.5592,1121.1467 C484.0011,1127.7097 476.4529,1128.3596 472.1928,1121.9802 C467.0564,1128.2755 462.192,1128.4294 458.531,1120.5574 C455.2302,1127.5078 449.7231,1127.7067 444.6142,1122.6537 C438.7981,1129.1409 433.7927,1127.5659 429.9789,1120.4927 C425.6087,1128.1854 420.0244,1128.6366 415.0954,1121.0366 C411.0473,1125.775 406.1995,1126.0667 402.91,1120.1676 C397.4849,1127.1736 392.062,1127.7827 387.6286,1119.1956 C382.8222,1127.2245 377.5501,1126.4291 372.5013,1119.4397 C364.613,1115.7585 361.7565,1109.5609 369.5243,1103.0381 C361.8735,1096.6154 365.1395,1090.0085 372.8546,1086.7222" fill="#FEF3C7" style="stroke:#181818;stroke-width:0.5;"/><text fill="#000000" font-family="Monospace" font-size="14" lengthAdjust="spacing" textLength="184.9953" x="379.32" y="1107.2039">pypa/gh-action-pypi-publish</text></g><!--entity tool_pytest--><g class="entity" data-qualified-name="tool_pytest" data-source-line="26" id="ent0021"><path d="M445.9393,1506.7232 C448.6545,1499.845 455.7122,1498.2415 460.3773,1504.5957 C463.6065,1498.8063 469.2945,1498.5653 473.232,1503.7673 C477.2587,1497.9968 483.1201,1499.0771 485.5094,1505.426 C491.1968,1498.0824 496.3161,1497.6968 500.894,1506.4842 C512.6775,1506.8154 516.1119,1513.7337 509.5509,1523.4341 C515.0747,1533.0046 511.225,1540.185 499.8491,1539.6356 C498.1427,1547.277 493.319,1549.0862 487.4981,1543.4684 C485.6712,1551.0677 479.315,1554.1915 472.6465,1549.1624 C467.4618,1553.384 460.8224,1552.1444 460.185,1544.4192 C453.0872,1550.3782 446.523,1547.7221 446.0006,1538.3397 C437.8931,1535.5464 434.4582,1529.8936 440.7968,1522.3877 C433.798,1514.929 437.9714,1509.2685 445.9393,1506.7232" fill="#FEF3C7" style="stroke:#181818;stroke-width:0.5;"/><text fill="#000000" font-family="Monospace" font-size="14" lengthAdjust="spacing" textLength="40.4599" x="451.59" y="1527.2039">pytest</text></g><!--entity tool_python3--><g class="entity" data-qualified-name="tool_python3" data-source-line="27" id="ent0022"><path d="M439.4734,152.5208 C443.5631,148.234 447.6639,148.1313 450.6709,153.7453 C452.8535,148.0478 458.2435,146.242 462.2357,151.9027 C465.8095,147.6751 469.0466,147.8593 471.8742,152.6961 C474.5398,147.606 479.5656,145.9793 483.3675,151.4607 C487.3479,145.6698 493.0566,145.9476 496.3498,152.2014 C500.0388,147.6017 504.716,147.6983 506.9984,153.6244 C513.8984,157.3626 515.5093,163.8147 509.0567,169.3056 C517.1133,175.9298 516.766,181.5819 506.9513,185.9448 C505.2795,191.7822 500.7171,192.0447 496.6739,188.559 C494.5631,196.4777 489.207,196.6137 483.5827,192.3277 C482.0608,198.1195 478.2603,201.1708 472.5852,196.8399 C466.3969,200.8396 462.5446,199.7509 460.5791,192.3808 C456.6634,195.7544 451.3645,195.1435 450.2376,189.2639 C445.6277,193.601 441.5867,192.9537 439.0953,186.9755 C431.339,183.6954 429.5933,176.561 436.2859,170.7752 C429.2764,164.3912 429.7426,155.9817 439.4734,152.5208" fill="#FEF3C7" style="stroke:#181818;stroke-width:0.5;"/><text fill="#000000" font-family="Monospace" font-size="14" lengthAdjust="spacing" textLength="54.5858" x="444.53" y="174.2039">python3</text></g><!--entity tool_ruff--><g class="entity" data-qualified-name="tool_ruff" data-source-line="28" id="ent0023"><path d="M453.3732,1589.9253 C458.2431,1580.5258 467.6261,1579.7936 473.2462,1589.1296 C480.0549,1581.4368 485.7365,1581.4715 490.8754,1590.8536 C501.431,1591.5033 503.6817,1598.0972 498.8655,1606.5645 C503.6434,1615.394 500.2404,1620.3586 491.2339,1622.6472 C486.0911,1632.6025 480.4008,1633.3056 472.7629,1625.1988 C466.1135,1632.788 457.8281,1633.587 453.6621,1622.6398 C444.6582,1621.3319 441.9361,1614.3738 448.179,1607.5323 C440.859,1600.3011 444.6246,1592.416 453.3732,1589.9253" fill="#FEF3C7" style="stroke:#181818;stroke-width:0.5;"/><text fill="#000000" font-family="Monospace" font-size="14" lengthAdjust="spacing" textLength="24.0659" x="459.79" y="1611.2039">ruff</text></g><!--entity tool_run--><g class="entity" data-qualified-name="tool_run" data-source-line="29" id="ent0024"><path d="M453.4902,414.8706 C458.3618,405.7293 466.6648,404.1296 473.7251,412.3143 C479.5887,404.5504 487.9135,406.2883 491.3127,414.9525 C500.9023,415.6613 506.5916,420.4144 501.1044,430.5737 C506.3385,440.0202 502.8365,445.44 492.463,446.3228 C492.2246,459.0475 485.8931,464.0421 473.8997,457.8709 C462.993,462.9036 455.8306,461.4176 455.1302,447.6703 C445.4693,446.8356 441.6811,438.744 447.0339,430.7327 C441.9785,422.6057 444.3947,417.2377 453.4902,414.8706" fill="#FEF3C7" style="stroke:#181818;stroke-width:0.5;"/><text fill="#000000" font-family="Monospace" font-size="14" lengthAdjust="spacing" textLength="23.0859" x="460.28" y="435.2039">run</text></g><!--entity tool_summarize--><g class="entity" data-qualified-name="tool_summarize" data-source-line="30" id="ent0025"><path d="M429.3562,497.7082 C434.5505,490.088 439.7879,491.6617 444.2154,498.4963 C447.8319,491.3452 453.5394,491.5795 457.6202,498.0389 C462.4542,490.5754 467.2209,489.3054 473.4259,496.5673 C477.4867,489.1997 484.5865,489.4657 488.2106,497.0007 C492.7951,490.1413 499.6865,490.4184 502.9024,498.3593 C506.5389,492.5447 513.239,491.9823 516.4017,498.8631 C525.7694,498.9338 529.8794,506.7506 524.7893,514.5512 C530.7339,523.1643 527.0613,529.1668 517.4664,530.7589 C513.6844,538.6105 506.0945,538.5184 501.1762,532.0518 C497.8699,540.1689 492.5883,539.6599 487.3295,534.0165 C484.5374,541.3974 477.6539,540.8845 473.5946,535.3659 C468.7656,540.9427 463.7955,541.9218 459.4581,534.8179 C453.9002,540.4858 447.5788,539.7947 444.4819,532.0665 C440.292,539.7863 433.8019,539.8264 429.9276,531.7753 C419.3676,530.9199 417.4351,521.6176 422.8771,514.3045 C417.5633,507.1206 418.6292,498.6298 429.3562,497.7082" fill="#FEF3C7" style="stroke:#181818;stroke-width:0.5;"/><text fill="#000000" font-family="Monospace" font-size="14" lengthAdjust="spacing" textLength="73.2617" x="435.19" y="519.2039">summarize</text></g><!--entity tool_tachometer--><g class="entity" data-qualified-name="tool_tachometer" data-source-line="31" id="ent0026"><path d="M428.1672,325.6907 C430.9407,320.6174 435.496,320.9775 438.2274,325.7338 C442.3084,319.5092 447.6557,320.9347 451.1126,326.4206 C454.4305,320.9344 457.6863,320.5078 461.4278,326.0235 C464.3186,319.1195 468.8721,319.0811 473.6058,324.1488 C477.4208,318.9114 481.8124,321.0105 484.0933,325.7599 C487.2261,320.6305 491.2549,320.416 494.776,325.3474 C498.6174,319.506 503.5207,320.6284 506.5876,326.1523 C509.656,320.4488 514.2969,321.7477 517.2723,326.2497 C525.5008,330.061 526.1821,337.0747 519.0196,342.5371 C527.04,347.5006 526.521,353.1823 519.1884,358.3101 C516.0061,363.712 511.7187,364.4527 507.7912,359.0998 C505.1329,365.7654 500.0721,366.0238 495.558,361.0502 C491.5925,366.4338 488.2746,365.6977 484.5571,360.7852 C482.1491,366.4725 476.8853,366.6148 473.8816,361.3666 C470.4725,366.1032 465.375,366.5201 462.2593,361.0332 C458.2347,364.8121 453.5251,365.0921 451.3926,358.959 C448.393,365.9778 442.2563,365.2166 438.2172,360.0863 C434.6731,364.5639 429.047,364.1996 426.6947,358.7087 C417.8879,357.5597 414.9325,349.3143 419.8087,342.3911 C415.0921,332.9882 416.5116,326.8994 428.1672,325.6907" fill="#FEF3C7" style="stroke:#181818;stroke-width:0.5;"/><text fill="#000000" font-family="Monospace" font-size="14" lengthAdjust="spacing" textLength="76.4677" x="433.59" y="347.2039">tachometer</text></g><!--entity tool_tar--><g class="entity" data-qualified-name="tool_tar" data-source-line="32" id="ent0027"><path d="M457.6692,751.1277 C460.9041,742.5112 467.0142,741.5065 473.7105,747.2651 C480.0905,739.785 486.9381,742.6483 489.7896,750.8767 C499.3355,753.664 498.8212,760.1271 493.3446,766.3628 C500.5599,772.8842 498.4321,779.4086 490.3292,783.184 C489.9516,796.0273 481.5264,797.8788 471.954,792.4112 C464.4803,796.4542 456.8211,793.86 456.8336,784.1692 C447.3182,781.8356 444.3274,775.107 451.6403,767.5233 C444.941,759.9733 449.3891,753.1696 457.6692,751.1277" fill="#FEF3C7" style="stroke:#181818;stroke-width:0.5;"/><text fill="#000000" font-family="Monospace" font-size="14" lengthAdjust="spacing" textLength="18.6899" x="462.48" y="771.2039">tar</text></g><g class="entity" data-qualified-name="toolingGraphSummary" data-source-line="61" id="ent0055"><path d="M51.91,46.0679 L51.91,91.4799 L259.4212,91.4799 L259.4212,56.0679 L249.4212,46.0679 L51.91,46.0679" fill="#FEFFDD" style="stroke:#181818;stroke-width:0.5;"/><path d="M249.4212,46.0679 L249.4212,56.0679 L259.4212,56.0679 L249.4212,46.0679" fill="#FEFFDD" style="stroke:#181818;stroke-width:1;"/><text fill="#000000" font-family="Monospace" font-size="13" lengthAdjust="spacing" textLength="186.5112" x="57.91" y="64.9649">Scanned&#160;7&#160;tooling&#160;entrypoints.</text><text fill="#000000" font-family="Monospace" font-size="13" lengthAdjust="spacing" textLength="179.2182" x="57.91" y="82.6709">Detected&#160;19&#160;third-party&#160;tools.</text></g><!--link source_github_workflows_ci_yml to tool_actions_checkout--><g class="link" data-entity-1="ent0002" data-entity-2="ent0009" data-link-type="dependency" data-source-line="33" id="lnk28"><path d="M247.26,1370.5779 C273.58,1370.5779 295.32,1370.5779 295.32,1370.5779 C295.32,1370.5779 295.32,1030.0379 295.32,1030.0379 C295.32,1030.0379 345.56,1030.0379 394.54,1030.0379" fill="none" id="source_github_workflows_ci_yml-to-tool_actions_checkout" style="stroke:#181818;stroke-width:1;"/><polygon fill="#181818" points="400.54,1030.0379,391.54,1026.0379,395.54,1030.0379,391.54,1034.0379,400.54,1030.0379" style="stroke:#181818;stroke-width:1;"/></g><!--link source_github_workflows_ci_yml to tool_actions_setup_python--><g class="link" data-entity-1="ent0002" data-entity-2="ent0011" data-link-type="dependency" data-source-line="34" id="lnk29"><path d="M247.11,1374.4379 C290.97,1374.4379 337.21,1374.4379 380.27,1374.4379" fill="none" id="source_github_workflows_ci_yml-to-tool_actions_setup_python" style="stroke:#181818;stroke-width:1;"/><polygon fill="#181818" points="386.27,1374.4379,377.27,1370.4379,381.27,1374.4379,377.27,1378.4379,386.27,1374.4379" style="stroke:#181818;stroke-width:1;"/></g><!--link source_github_workflows_ci_yml to tool_black--><g class="link" data-entity-1="ent0002" data-entity-2="ent0014" data-link-type="dependency" data-source-line="35" id="lnk30"><path d="M247.11,1419.0379 C311.67,1419.0379 388.38,1419.0379 433.28,1419.0379" fill="none" id="source_github_workflows_ci_yml-to-tool_black" style="stroke:#181818;stroke-width:1;"/><polygon fill="#181818" points="439.28,1419.0379,430.28,1415.0379,434.28,1419.0379,430.28,1423.0379,439.28,1419.0379" style="stroke:#181818;stroke-width:1;"/></g><!--link source_github_workflows_ci_yml to tool_pip--><g class="link" data-entity-1="ent0002" data-entity-2="ent0019" data-link-type="dependency" data-source-line="36" id="lnk31"><path d="M155.32,1366.3479 C155.32,1331.4479 155.32,1277.9479 155.32,1277.9479 C155.32,1277.9479 364.33,1277.9479 439.92,1277.9479" fill="none" id="source_github_workflows_ci_yml-to-tool_pip" style="stroke:#181818;stroke-width:1;"/><polygon fill="#181818" points="445.92,1277.9479,436.92,1273.9479,440.92,1277.9479,436.92,1281.9479,445.92,1277.9479" style="stroke:#181818;stroke-width:1;"/></g><!--link source_github_workflows_ci_yml to tool_pytest--><g class="link" data-entity-1="ent0002" data-entity-2="ent0021" data-link-type="dependency" data-source-line="37" id="lnk32"><path d="M186.32,1425.3179 C186.32,1462.5579 186.32,1521.7779 186.32,1521.7779 C186.32,1521.7779 353.71,1521.7779 430.24,1521.7779" fill="none" id="source_github_workflows_ci_yml-to-tool_pytest" style="stroke:#181818;stroke-width:1;"/><polygon fill="#181818" points="436.24,1521.7779,427.24,1517.7779,431.24,1521.7779,427.24,1525.7779,436.24,1521.7779" style="stroke:#181818;stroke-width:1;"/></g><!--link source_github_workflows_ci_yml to tool_ruff--><g class="link" data-entity-1="ent0002" data-entity-2="ent0023" data-link-type="dependency" data-source-line="38" id="lnk33"><path d="M125.32,1424.9779 C125.32,1482.6779 125.32,1605.7779 125.32,1605.7779 C125.32,1605.7779 356.39,1605.7779 438.34,1605.7779" fill="none" id="source_github_workflows_ci_yml-to-tool_ruff" style="stroke:#181818;stroke-width:1;"/><polygon fill="#181818" points="444.34,1605.7779,435.34,1601.7779,439.34,1605.7779,435.34,1609.7779,444.34,1605.7779" style="stroke:#181818;stroke-width:1;"/></g><!--link source_github_workflows_python_publish_yml to tool_actions_checkout--><g class="link" data-entity-1="ent0003" data-entity-2="ent0009" data-link-type="dependency" data-source-line="39" id="lnk34"><path d="M288.32,1072.3979 C288.32,1048.1679 288.32,1017.7779 288.32,1017.7779 C288.32,1017.7779 343.03,1017.7779 394.61,1017.7779" fill="none" id="source_github_workflows_python_publish_yml-to-tool_actions_checkout" style="stroke:#181818;stroke-width:1;"/><polygon fill="#181818" points="400.61,1017.7779,391.61,1013.7779,395.61,1017.7779,391.61,1021.7779,400.61,1017.7779" style="stroke:#181818;stroke-width:1;"/></g><!--link source_github_workflows_python_publish_yml to tool_actions_download_artifact--><g class="link" data-entity-1="ent0003" data-entity-2="ent0010" data-link-type="dependency" data-source-line="40" id="lnk35"><path d="M280.32,1131.1579 C280.32,1155.3779 280.32,1185.7779 280.32,1185.7779 C280.32,1185.7779 319.61,1185.7779 366.15,1185.7779" fill="none" id="source_github_workflows_python_publish_yml-to-tool_actions_download_artifact" style="stroke:#181818;stroke-width:1;"/><polygon fill="#181818" points="372.15,1185.7779,363.15,1181.7779,367.15,1185.7779,363.15,1189.7779,372.15,1185.7779" style="stroke:#181818;stroke-width:1;"/></g><!--link source_github_workflows_python_publish_yml to tool_actions_setup_python--><g class="link" data-entity-1="ent0003" data-entity-2="ent0011" data-link-type="dependency" data-source-line="41" id="lnk36"><path d="M258.32,1130.9879 C258.32,1196.1979 258.32,1347.9779 258.32,1347.9779 C258.32,1347.9779 320.82,1347.9779 380.21,1347.9779" fill="none" id="source_github_workflows_python_publish_yml-to-tool_actions_setup_python" style="stroke:#181818;stroke-width:1;"/><polygon fill="#181818" points="386.21,1347.9779,377.21,1343.9779,381.21,1347.9779,377.21,1351.9779,386.21,1347.9779" style="stroke:#181818;stroke-width:1;"/></g><!--link source_github_workflows_python_publish_yml to tool_actions_upload_artifact--><g class="link" data-entity-1="ent0003" data-entity-2="ent0012" data-link-type="dependency" data-source-line="42" id="lnk37"><path d="M282.32,1072.3779 C282.32,1005.8979 282.32,849.7779 282.32,849.7779 C282.32,849.7779 326.89,849.7779 375.79,849.7779" fill="none" id="source_github_workflows_python_publish_yml-to-tool_actions_upload_artifact" style="stroke:#181818;stroke-width:1;"/><polygon fill="#181818" points="381.79,849.7779,372.79,845.7779,376.79,849.7779,372.79,853.7779,381.79,849.7779" style="stroke:#181818;stroke-width:1;"/></g><!--link source_github_workflows_python_publish_yml to tool_build--><g class="link" data-entity-1="ent0003" data-entity-2="ent0015" data-link-type="dependency" data-source-line="43" id="lnk38"><path d="M285.32,1072.5079 C285.32,1024.3779 285.32,933.7779 285.32,933.7779 C285.32,933.7779 380.98,933.7779 434.19,933.7779" fill="none" id="source_github_workflows_python_publish_yml-to-tool_build" style="stroke:#181818;stroke-width:1;"/><polygon fill="#181818" points="440.19,933.7779,431.19,929.7779,435.19,933.7779,431.19,937.7779,440.19,933.7779" style="stroke:#181818;stroke-width:1;"/></g><!--link source_github_workflows_python_publish_yml to tool_pip--><g class="link" data-entity-1="ent0003" data-entity-2="ent0019" data-link-type="dependency" data-source-line="44" id="lnk39"><path d="M269.32,1131.0879 C269.32,1177.2279 269.32,1261.5979 269.32,1261.5979 C269.32,1261.5979 385.68,1261.5979 440.18,1261.5979" fill="none" id="source_github_workflows_python_publish_yml-to-tool_pip" style="stroke:#181818;stroke-width:1;"/><polygon fill="#181818" points="446.18,1261.5979,437.18,1257.5979,441.18,1261.5979,437.18,1265.5979,446.18,1261.5979" style="stroke:#181818;stroke-width:1;"/></g><!--link source_github_workflows_python_publish_yml to tool_pypa_gh_action_pypi_publish--><g class="link" data-entity-1="ent0003" data-entity-2="ent0020" data-link-type="dependency" data-source-line="45" id="lnk40"><path d="M292.04,1101.7779 C316.1,1101.7779 334.85,1101.7779 358,1101.7779" fill="none" id="source_github_workflows_python_publish_yml-to-tool_pypa_gh_action_pypi_publish" style="stroke:#181818;stroke-width:1;"/><polygon fill="#181818" points="364,1101.7779,355,1097.7779,359,1101.7779,355,1105.7779,364,1101.7779" style="stroke:#181818;stroke-width:1;"/></g><!--link source_github_workflows_secret_scan_yml to tool_actions_checkout--><g class="link" data-entity-1="ent0004" data-entity-2="ent0009" data-link-type="dependency" data-source-line="46" id="lnk41"><path d="M155.32,795.1679 C155.32,859.1879 155.32,1005.5079 155.32,1005.5079 C155.32,1005.5079 301.05,1005.5079 394.4,1005.5079" fill="none" id="source_github_workflows_secret_scan_yml-to-tool_actions_checkout" style="stroke:#181818;stroke-width:1;"/><polygon fill="#181818" points="400.4,1005.5079,391.4,1001.5079,395.4,1005.5079,391.4,1009.5079,400.4,1005.5079" style="stroke:#181818;stroke-width:1;"/></g><!--link source_github_workflows_secret_scan_yml to tool_actions_upload_artifact--><g class="link" data-entity-1="ent0004" data-entity-2="ent0012" data-link-type="dependency" data-source-line="47" id="lnk42"><path d="M279.44,778.0379 C350.33,778.0379 425.32,778.0379 425.32,778.0379 C425.32,778.0379 425.32,798.3379 425.32,819.0879" fill="none" id="source_github_workflows_secret_scan_yml-to-tool_actions_upload_artifact" style="stroke:#181818;stroke-width:1;"/><polygon fill="#181818" points="425.32,825.0879,429.32,816.0879,425.32,820.0879,421.32,816.0879,425.32,825.0879" style="stroke:#181818;stroke-width:1;"/></g><!--link source_github_workflows_secret_scan_yml to tool_curl--><g class="link" data-entity-1="ent0004" data-entity-2="ent0016" data-link-type="dependency" data-source-line="48" id="lnk43"><path d="M155.32,736.5079 C155.32,688.3779 155.32,597.7779 155.32,597.7779 C155.32,597.7779 360.78,597.7779 438.01,597.7779" fill="none" id="source_github_workflows_secret_scan_yml-to-tool_curl" style="stroke:#181818;stroke-width:1;"/><polygon fill="#181818" points="444.01,597.7779,435.01,593.7779,439.01,597.7779,435.01,601.7779,444.01,597.7779" style="stroke:#181818;stroke-width:1;"/></g><!--link source_github_workflows_secret_scan_yml to tool_gitleaks_gitleaks_action--><g class="link" data-entity-1="ent0004" data-entity-2="ent0017" data-link-type="dependency" data-source-line="49" id="lnk44"><path d="M279.26,753.5079 C341.67,753.5079 404.32,753.5079 404.32,753.5079 C404.32,753.5079 404.32,733.2079 404.32,712.4579" fill="none" id="source_github_workflows_secret_scan_yml-to-tool_gitleaks_gitleaks_action" style="stroke:#181818;stroke-width:1;"/><polygon fill="#181818" points="404.32,706.4579,400.32,715.4579,404.32,711.4579,408.32,715.4579,404.32,706.4579" style="stroke:#181818;stroke-width:1;"/></g><!--link source_github_workflows_secret_scan_yml to tool_tar--><g class="link" data-entity-1="ent0004" data-entity-2="ent0027" data-link-type="dependency" data-source-line="50" id="lnk45"><path d="M279.26,765.7779 C341.43,765.7779 405.09,765.7779 441.17,765.7779" fill="none" id="source_github_workflows_secret_scan_yml-to-tool_tar" style="stroke:#181818;stroke-width:1;"/><polygon fill="#181818" points="447.17,765.7779,438.17,761.7779,442.17,765.7779,438.17,769.7779,447.17,765.7779" style="stroke:#181818;stroke-width:1;"/></g><!--link source_scripts_refresh_tachometer_summaries_sh to tool_mapfile--><g class="link" data-entity-1="ent0005" data-entity-2="ent0018" data-link-type="dependency" data-source-line="51" id="lnk46"><path d="M282.32,126.4579 C282.32,113.1779 282.32,100.3979 282.32,100.3979 C282.32,100.3979 370.01,100.3979 425.63,100.3979" fill="none" id="source_scripts_refresh_tachometer_summaries_sh-to-tool_mapfile" style="stroke:#181818;stroke-width:1;"/><polygon fill="#181818" points="431.63,100.3979,422.63,96.3979,426.63,100.3979,422.63,104.3979,431.63,100.3979" style="stroke:#181818;stroke-width:1;"/></g><!--link source_scripts_refresh_tachometer_summaries_sh to tool_python3--><g class="link" data-entity-1="ent0005" data-entity-2="ent0022" data-link-type="dependency" data-source-line="52" id="lnk47"><path d="M304.48,157.7779 C350.13,157.7779 390.81,157.7779 423.23,157.7779" fill="none" id="source_scripts_refresh_tachometer_summaries_sh-to-tool_python3" style="stroke:#181818;stroke-width:1;"/><polygon fill="#181818" points="429.23,157.7779,420.23,153.7779,424.23,157.7779,420.23,161.7779,429.23,157.7779" style="stroke:#181818;stroke-width:1;"/></g><!--link source_scripts_refresh_tachometer_summaries_sh to tool_tachometer--><g class="link" data-entity-1="ent0005" data-entity-2="ent0026" data-link-type="dependency" data-source-line="53" id="lnk48"><path d="M304.53,171.3079 C366.51,171.3079 424.32,171.3079 424.32,171.3079 C424.32,171.3079 424.32,263.7079 424.32,310.9879" fill="none" id="source_scripts_refresh_tachometer_summaries_sh-to-tool_tachometer" style="stroke:#181818;stroke-width:1;"/><polygon fill="#181818" points="424.32,316.9879,428.32,307.9879,424.32,311.9879,420.32,307.9879,424.32,316.9879" style="stroke:#181818;stroke-width:1;"/></g><!--link source_scripts_run_all_tachometer_snapshots_sh to tool_bash--><g class="link" data-entity-1="ent0006" data-entity-2="ent0013" data-link-type="dependency" data-source-line="54" id="lnk49"><path d="M299.86,252.7779 C352.63,252.7779 401.48,252.7779 434.64,252.7779" fill="none" id="source_scripts_run_all_tachometer_snapshots_sh-to-tool_bash" style="stroke:#181818;stroke-width:1;"/><polygon fill="#181818" points="440.64,252.7779,431.64,248.7779,435.64,252.7779,431.64,256.7779,440.64,252.7779" style="stroke:#181818;stroke-width:1;"/></g><!--link source_scripts_run_all_tachometer_snapshots_sh to tool_python3--><g class="link" data-entity-1="ent0006" data-entity-2="ent0022" data-link-type="dependency" data-source-line="55" id="lnk50"><path d="M300,223.9779 C368.38,223.9779 435.32,223.9779 435.32,223.9779 C435.32,223.9779 435.32,214.3979 435.32,199.7879" fill="none" id="source_scripts_run_all_tachometer_snapshots_sh-to-tool_python3" style="stroke:#181818;stroke-width:1;"/><polygon fill="#181818" points="435.32,193.7879,431.32,202.7879,435.32,198.7879,439.32,202.7879,435.32,193.7879" style="stroke:#181818;stroke-width:1;"/></g><!--link source_scripts_run_tachometer_profile_sh to tool_run--><g class="link" data-entity-1="ent0007" data-entity-2="ent0024" data-link-type="dependency" data-source-line="56" id="lnk51"><path d="M276.99,430.0079 C338.46,430.0079 401.78,430.0079 438.91,430.0079" fill="none" id="source_scripts_run_tachometer_profile_sh-to-tool_run" style="stroke:#181818;stroke-width:1;"/><polygon fill="#181818" points="444.91,430.0079,435.91,426.0079,439.91,430.0079,435.91,434.0079,444.91,430.0079" style="stroke:#181818;stroke-width:1;"/></g><!--link source_scripts_run_tachometer_profile_sh to tool_summarize--><g class="link" data-entity-1="ent0007" data-entity-2="ent0025" data-link-type="dependency" data-source-line="57" id="lnk52"><path d="M277.01,459.0779 C351.34,459.0779 432.32,459.0779 432.32,459.0779 C432.32,459.0779 432.32,468.5079 432.32,482.9879" fill="none" id="source_scripts_run_tachometer_profile_sh-to-tool_summarize" style="stroke:#181818;stroke-width:1;"/><polygon fill="#181818" points="432.32,488.9879,436.32,479.9879,432.32,483.9879,428.32,479.9879,432.32,488.9879" style="stroke:#181818;stroke-width:1;"/></g><!--link source_scripts_run_tachometer_profile_sh to tool_tachometer--><g class="link" data-entity-1="ent0007" data-entity-2="ent0026" data-link-type="dependency" data-source-line="58" id="lnk53"><path d="M267.32,405.5879 C267.32,381.0479 267.32,349.9479 267.32,349.9479 C267.32,349.9479 351.5,349.9479 412.09,349.9479" fill="none" id="source_scripts_run_tachometer_profile_sh-to-tool_tachometer" style="stroke:#181818;stroke-width:1;"/><polygon fill="#181818" points="418.09,349.9479,409.09,345.9479,413.09,349.9479,409.09,353.9479,418.09,349.9479" style="stroke:#181818;stroke-width:1;"/></g><!--link source_scripts_serve_tachometer_sh to tool_tachometer--><g class="link" data-entity-1="ent0008" data-entity-2="ent0026" data-link-type="dependency" data-source-line="59" id="lnk54"><path d="M258.75,333.5979 C311.91,333.5979 368.54,333.5979 412.09,333.5979" fill="none" id="source_scripts_serve_tachometer_sh-to-tool_tachometer" style="stroke:#181818;stroke-width:1;"/><polygon fill="#181818" points="418.09,333.5979,409.09,329.5979,413.09,333.5979,409.09,337.5979,418.09,333.5979" style="stroke:#181818;stroke-width:1;"/></g><?plantuml-src fLTBZvim4BxpAwpTCqbtL-sgbrxQfEgXlMoFArbUCDYAiIrxw8h--jeyOWT20kaDCzzZy6Cy00T14P2CgOe2DUYtKeBB4lsGG4j3W2jf4q4BGA2GuIK3b7D3Cnz8x85BJGofa6KaL--UM11XQHJ9QK5g0NibuHUfAFgffBAQP34cKvLMaafuWSQbu-M9B4KCSKbHQ3H5oW1JoH62xZOb1rQ_RT-LEHH2lTjjnZTD9Lxb9sSE3aXpbxmIzWuHYwogJKPnHy974iuuTYHql_kmVzplBXlenkKWKrs_2MvPP_QyngmJmBt0ScDBCqCXjHcHdUl7DQuT6tlsdAND3DTWjuOMXhhCmix0jgugOZYr6yjUvTC5uru4NnB1bbtqhoKcGfnG9T6MAUZy7vVuNn1Pu1_Hj5455tJvbv-bN_6qrFoX4QrrUpXrEsSsviKscL1rZkv8UrxToM0qEwWQMXclX_i87YBeVh_RFtrz7ZFTwPP2aJmb1dZXtaub1WWU87DQbaAjq-uCJ6NQQ7z2vXHgVIMN3Z2RoHknB93yQ88G93j443-SO6ekyWZZXsDCLXiH87uqHfI-19E3tGuFQVSHWJK4maE762jLHFjj5eZzYp5ESnqmRZ29DvfiIzRduHPAyw7MHJm7mYNhK_53FjIpgHvG2p7LZy-Wt8e_dS3yYp7Er4KHG7uqHSWOC9cdlWZzZMRg-6gC3SSgWAFhSe8-WONubLidJR-SFuwhYV7fMKnkT_TYjDinox7jKY-6-zLCLboQw-TjYSYaaFsNsg8LMI8qgcatQRKrwYRcfLM_o9kl4ydIHcNzCbzLM3gPiqA-bAzdpPNozKgkkYGh-wqZjxyNRkRtbVbcVW0aArksi959s3-hoNFvptPjKO6IDx2EjyiDtFcvEjVtdQD91NIubDmVsdT3D7jfCsgI5xUlfEijduSeSdzXfj6AIzTe9z-6tlFXCmB6JPwwlp5ekiPtar2P8w_-3m00?></g></svg>
