<?plantuml 1.2026.2?><svg xmlns="http://www.w3.org/2000/svg" xmlns:xlink="http://www.w3.org/1999/xlink" contentStyleType="text/css" data-diagram-type="DESCRIPTION" height="1052px" preserveAspectRatio="none" style="width:547px;height:1052px;background:#FFFFFF;" version="1.1" viewBox="0 0 547 1052" width="547px" zoomAndPan="magnify"><title>tachometer Tooling Integrations</title><defs/><g><g class="title" data-source-line="1"><text fill="#000000" font-family="Monospace" font-size="14" font-weight="bold" lengthAdjust="spacing" textLength="226.7327" x="153.2731" y="24.9659">tachometer&#160;Tooling&#160;Integrations</text></g><!--entity source_github_workflows_ci_yml--><g class="entity" data-qualified-name="source_github_workflows_ci_yml" data-source-line="7" id="ent0002"><rect fill="#E0F2FE" height="58.1358" rx="2.5" ry="2.5" style="stroke:#181818;stroke-width:0.5;" width="182.6234" x="64.35" y="778.7079"/><text fill="#000000" font-family="Monospace" font-size="14" lengthAdjust="spacing" textLength="162.6234" x="74.35" y="803.6739">.github/workflows/ci.yml</text><text fill="#000000" font-family="Monospace" font-size="14" lengthAdjust="spacing" textLength="105.3356" x="74.35" y="822.7418">6&#160;detected&#160;tools</text></g><!--entity source_scripts_refresh_tachometer_summaries_sh--><g class="entity" data-qualified-name="source_scripts_refresh_tachometer_summaries_sh" data-source-line="8" id="ent0003"><rect fill="#E0F2FE" height="58.1358" rx="2.5" ry="2.5" style="stroke:#181818;stroke-width:0.5;" width="297.325" x="7" y="126.7079"/><text fill="#000000" font-family="Monospace" font-size="14" lengthAdjust="spacing" textLength="277.325" x="17" y="151.6739">scripts/refresh_tachometer_summaries.sh</text><text fill="#000000" font-family="Monospace" font-size="14" lengthAdjust="spacing" textLength="105.3356" x="17" y="170.7418">3&#160;detected&#160;tools</text></g><!--entity source_scripts_run_all_tachometer_snapshots_sh--><g class="entity" data-qualified-name="source_scripts_run_all_tachometer_snapshots_sh" data-source-line="9" id="ent0004"><rect fill="#E0F2FE" height="58.1358" rx="2.5" ry="2.5" style="stroke:#181818;stroke-width:0.5;" width="288.197" x="11.56" y="219.7079"/><text fill="#000000" font-family="Monospace" font-size="14" lengthAdjust="spacing" textLength="268.197" x="21.56" y="244.6739">scripts/run_all_tachometer_snapshots.sh</text><text fill="#000000" font-family="Monospace" font-size="14" lengthAdjust="spacing" textLength="105.3356" x="21.56" y="263.7418">2&#160;detected&#160;tools</text></g><!--entity source_scripts_run_tachometer_profile_sh--><g class="entity" data-qualified-name="source_scripts_run_tachometer_profile_sh" data-source-line="10" id="ent0005"><rect fill="#E0F2FE" height="58.1358" rx="2.5" ry="2.5" style="stroke:#181818;stroke-width:0.5;" width="242.2912" x="34.52" y="405.7079"/><text fill="#000000" font-family="Monospace" font-size="14" lengthAdjust="spacing" textLength="222.2912" x="44.52" y="430.6739">scripts/run_tachometer_profile.sh</text><text fill="#000000" font-family="Monospace" font-size="14" lengthAdjust="spacing" textLength="105.3356" x="44.52" y="449.7418">3&#160;detected&#160;tools</text></g><!--entity source_scripts_serve_tachometer_sh--><g class="entity" data-qualified-name="source_scripts_serve_tachometer_sh" data-source-line="11" id="ent0006"><rect fill="#E0F2FE" height="58.1358" rx="2.5" ry="2.5" style="stroke:#181818;stroke-width:0.5;" width="205.5833" x="52.87" y="312.7079"/><text fill="#000000" font-family="Monospace" font-size="14" lengthAdjust="spacing" textLength="185.5833" x="62.87" y="337.6739">scripts/serve_tachometer.sh</text><text fill="#000000" font-family="Monospace" font-size="14" lengthAdjust="spacing" textLength="98.6296" x="62.87" y="356.7418">1&#160;detected&#160;tool</text></g><!--entity tool_actions_checkout--><g class="entity" data-qualified-name="tool_actions_checkout" data-source-line="12" id="ent0007"><path d="M387.9421,581.6036 C391.7939,575.4446 396.5365,575.5851 400.266,581.7262 C403.5717,574.9632 408.5734,576.2122 412.612,580.9387 C417.2323,573.7913 421.4929,573.9161 426.1339,580.919 C430.4087,574.6356 434.2413,575.6236 438.3373,581.1045 C441.6688,576.4186 446.8824,576.5722 449.6626,581.7382 C452.3608,576.0805 458.6273,575.5886 462.2045,580.7161 C466.2841,574.6788 471.5819,574.7384 475.955,580.3702 C481.1296,574.9347 485.8912,575.4348 488.7416,582.7085 C491.7126,576.5845 497.1929,576.6686 500.2315,582.6443 C504.2003,576.8108 508.5844,577.5678 512.5944,582.5974 C522.2757,585.007 523.5859,591.1667 518.5882,598.955 C524.0331,607.4122 522.568,612.5155 512.6247,615.3885 C510.3771,621.0599 505.0173,621.5312 501.8414,616.3073 C498.2544,622.8175 492.0923,623.4068 487.5011,617.4636 C484.7676,623.3661 480.7971,624.9815 475.5671,620.2708 C472.2862,626.7747 467.7901,626.5988 463.7101,621.0573 C461.1817,628.4965 454.6643,628.9634 450.656,622.4411 C445.7527,628.8389 440.2936,626.7632 437.8065,620.0695 C433.8706,626.8475 427.9489,626.6921 424.3781,619.7131 C419.8434,625.2315 415.1551,623.7529 412.4815,617.7855 C408.6043,622.903 403.2453,622.5251 400.7014,616.3898 C396.2405,621.8529 390.0186,622.5887 386.7571,615.0986 C379.6591,611.0471 378.2577,603.0642 386.8387,599.0927 C378.5964,593.0645 379.5435,586.5819 387.9421,581.6036" fill="#FEF3C7" style="stroke:#181818;stroke-width:0.5;"/><text fill="#000000" font-family="Monospace" font-size="14" lengthAdjust="spacing" textLength="111.9156" x="393.51" y="603.2039">actions/checkout</text></g><!--entity tool_actions_setup_python--><g class="entity" data-qualified-name="tool_actions_setup_python" data-source-line="13" id="ent0008"><path d="M373.5691,666.7886 C375.7816,660.7338 379.9952,660.672 383.8139,665.2395 C388.6776,659.9098 393.0169,660.5586 396.4097,666.8357 C398.3057,662.2463 403.1036,660.3921 406.5596,665.1398 C409.9191,658.8472 413.5266,658.9538 417.5951,664.4776 C421.1753,658.9911 424.913,659.8893 428.3627,664.6152 C432.2014,660.2736 435.8398,660.602 438.616,665.7618 C441.7914,659.9573 446.8479,658.3045 451.5898,663.9936 C454.6356,659.0228 457.574,659.0813 460.695,663.9238 C465.0281,658.1812 469.3561,658.8219 473.0853,664.5748 C477.128,659.6374 480.9971,660.3012 484.0586,665.6243 C486.8271,660.2513 491.5905,660.9276 494.6999,665.2501 C497.7503,659.606 502.5518,660.3211 505.2825,665.5609 C509.5074,659.9187 513.3072,660.6022 517.3437,665.771 C521.1354,660.5006 525.5872,660.814 528.7876,666.3945 C537.9326,669.0958 539.7641,677.119 533.244,683.8252 C540.2789,691.9209 537.8316,698.4588 527.2414,700.0228 C523.7594,705.6135 519.981,705.5411 516.7967,699.7495 C514.7518,705.6253 509.8128,705.2488 506.3459,701.2552 C503.599,707.1179 498.9712,707.2693 495.0738,702.4719 C491.9527,708.5877 486.2031,708.3233 483.1338,702.4204 C480.7105,707.9861 477.4816,707.365 473.5833,703.9974 C470.4292,709.1305 465.8685,709.7664 462.3569,704.3789 C459.9821,709.7606 454.3219,710.2346 450.9729,705.4721 C447.3916,711.4957 442.8483,711.169 439.161,705.5798 C435.5863,710.1587 430.3935,710.8475 427.6966,704.6464 C424.0468,709.1299 419.7418,707.6187 417.9953,702.6856 C413.5432,706.7163 409.8124,706.3805 406.6581,701.1046 C402.5218,707.2135 398.6078,705.9096 394.7284,700.8306 C392.501,705.2565 387.8723,705.123 385.2188,701.3232 C381.4447,706.9986 375.8649,706.3849 373.3662,700.0631 C363.6293,698.7773 360.0589,691.6095 364.6311,682.9989 C359.6685,674.0828 362.1967,666.6979 373.5691,666.7886" fill="#FEF3C7" style="stroke:#181818;stroke-width:0.5;"/><text fill="#000000" font-family="Monospace" font-size="14" lengthAdjust="spacing" textLength="140.2795" x="379.32" y="687.2039">actions/setup-python</text></g><!--entity tool_bash--><g class="entity" data-qualified-name="tool_bash" data-source-line="14" id="ent0009"><path d="M427.5442,236.9078 C430.5081,231.3549 434.7615,230.8253 438.2758,236.3759 C440.5861,230.9809 445.6441,228.7148 450.0477,234.0874 C454.5165,229.7164 459.1564,229.7484 461.8395,236.0587 C466.0585,230.3854 471.838,231.9457 474.4882,237.7827 C483.7766,242.4607 484.0693,247.6808 476.6979,254.5538 C483.0669,260.3988 480.3855,267.4334 472.9651,269.9311 C471.3129,274.9555 467.3235,277.2145 462.837,273.0579 C459.4973,280.0135 454.716,280.6952 450.2185,274.1391 C445.8171,278.1764 442.1598,278.769 439.4181,272.4142 C435.1925,277.5957 431.4119,277.1362 428.6424,271.0247 C419.1851,268.8525 416.7953,261.017 422.2441,253.4255 C415.501,246.3761 418.9312,239.0299 427.5442,236.9078" fill="#FEF3C7" style="stroke:#181818;stroke-width:0.5;"/><text fill="#000000" font-family="Monospace" font-size="14" lengthAdjust="spacing" textLength="31.8219" x="433.55" y="258.2039">bash</text></g><!--entity tool_black--><g class="entity" data-qualified-name="tool_black" data-source-line="15" id="ent0010"><path d="M425.9512,750.8532 C427.973,744.3588 434.0175,743.8391 438.1473,748.5611 C442.0181,741.9361 446.3447,741.7907 450.7724,748.0139 C455.182,742.5195 459.0321,742.7362 462.5559,748.9086 C466.801,743.1503 472.5944,743.1937 475.4493,750.3017 C483.4422,754.1633 484.1631,760.6647 477.6401,766.4906 C484.1522,772.6082 483.271,780.4189 474.6217,783.9092 C472.8948,790.1464 467.6359,792.6505 462.285,788.025 C461.2892,794.2827 455.977,795.3895 451.6239,791.5806 C445.0792,797.0675 439.6635,795.1901 438.1111,786.7403 C432.3156,792.6409 427.5128,791.2527 425.3837,783.3578 C414.7635,781.4828 413.2782,775.3657 419.2749,767.206 C413.3582,758.88 417.1506,753.1707 425.9512,750.8532" fill="#FEF3C7" style="stroke:#181818;stroke-width:0.5;"/><text fill="#000000" font-family="Monospace" font-size="14" lengthAdjust="spacing" textLength="34.2719" x="432.33" y="771.2039">black</text></g><!--entity tool_mapfile--><g class="entity" data-qualified-name="tool_mapfile" data-source-line="16" id="ent0011"><path d="M418.7343,69.3965 C423.3922,60.4847 430.9885,60.8478 435.5699,69.4699 C439.5145,62.23 444.8431,62.8983 449.4789,68.7349 C455.2768,60.8136 461.7012,61.8259 467.1171,69.1761 C471.6748,61.1445 478.1839,61.7495 482.1984,69.689 C493.0873,70.2079 494.9931,76.1788 490.9496,85.1498 C496.5303,94.8594 493.91,101.5287 482.0756,102.1451 C479.7513,110.6298 471.9427,110.8856 466.6481,105.4329 C463.4765,115.68 457.5259,116.8206 449.8894,109.7549 C443.5613,115.878 438.8387,115.1588 434.6705,107.3888 C426.9991,112.5572 421.5629,112.049 418.3242,102.4742 C408.6267,99.3785 406.2098,93.6391 413.8729,85.8851 C408.2815,79.0514 408.5964,71.5927 418.7343,69.3965" fill="#FEF3C7" style="stroke:#181818;stroke-width:0.5;"/><text fill="#000000" font-family="Monospace" font-size="14" lengthAdjust="spacing" textLength="49.4898" x="424.72" y="90.2039">mapfile</text></g><!--entity tool_pip--><g class="entity" data-qualified-name="tool_pip" data-source-line="17" id="ent0012"><path d="M433.3412,833.3066 C437.6855,825.6787 445.1507,824.2161 450.6051,832.0686 C458.0131,823.9547 464.1218,825.9022 468.4105,835.2494 C477.7819,836.5015 481.8419,841.3941 477.007,850.6012 C483.0978,860.3279 477.4244,866.752 467.5361,867.5496 C464.6261,877.5252 458.9352,879.8925 450.5533,873.0874 C442.2373,880.1997 434.4226,876.2965 432.4346,866.3617 C424.622,862.083 422.19,857.4608 429.6987,850.5339 C422.6308,843.3159 423.5157,836.9528 433.3412,833.3066" fill="#FEF3C7" style="stroke:#181818;stroke-width:0.5;"/><text fill="#000000" font-family="Monospace" font-size="14" lengthAdjust="spacing" textLength="20.8319" x="439.05" y="855.2039">pip</text></g><!--entity tool_pytest--><g class="entity" data-qualified-name="tool_pytest" data-source-line="18" id="ent0013"><path d="M423.5793,918.7232 C426.2945,911.845 433.3522,910.2415 438.0173,916.5957 C441.2465,910.8063 446.9345,910.5653 450.872,915.7673 C454.8987,909.9968 460.7601,911.0771 463.1494,917.426 C468.8368,910.0824 473.9561,909.6968 478.534,918.4842 C490.3175,918.8154 493.7519,925.7337 487.1909,935.4341 C492.7147,945.0046 488.865,952.185 477.4891,951.6356 C475.7827,959.277 470.959,961.0862 465.1381,955.4684 C463.3112,963.0677 456.955,966.1915 450.2865,961.1624 C445.1018,965.384 438.4624,964.1444 437.825,956.4192 C430.7272,962.3782 424.163,959.7221 423.6406,950.3397 C415.5331,947.5464 412.0982,941.8936 418.4368,934.3877 C411.438,926.929 415.6114,921.2685 423.5793,918.7232" fill="#FEF3C7" style="stroke:#181818;stroke-width:0.5;"/><text fill="#000000" font-family="Monospace" font-size="14" lengthAdjust="spacing" textLength="40.4599" x="429.23" y="939.2039">pytest</text></g><!--entity tool_python3--><g class="entity" data-qualified-name="tool_python3" data-source-line="19" id="ent0014"><path d="M417.1134,152.5208 C421.2031,148.234 425.3039,148.1313 428.3109,153.7453 C430.4935,148.0478 435.8835,146.242 439.8757,151.9027 C443.4495,147.6751 446.6866,147.8593 449.5142,152.6961 C452.1798,147.606 457.2056,145.9793 461.0075,151.4607 C464.9879,145.6698 470.6966,145.9476 473.9898,152.2014 C477.6788,147.6017 482.356,147.6983 484.6384,153.6244 C491.5384,157.3626 493.1493,163.8147 486.6967,169.3056 C494.7533,175.9298 494.406,181.5819 484.5913,185.9448 C482.9195,191.7822 478.3571,192.0447 474.3139,188.559 C472.2031,196.4777 466.847,196.6137 461.2227,192.3277 C459.7008,198.1195 455.9003,201.1708 450.2252,196.8399 C444.0369,200.8396 440.1846,199.7509 438.2191,192.3808 C434.3034,195.7544 429.0045,195.1435 427.8776,189.2639 C423.2677,193.601 419.2267,192.9537 416.7353,186.9755 C408.979,183.6954 407.2333,176.561 413.9259,170.7752 C406.9164,164.3912 407.3826,155.9817 417.1134,152.5208" fill="#FEF3C7" style="stroke:#181818;stroke-width:0.5;"/><text fill="#000000" font-family="Monospace" font-size="14" lengthAdjust="spacing" textLength="54.5858" x="422.17" y="174.2039">python3</text></g><!--entity tool_ruff--><g class="entity" data-qualified-name="tool_ruff" data-source-line="20" id="ent0015"><path d="M431.0132,1001.9253 C435.8831,992.5258 445.2661,991.7936 450.8862,1001.1296 C457.6949,993.4368 463.3765,993.4715 468.5154,1002.8536 C479.071,1003.5033 481.3217,1010.0972 476.5055,1018.5645 C481.2834,1027.394 477.8804,1032.3586 468.8739,1034.6472 C463.7311,1044.6025 458.0408,1045.3056 450.4029,1037.1988 C443.7535,1044.788 435.4681,1045.587 431.3021,1034.6398 C422.2982,1033.3319 419.5761,1026.3738 425.819,1019.5323 C418.499,1012.3011 422.2646,1004.416 431.0132,1001.9253" fill="#FEF3C7" style="stroke:#181818;stroke-width:0.5;"/><text fill="#000000" font-family="Monospace" font-size="14" lengthAdjust="spacing" textLength="24.0659" x="437.43" y="1023.2039">ruff</text></g><!--entity tool_run--><g class="entity" data-qualified-name="tool_run" data-source-line="21" id="ent0016"><path d="M431.1302,414.8706 C436.0018,405.7293 444.3048,404.1296 451.3651,412.3143 C457.2287,404.5504 465.5535,406.2883 468.9527,414.9525 C478.5423,415.6613 484.2316,420.4144 478.7444,430.5737 C483.9785,440.0202 480.4765,445.44 470.103,446.3228 C469.8646,459.0475 463.5331,464.0421 451.5397,457.8709 C440.633,462.9036 433.4706,461.4176 432.7702,447.6703 C423.1093,446.8356 419.3211,438.744 424.6739,430.7327 C419.6185,422.6057 422.0347,417.2377 431.1302,414.8706" fill="#FEF3C7" style="stroke:#181818;stroke-width:0.5;"/><text fill="#000000" font-family="Monospace" font-size="14" lengthAdjust="spacing" textLength="23.0859" x="437.92" y="435.2039">run</text></g><!--entity tool_summarize--><g class="entity" data-qualified-name="tool_summarize" data-source-line="22" id="ent0017"><path d="M406.9962,497.7082 C412.1905,490.088 417.4279,491.6617 421.8554,498.4963 C425.4719,491.3452 431.1794,491.5795 435.2602,498.0389 C440.0942,490.5754 444.8609,489.3054 451.0659,496.5673 C455.1267,489.1997 462.2265,489.4657 465.8506,497.0007 C470.4351,490.1413 477.3265,490.4184 480.5424,498.3593 C484.1789,492.5447 490.879,491.9823 494.0417,498.8631 C503.4094,498.9338 507.5194,506.7506 502.4293,514.5512 C508.3739,523.1643 504.7013,529.1668 495.1064,530.7589 C491.3244,538.6105 483.7345,538.5184 478.8162,532.0518 C475.5099,540.1689 470.2283,539.6599 464.9695,534.0165 C462.1774,541.3974 455.2939,540.8845 451.2346,535.3659 C446.4056,540.9427 441.4355,541.9218 437.0981,534.8179 C431.5402,540.4858 425.2188,539.7947 422.1219,532.0665 C417.932,539.7863 411.4419,539.8264 407.5676,531.7753 C397.0076,530.9199 395.0751,521.6176 400.5171,514.3045 C395.2033,507.1206 396.2692,498.6298 406.9962,497.7082" fill="#FEF3C7" style="stroke:#181818;stroke-width:0.5;"/><text fill="#000000" font-family="Monospace" font-size="14" lengthAdjust="spacing" textLength="73.2617" x="412.83" y="519.2039">summarize</text></g><!--entity tool_tachometer--><g class="entity" data-qualified-name="tool_tachometer" data-source-line="23" id="ent0018"><path d="M405.8072,325.6907 C408.5807,320.6174 413.136,320.9775 415.8674,325.7338 C419.9484,319.5092 425.2957,320.9347 428.7526,326.4206 C432.0705,320.9344 435.3263,320.5078 439.0678,326.0235 C441.9586,319.1195 446.5121,319.0811 451.2458,324.1488 C455.0608,318.9114 459.4524,321.0105 461.7333,325.7599 C464.8661,320.6305 468.8949,320.416 472.416,325.3474 C476.2574,319.506 481.1607,320.6284 484.2276,326.1523 C487.296,320.4488 491.9369,321.7477 494.9123,326.2497 C503.1408,330.061 503.8221,337.0747 496.6596,342.5371 C504.68,347.5006 504.161,353.1823 496.8284,358.3101 C493.6461,363.712 489.3587,364.4527 485.4312,359.0998 C482.7729,365.7654 477.7121,366.0238 473.198,361.0502 C469.2325,366.4338 465.9146,365.6977 462.1971,360.7852 C459.7891,366.4725 454.5253,366.6148 451.5216,361.3666 C448.1125,366.1032 443.015,366.5201 439.8993,361.0332 C435.8747,364.8121 431.1651,365.0921 429.0326,358.959 C426.033,365.9778 419.8963,365.2166 415.8572,360.0863 C412.3131,364.5639 406.687,364.1996 404.3347,358.7087 C395.5279,357.5597 392.5725,349.3143 397.4487,342.3911 C392.7321,332.9882 394.1516,326.8994 405.8072,325.6907" fill="#FEF3C7" style="stroke:#181818;stroke-width:0.5;"/><text fill="#000000" font-family="Monospace" font-size="14" lengthAdjust="spacing" textLength="76.4677" x="411.23" y="347.2039">tachometer</text></g><g class="entity" data-qualified-name="toolingGraphSummary" data-source-line="40" id="ent0034"><path d="M51.91,46.0679 L51.91,91.4799 L259.4212,91.4799 L259.4212,56.0679 L249.4212,46.0679 L51.91,46.0679" fill="#FEFFDD" style="stroke:#181818;stroke-width:0.5;"/><path d="M249.4212,46.0679 L249.4212,56.0679 L259.4212,56.0679 L249.4212,46.0679" fill="#FEFFDD" style="stroke:#181818;stroke-width:1;"/><text fill="#000000" font-family="Monospace" font-size="13" lengthAdjust="spacing" textLength="186.5112" x="57.91" y="64.9649">Scanned&#160;5&#160;tooling&#160;entrypoints.</text><text fill="#000000" font-family="Monospace" font-size="13" lengthAdjust="spacing" textLength="179.2182" x="57.91" y="82.6709">Detected&#160;12&#160;third-party&#160;tools.</text></g><!--link source_github_workflows_ci_yml to tool_actions_checkout--><g class="link" data-entity-1="ent0002" data-entity-2="ent0007" data-link-type="dependency" data-source-line="24" id="lnk19"><path d="M155.6,778.5779 C155.6,720.8679 155.6,597.7779 155.6,597.7779 C155.6,597.7779 285.36,597.7779 372.33,597.7779" fill="none" id="source_github_workflows_ci_yml-to-tool_actions_checkout" style="stroke:#181818;stroke-width:1;"/><polygon fill="#181818" points="378.33,597.7779,369.33,593.7779,373.33,597.7779,369.33,601.7779,378.33,597.7779" style="stroke:#181818;stroke-width:1;"/></g><!--link source_github_workflows_ci_yml to tool_actions_setup_python--><g class="link" data-entity-1="ent0002" data-entity-2="ent0008" data-link-type="dependency" data-source-line="25" id="lnk20"><path d="M247.45,782.5779 C312.99,782.5779 389.6,782.5779 389.6,782.5779 C389.6,782.5779 389.6,742.5379 389.6,712.6879" fill="none" id="source_github_workflows_ci_yml-to-tool_actions_setup_python" style="stroke:#181818;stroke-width:1;"/><polygon fill="#181818" points="389.6,706.6879,385.6,715.6879,389.6,711.6879,393.6,715.6879,389.6,706.6879" style="stroke:#181818;stroke-width:1;"/></g><!--link source_github_workflows_ci_yml to tool_black--><g class="link" data-entity-1="ent0002" data-entity-2="ent0010" data-link-type="dependency" data-source-line="26" id="lnk21"><path d="M247.41,786.4379 C305.17,786.4379 370.22,786.4379 410.83,786.4379" fill="none" id="source_github_workflows_ci_yml-to-tool_black" style="stroke:#181818;stroke-width:1;"/><polygon fill="#181818" points="416.83,786.4379,407.83,782.4379,411.83,786.4379,407.83,790.4379,416.83,786.4379" style="stroke:#181818;stroke-width:1;"/></g><!--link source_github_workflows_ci_yml to tool_pip--><g class="link" data-entity-1="ent0002" data-entity-2="ent0012" data-link-type="dependency" data-source-line="27" id="lnk22"><path d="M247.41,831.0379 C308.53,831.0379 378.55,831.0379 417.62,831.0379" fill="none" id="source_github_workflows_ci_yml-to-tool_pip" style="stroke:#181818;stroke-width:1;"/><polygon fill="#181818" points="423.62,831.0379,414.62,827.0379,418.62,831.0379,414.62,835.0379,423.62,831.0379" style="stroke:#181818;stroke-width:1;"/></g><!--link source_github_workflows_ci_yml to tool_pytest--><g class="link" data-entity-1="ent0002" data-entity-2="ent0013" data-link-type="dependency" data-source-line="28" id="lnk23"><path d="M185.6,837.3179 C185.6,874.5579 185.6,933.7779 185.6,933.7779 C185.6,933.7779 335.86,933.7779 407.88,933.7779" fill="none" id="source_github_workflows_ci_yml-to-tool_pytest" style="stroke:#181818;stroke-width:1;"/><polygon fill="#181818" points="413.88,933.7779,404.88,929.7779,408.88,933.7779,404.88,937.7779,413.88,933.7779" style="stroke:#181818;stroke-width:1;"/></g><!--link source_github_workflows_ci_yml to tool_ruff--><g class="link" data-entity-1="ent0002" data-entity-2="ent0015" data-link-type="dependency" data-source-line="29" id="lnk24"><path d="M125.6,836.9779 C125.6,894.6779 125.6,1017.7779 125.6,1017.7779 C125.6,1017.7779 338.05,1017.7779 416.13,1017.7779" fill="none" id="source_github_workflows_ci_yml-to-tool_ruff" style="stroke:#181818;stroke-width:1;"/><polygon fill="#181818" points="422.13,1017.7779,413.13,1013.7779,417.13,1017.7779,413.13,1021.7779,422.13,1017.7779" style="stroke:#181818;stroke-width:1;"/></g><!--link source_scripts_refresh_tachometer_summaries_sh to tool_mapfile--><g class="link" data-entity-1="ent0003" data-entity-2="ent0011" data-link-type="dependency" data-source-line="30" id="lnk25"><path d="M281.6,126.4579 C281.6,113.1779 281.6,100.3979 281.6,100.3979 C281.6,100.3979 353.6,100.3979 403.26,100.3979" fill="none" id="source_scripts_refresh_tachometer_summaries_sh-to-tool_mapfile" style="stroke:#181818;stroke-width:1;"/><polygon fill="#181818" points="409.26,100.3979,400.26,96.3979,404.26,100.3979,400.26,104.3979,409.26,100.3979" style="stroke:#181818;stroke-width:1;"/></g><!--link source_scripts_refresh_tachometer_summaries_sh to tool_python3--><g class="link" data-entity-1="ent0003" data-entity-2="ent0014" data-link-type="dependency" data-source-line="31" id="lnk26"><path d="M304.72,157.7779 C342.21,157.7779 373.53,157.7779 400.88,157.7779" fill="none" id="source_scripts_refresh_tachometer_summaries_sh-to-tool_python3" style="stroke:#181818;stroke-width:1;"/><polygon fill="#181818" points="406.88,157.7779,397.88,153.7779,401.88,157.7779,397.88,161.7779,406.88,157.7779" style="stroke:#181818;stroke-width:1;"/></g><!--link source_scripts_refresh_tachometer_summaries_sh to tool_tachometer--><g class="link" data-entity-1="ent0003" data-entity-2="ent0018" data-link-type="dependency" data-source-line="32" id="lnk27"><path d="M304.75,171.3079 C356.4,171.3079 401.6,171.3079 401.6,171.3079 C401.6,171.3079 401.6,263.7079 401.6,310.9879" fill="none" id="source_scripts_refresh_tachometer_summaries_sh-to-tool_tachometer" style="stroke:#181818;stroke-width:1;"/><polygon fill="#181818" points="401.6,316.9879,405.6,307.9879,401.6,311.9879,397.6,307.9879,401.6,316.9879" style="stroke:#181818;stroke-width:1;"/></g><!--link source_scripts_run_all_tachometer_snapshots_sh to tool_bash--><g class="link" data-entity-1="ent0004" data-entity-2="ent0009" data-link-type="dependency" data-source-line="33" id="lnk28"><path d="M299.98,252.7779 C344.53,252.7779 383.4,252.7779 412.19,252.7779" fill="none" id="source_scripts_run_all_tachometer_snapshots_sh-to-tool_bash" style="stroke:#181818;stroke-width:1;"/><polygon fill="#181818" points="418.19,252.7779,409.19,248.7779,413.19,252.7779,409.19,256.7779,418.19,252.7779" style="stroke:#181818;stroke-width:1;"/></g><!--link source_scripts_run_all_tachometer_snapshots_sh to tool_python3--><g class="link" data-entity-1="ent0004" data-entity-2="ent0014" data-link-type="dependency" data-source-line="34" id="lnk29"><path d="M299.91,223.9779 C358.48,223.9779 412.6,223.9779 412.6,223.9779 C412.6,223.9779 412.6,214.3979 412.6,199.7879" fill="none" id="source_scripts_run_all_tachometer_snapshots_sh-to-tool_python3" style="stroke:#181818;stroke-width:1;"/><polygon fill="#181818" points="412.6,193.7879,408.6,202.7879,412.6,198.7879,416.6,202.7879,412.6,193.7879" style="stroke:#181818;stroke-width:1;"/></g><!--link source_scripts_run_tachometer_profile_sh to tool_run--><g class="link" data-entity-1="ent0005" data-entity-2="ent0016" data-link-type="dependency" data-source-line="35" id="lnk30"><path d="M277.28,430.0079 C331.12,430.0079 383.62,430.0079 416.69,430.0079" fill="none" id="source_scripts_run_tachometer_profile_sh-to-tool_run" style="stroke:#181818;stroke-width:1;"/><polygon fill="#181818" points="422.69,430.0079,413.69,426.0079,417.69,430.0079,413.69,434.0079,422.69,430.0079" style="stroke:#181818;stroke-width:1;"/></g><!--link source_scripts_run_tachometer_profile_sh to tool_summarize--><g class="link" data-entity-1="ent0005" data-entity-2="ent0017" data-link-type="dependency" data-source-line="36" id="lnk31"><path d="M277.16,459.0779 C342.82,459.0779 410.6,459.0779 410.6,459.0779 C410.6,459.0779 410.6,468.5079 410.6,482.9879" fill="none" id="source_scripts_run_tachometer_profile_sh-to-tool_summarize" style="stroke:#181818;stroke-width:1;"/><polygon fill="#181818" points="410.6,488.9879,414.6,479.9879,410.6,483.9879,406.6,479.9879,410.6,488.9879" style="stroke:#181818;stroke-width:1;"/></g><!--link source_scripts_run_tachometer_profile_sh to tool_tachometer--><g class="link" data-entity-1="ent0005" data-entity-2="ent0018" data-link-type="dependency" data-source-line="37" id="lnk32"><path d="M267.6,405.5879 C267.6,381.0479 267.6,349.9479 267.6,349.9479 C267.6,349.9479 336.24,349.9479 389.88,349.9479" fill="none" id="source_scripts_run_tachometer_profile_sh-to-tool_tachometer" style="stroke:#181818;stroke-width:1;"/><polygon fill="#181818" points="395.88,349.9479,386.88,345.9479,390.88,349.9479,386.88,353.9479,395.88,349.9479" style="stroke:#181818;stroke-width:1;"/></g><!--link source_scripts_serve_tachometer_sh to tool_tachometer--><g class="link" data-entity-1="ent0006" data-entity-2="ent0018" data-link-type="dependency" data-source-line="38" id="lnk33"><path d="M258.83,333.5979 C305.13,333.5979 351.8,333.5979 390.03,333.5979" fill="none" id="source_scripts_serve_tachometer_sh-to-tool_tachometer" style="stroke:#181818;stroke-width:1;"/><polygon fill="#181818" points="396.03,333.5979,387.03,329.5979,391.03,333.5979,387.03,337.5979,396.03,333.5979" style="stroke:#181818;stroke-width:1;"/></g><?plantuml-src dPLDZziW48Rl_XKeUqwscwZjhPTjKlNGNjBZIeZ5uu226GJZHkwlBtO-J1mdw-G8yxpp0WC3QJB0I4Y59H1uzWVHQBjXFot1nWlIQ4Dce216oBpUA6AvzY2RG1QssZhXHSc24Zdk6c4XJ80aaaCXAaChjFHRbC1-eSNWX4mPYQL32vRMLCVbDEc5tPWKYOi2gXqmzAGmEo5iCjjeKjNxymxzjZ2u2yzIp-hIlDalqPmY27bSF9emOIAmW9MNmFSYVX9ngNaKiQVbfzLyjKmDWlJQKNZsK7W8YdUdnKDLbi9h2BEWtkpYXjyX2R-LX0Trqx-oN1Xp9hN21OMqzv-FyR-HP8H_8dCU2srW_Cu7vHzu1l1_8P6rRY_dRaDcVLrg8mrMEPk8zWx7sw90Rh6YDasJZnyY_1XXJwlbQl7wjQyCG9MRkZfUI7kfRgDy7-rdU1T1TOfcT44O8RS9qWpxJ2bSSuGTTPZeSqwxZec3YtXD49BzxyS3LDp9uWnh9lgShugYWvhH9M5JuE9q3W_YNxApqrIVxKhSmKaxEz8VlFhfzDjmwUyMfbKVBMwhEvgE5HpFjgKSZJVLokxiM2VnuVOzh3_SfuVr7P3TsVIwGiIN-B3uslglzhtasEq3gjERU41x_Qo6EkUGp2B1ySN5V_-75qwjsnNLsLeAQsDt_doCilYt-zgXjl6hohuVk_VBd97IFf_6Fvxg_TSnoy3chCd-7m00?></g></svg>
